%TF.GenerationSoftware,KiCad,Pcbnew,8.0.2*%
%TF.CreationDate,2024-12-27T17:59:50+11:00*%
%TF.ProjectId,Shutter-TestPlatform,53687574-7465-4722-9d54-657374506c61,rev?*%
%TF.SameCoordinates,Original*%
%TF.FileFunction,Copper,L1,Top*%
%TF.FilePolarity,Positive*%
%FSLAX46Y46*%
G04 Gerber Fmt 4.6, Leading zero omitted, Abs format (unit mm)*
G04 Created by KiCad (PCBNEW 8.0.2) date 2024-12-27 17:59:50*
%MOMM*%
%LPD*%
G01*
G04 APERTURE LIST*
G04 Aperture macros list*
%AMRoundRect*
0 Rectangle with rounded corners*
0 $1 Rounding radius*
0 $2 $3 $4 $5 $6 $7 $8 $9 X,Y pos of 4 corners*
0 Add a 4 corners polygon primitive as box body*
4,1,4,$2,$3,$4,$5,$6,$7,$8,$9,$2,$3,0*
0 Add four circle primitives for the rounded corners*
1,1,$1+$1,$2,$3*
1,1,$1+$1,$4,$5*
1,1,$1+$1,$6,$7*
1,1,$1+$1,$8,$9*
0 Add four rect primitives between the rounded corners*
20,1,$1+$1,$2,$3,$4,$5,0*
20,1,$1+$1,$4,$5,$6,$7,0*
20,1,$1+$1,$6,$7,$8,$9,0*
20,1,$1+$1,$8,$9,$2,$3,0*%
%AMFreePoly0*
4,1,19,0.500000,-0.750000,0.000000,-0.750000,0.000000,-0.744911,-0.071157,-0.744911,-0.207708,-0.704816,-0.327430,-0.627875,-0.420627,-0.520320,-0.479746,-0.390866,-0.500000,-0.250000,-0.500000,0.250000,-0.479746,0.390866,-0.420627,0.520320,-0.327430,0.627875,-0.207708,0.704816,-0.071157,0.744911,0.000000,0.744911,0.000000,0.750000,0.500000,0.750000,0.500000,-0.750000,0.500000,-0.750000,
$1*%
%AMFreePoly1*
4,1,19,0.000000,0.744911,0.071157,0.744911,0.207708,0.704816,0.327430,0.627875,0.420627,0.520320,0.479746,0.390866,0.500000,0.250000,0.500000,-0.250000,0.479746,-0.390866,0.420627,-0.520320,0.327430,-0.627875,0.207708,-0.704816,0.071157,-0.744911,0.000000,-0.744911,0.000000,-0.750000,-0.500000,-0.750000,-0.500000,0.750000,0.000000,0.750000,0.000000,0.744911,0.000000,0.744911,
$1*%
G04 Aperture macros list end*
%TA.AperFunction,SMDPad,CuDef*%
%ADD10RoundRect,0.237500X0.237500X-0.250000X0.237500X0.250000X-0.237500X0.250000X-0.237500X-0.250000X0*%
%TD*%
%TA.AperFunction,SMDPad,CuDef*%
%ADD11RoundRect,0.237500X-0.237500X0.250000X-0.237500X-0.250000X0.237500X-0.250000X0.237500X0.250000X0*%
%TD*%
%TA.AperFunction,SMDPad,CuDef*%
%ADD12FreePoly0,90.000000*%
%TD*%
%TA.AperFunction,SMDPad,CuDef*%
%ADD13FreePoly1,90.000000*%
%TD*%
%TA.AperFunction,SMDPad,CuDef*%
%ADD14C,3.000000*%
%TD*%
%TA.AperFunction,ComponentPad*%
%ADD15C,1.600000*%
%TD*%
%TA.AperFunction,ComponentPad*%
%ADD16O,1.600000X1.600000*%
%TD*%
%TA.AperFunction,ComponentPad*%
%ADD17C,5.600000*%
%TD*%
%TA.AperFunction,ComponentPad*%
%ADD18C,1.905000*%
%TD*%
%TA.AperFunction,SMDPad,CuDef*%
%ADD19RoundRect,0.237500X0.250000X0.237500X-0.250000X0.237500X-0.250000X-0.237500X0.250000X-0.237500X0*%
%TD*%
%TA.AperFunction,SMDPad,CuDef*%
%ADD20RoundRect,0.237500X0.300000X0.237500X-0.300000X0.237500X-0.300000X-0.237500X0.300000X-0.237500X0*%
%TD*%
%TA.AperFunction,SMDPad,CuDef*%
%ADD21RoundRect,0.237500X-0.250000X-0.237500X0.250000X-0.237500X0.250000X0.237500X-0.250000X0.237500X0*%
%TD*%
%TA.AperFunction,SMDPad,CuDef*%
%ADD22R,1.400000X0.450000*%
%TD*%
%TA.AperFunction,SMDPad,CuDef*%
%ADD23RoundRect,0.249999X0.450001X1.425001X-0.450001X1.425001X-0.450001X-1.425001X0.450001X-1.425001X0*%
%TD*%
%TA.AperFunction,SMDPad,CuDef*%
%ADD24RoundRect,0.250000X0.400000X0.625000X-0.400000X0.625000X-0.400000X-0.625000X0.400000X-0.625000X0*%
%TD*%
%TA.AperFunction,ViaPad*%
%ADD25C,0.800000*%
%TD*%
%TA.AperFunction,Conductor*%
%ADD26C,0.400000*%
%TD*%
%TA.AperFunction,Conductor*%
%ADD27C,1.000000*%
%TD*%
%TA.AperFunction,Conductor*%
%ADD28C,0.800000*%
%TD*%
%TA.AperFunction,Conductor*%
%ADD29C,0.500000*%
%TD*%
G04 APERTURE END LIST*
D10*
%TO.P,R4,1*%
%TO.N,/+12V*%
X159500000Y-76675724D03*
%TO.P,R4,2*%
%TO.N,/V1+*%
X159500000Y-74850724D03*
%TD*%
D11*
%TO.P,R8,1*%
%TO.N,/V2-*%
X170800000Y-76125000D03*
%TO.P,R8,2*%
%TO.N,GND*%
X170800000Y-77950000D03*
%TD*%
D12*
%TO.P,JP4,1,A*%
%TO.N,/MOTOR_{IN}*%
X170950000Y-91500000D03*
D13*
%TO.P,JP4,2,B*%
%TO.N,Net-(JP2-B)*%
X170950000Y-90200000D03*
%TD*%
D14*
%TO.P,TP3,1,1*%
%TO.N,/V1-*%
X181000000Y-65500000D03*
%TD*%
D12*
%TO.P,JP1,1,A*%
%TO.N,Net-(JP1-A)*%
X161450000Y-86500000D03*
D13*
%TO.P,JP1,2,B*%
%TO.N,/+12V*%
X161450000Y-85200000D03*
%TD*%
D15*
%TO.P,R9,1*%
%TO.N,/MOTOR_{IN}*%
X170580000Y-81750000D03*
D16*
%TO.P,R9,2*%
%TO.N,GND*%
X160420000Y-81750000D03*
%TD*%
D17*
%TO.P,H1,1,1*%
%TO.N,unconnected-(H1-Pad1)*%
X154900000Y-75700000D03*
%TD*%
D18*
%TO.P,J2,1,Pin_1*%
%TO.N,GND*%
X169210000Y-97000000D03*
%TO.P,J2,2*%
%TO.N,N/C*%
X174290000Y-97000000D03*
%TD*%
D19*
%TO.P,R5,1*%
%TO.N,GND*%
X161155213Y-73000000D03*
%TO.P,R5,2*%
%TO.N,/V1+*%
X159330213Y-73000000D03*
%TD*%
D20*
%TO.P,C1,1*%
%TO.N,/+5V*%
X168400000Y-73000000D03*
%TO.P,C1,2*%
%TO.N,GND*%
X166675000Y-73000000D03*
%TD*%
D21*
%TO.P,R6,1*%
%TO.N,/V1-*%
X162837500Y-73000000D03*
%TO.P,R6,2*%
%TO.N,/V1_{OUT}*%
X164662500Y-73000000D03*
%TD*%
D14*
%TO.P,TP10,1,1*%
%TO.N,/+12V*%
X148000000Y-87600000D03*
%TD*%
D17*
%TO.P,H2,1,1*%
%TO.N,unconnected-(H2-Pad1)*%
X175500000Y-75750000D03*
%TD*%
D10*
%TO.P,R3,1*%
%TO.N,Net-(JP2-B)*%
X161250000Y-76675724D03*
%TO.P,R3,2*%
%TO.N,/V1-*%
X161250000Y-74850724D03*
%TD*%
D18*
%TO.P,J1,1,Pin_1*%
%TO.N,/MOTOR_{IN}*%
X157210000Y-97000000D03*
%TO.P,J1,2*%
%TO.N,N/C*%
X162290000Y-97000000D03*
%TD*%
D14*
%TO.P,TP9,1,1*%
%TO.N,/+5V*%
X148000000Y-72300000D03*
%TD*%
D22*
%TO.P,IC1,1,OUT1*%
%TO.N,/V1_{OUT}*%
X163300000Y-74775000D03*
%TO.P,IC1,2,IN-1*%
%TO.N,/V1-*%
X163300000Y-75425000D03*
%TO.P,IC1,3,IN+1*%
%TO.N,/V1+*%
X163300000Y-76075000D03*
%TO.P,IC1,4,GND*%
%TO.N,GND*%
X163300000Y-76725000D03*
%TO.P,IC1,5,IN+2*%
%TO.N,/V1_{OUT}*%
X167700000Y-76725000D03*
%TO.P,IC1,6,IN-2*%
%TO.N,/V2-*%
X167700000Y-76075000D03*
%TO.P,IC1,7,OUT2*%
%TO.N,/V2_{OUT}*%
X167700000Y-75425000D03*
%TO.P,IC1,8,VS*%
%TO.N,/+5V*%
X167700000Y-74775000D03*
%TD*%
D11*
%TO.P,R7,1*%
%TO.N,/V2_{OUT}*%
X170800000Y-72537500D03*
%TO.P,R7,2*%
%TO.N,/V2-*%
X170800000Y-74362500D03*
%TD*%
D14*
%TO.P,TP11,1,1*%
%TO.N,GND*%
X148000000Y-79400000D03*
%TD*%
D12*
%TO.P,JP2,1,A*%
%TO.N,/MOTOR_{IN}*%
X169450000Y-86500000D03*
D13*
%TO.P,JP2,2,B*%
%TO.N,Net-(JP2-B)*%
X169450000Y-85200000D03*
%TD*%
D14*
%TO.P,TP4,1,1*%
%TO.N,/V1+*%
X181000000Y-71000000D03*
%TD*%
%TO.P,TP5,1,1*%
%TO.N,/V1_{OUT}*%
X181000000Y-93350000D03*
%TD*%
%TO.P,TP8,1,1*%
%TO.N,/V2_{OUT}*%
X181000000Y-83300000D03*
%TD*%
D23*
%TO.P,R2,1*%
%TO.N,Net-(JP2-B)*%
X168500000Y-91000000D03*
%TO.P,R2,2*%
%TO.N,Net-(JP3-A)*%
X162400000Y-91000000D03*
%TD*%
D24*
%TO.P,R1,1*%
%TO.N,Net-(JP2-B)*%
X167000000Y-86000000D03*
%TO.P,R1,2*%
%TO.N,Net-(JP1-A)*%
X163900000Y-86000000D03*
%TD*%
D12*
%TO.P,JP3,1,A*%
%TO.N,Net-(JP3-A)*%
X159950000Y-91500000D03*
D13*
%TO.P,JP3,2,B*%
%TO.N,/+12V*%
X159950000Y-90200000D03*
%TD*%
D14*
%TO.P,TP6,1,1*%
%TO.N,/V2-*%
X181000000Y-88300000D03*
%TD*%
D25*
%TO.N,GND*%
X161000000Y-83250000D03*
X169800000Y-77450000D03*
X149750000Y-81650000D03*
X160750000Y-71250462D03*
X163500000Y-78500000D03*
X170400000Y-94790000D03*
X168000000Y-71000000D03*
%TO.N,/+5V*%
X165000000Y-67200000D03*
X169200000Y-71400000D03*
%TD*%
D26*
%TO.N,/V2_{OUT}*%
X173700000Y-71900000D02*
X177500000Y-71900000D01*
X172600000Y-73000000D02*
X173700000Y-71900000D01*
X181000000Y-75400000D02*
X181000000Y-83300000D01*
X171262500Y-73000000D02*
X172600000Y-73000000D01*
X177500000Y-71900000D02*
X181000000Y-75400000D01*
X170800000Y-72537500D02*
X171262500Y-73000000D01*
%TO.N,/V1_{OUT}*%
X183460000Y-92140000D02*
X182250000Y-93350000D01*
X182250000Y-93350000D02*
X181000000Y-93350000D01*
X182000000Y-68150000D02*
X183460000Y-69610000D01*
X167600000Y-68150000D02*
X182000000Y-68150000D01*
X164662500Y-71087500D02*
X167600000Y-68150000D01*
X164662500Y-73000000D02*
X164662500Y-71087500D01*
X183460000Y-69610000D02*
X183460000Y-92140000D01*
%TO.N,/V1+*%
X169200000Y-69600000D02*
X170600000Y-71000000D01*
X163300000Y-76075000D02*
X164325000Y-76075000D01*
X159330213Y-74680937D02*
X159500000Y-74850724D01*
X165600000Y-71800000D02*
X167800000Y-69600000D01*
X162075000Y-76075000D02*
X163300000Y-76075000D01*
X159330213Y-73000000D02*
X159330213Y-74680937D01*
X165600000Y-74800000D02*
X165600000Y-71800000D01*
X159500000Y-75000000D02*
X160250000Y-75750000D01*
X164325000Y-76075000D02*
X165600000Y-74800000D01*
X159500000Y-74850724D02*
X159500000Y-75000000D01*
X160250000Y-75750000D02*
X161750000Y-75750000D01*
X161750000Y-75750000D02*
X162075000Y-76075000D01*
X167800000Y-69600000D02*
X169200000Y-69600000D01*
X170600000Y-71000000D02*
X181000000Y-71000000D01*
%TO.N,/V1-*%
X169000000Y-65500000D02*
X181000000Y-65500000D01*
X163750000Y-70750000D02*
X169000000Y-65500000D01*
X163750000Y-72087500D02*
X163750000Y-70750000D01*
X161399276Y-74850724D02*
X162000000Y-74250000D01*
X161250000Y-74850724D02*
X161699252Y-74850724D01*
X161699252Y-74850724D02*
X162273528Y-75425000D01*
X162837500Y-73000000D02*
X163750000Y-72087500D01*
X162000000Y-73837500D02*
X162837500Y-73000000D01*
X162273528Y-75425000D02*
X163300000Y-75425000D01*
X162000000Y-74250000D02*
X162000000Y-73837500D01*
X161250000Y-74850724D02*
X161399276Y-74850724D01*
%TO.N,/V1_{OUT}*%
X164662500Y-74087500D02*
X164662500Y-73000000D01*
X163300000Y-74775000D02*
X163975000Y-74775000D01*
X167675000Y-76750000D02*
X167700000Y-76725000D01*
X163975000Y-74775000D02*
X164662500Y-74087500D01*
D27*
%TO.N,GND*%
X149750000Y-81650000D02*
X148000000Y-79900000D01*
X148000000Y-79900000D02*
X148000000Y-79400000D01*
X169800000Y-77450000D02*
X170300000Y-77950000D01*
X163500000Y-77200000D02*
X163300000Y-77000000D01*
X169210000Y-95980000D02*
X169210000Y-97000000D01*
X160750000Y-72594787D02*
X161155213Y-73000000D01*
X163500000Y-78500000D02*
X163500000Y-77200000D01*
X170400000Y-94790000D02*
X169210000Y-95980000D01*
X161000000Y-82330000D02*
X160420000Y-81750000D01*
X168000000Y-71000000D02*
X166675000Y-72325000D01*
X166675000Y-72325000D02*
X166675000Y-73000000D01*
X170300000Y-77950000D02*
X170800000Y-77950000D01*
X161000000Y-83250000D02*
X161000000Y-82330000D01*
X160750000Y-71250462D02*
X160750000Y-72594787D01*
D28*
%TO.N,/MOTOR_{IN}*%
X170950000Y-92540000D02*
X170950000Y-91500000D01*
X172960000Y-87710000D02*
X172960000Y-90810000D01*
X169450000Y-86500000D02*
X170500000Y-86500000D01*
X157210000Y-97000000D02*
X160600000Y-93610000D01*
X171500000Y-82670000D02*
X170580000Y-81750000D01*
X172270000Y-91500000D02*
X170950000Y-91500000D01*
X171750000Y-86500000D02*
X172960000Y-87710000D01*
X170500000Y-86500000D02*
X171500000Y-85500000D01*
X171500000Y-85500000D02*
X171500000Y-82670000D01*
X169880000Y-93610000D02*
X170950000Y-92540000D01*
X169450000Y-86500000D02*
X171750000Y-86500000D01*
X172960000Y-90810000D02*
X172270000Y-91500000D01*
X160600000Y-93610000D02*
X169880000Y-93610000D01*
D26*
%TO.N,/V2_{OUT}*%
X169600000Y-73100000D02*
X170162500Y-72537500D01*
X167700000Y-75425000D02*
X168875000Y-75425000D01*
X168875000Y-75425000D02*
X169600000Y-74700000D01*
X170162500Y-72537500D02*
X170800000Y-72537500D01*
X169600000Y-74700000D02*
X169600000Y-73100000D01*
%TO.N,/V2-*%
X170800000Y-76125000D02*
X170800000Y-76200000D01*
X170800000Y-74362500D02*
X170800000Y-76125000D01*
X167700000Y-76075000D02*
X170750000Y-76075000D01*
X170750000Y-76075000D02*
X170800000Y-76125000D01*
D29*
%TO.N,/+5V*%
X168400000Y-73000000D02*
X168400000Y-74050000D01*
X168400000Y-72200000D02*
X168400000Y-73000000D01*
X168400000Y-74050000D02*
X167700000Y-74750000D01*
X169200000Y-71400000D02*
X168400000Y-72200000D01*
D28*
%TO.N,/+12V*%
X157007406Y-88492594D02*
X157007406Y-85200000D01*
X148000000Y-87000000D02*
X148000000Y-87600000D01*
X154528703Y-82721297D02*
X159500000Y-77750000D01*
X154528703Y-82721297D02*
X157007406Y-85200000D01*
X159500000Y-77750000D02*
X159500000Y-76675724D01*
X157007406Y-85200000D02*
X161450000Y-85200000D01*
X154528703Y-82721297D02*
X152278703Y-82721297D01*
X157000000Y-88500000D02*
X157007406Y-88492594D01*
X152278703Y-82721297D02*
X148000000Y-87000000D01*
X158700000Y-90200000D02*
X157007406Y-88507406D01*
X157000000Y-88500000D02*
X157007406Y-88507406D01*
X159950000Y-90200000D02*
X158700000Y-90200000D01*
D26*
%TO.N,Net-(JP1-A)*%
X161450000Y-86500000D02*
X163400000Y-86500000D01*
X163400000Y-86500000D02*
X163900000Y-86000000D01*
%TO.N,Net-(JP2-B)*%
X167000000Y-86000000D02*
X167800000Y-85200000D01*
X167000000Y-86000000D02*
X167000000Y-86475000D01*
X167000000Y-86475000D02*
X170725000Y-90200000D01*
X161250000Y-78250000D02*
X161250000Y-76675724D01*
X167800000Y-85200000D02*
X169450000Y-85200000D01*
X170725000Y-90200000D02*
X170950000Y-90200000D01*
X167000000Y-86000000D02*
X167000000Y-84000000D01*
X168500000Y-91000000D02*
X169300000Y-90200000D01*
X167000000Y-84000000D02*
X161250000Y-78250000D01*
X169300000Y-90200000D02*
X170950000Y-90200000D01*
%TO.N,Net-(JP3-A)*%
X159950000Y-91500000D02*
X161900000Y-91500000D01*
X161900000Y-91500000D02*
X162400000Y-91000000D01*
%TO.N,/V2-*%
X181060000Y-88860000D02*
X181000000Y-88800000D01*
X170800000Y-76125000D02*
X172500000Y-77825000D01*
X172500000Y-79500000D02*
X176200000Y-83200000D01*
X172500000Y-77825000D02*
X172500000Y-79500000D01*
X176200000Y-83200000D02*
X176200000Y-86900000D01*
X176200000Y-86900000D02*
X177600000Y-88300000D01*
X177600000Y-88300000D02*
X181000000Y-88300000D01*
%TO.N,/V1_{OUT}*%
X167700000Y-77000000D02*
X167700000Y-76725000D01*
X181000000Y-93350000D02*
X177650000Y-93350000D01*
X177650000Y-93350000D02*
X174500000Y-90200000D01*
X174500000Y-90200000D02*
X174500000Y-83800000D01*
X174500000Y-83800000D02*
X167700000Y-77000000D01*
%TD*%
%TA.AperFunction,Conductor*%
%TO.N,/+5V*%
G36*
X169102986Y-70512191D02*
G01*
X169151508Y-70542165D01*
X170122099Y-71512757D01*
X170155584Y-71574080D01*
X170150600Y-71643772D01*
X170108728Y-71699705D01*
X170102893Y-71703677D01*
X170101654Y-71704656D01*
X169979658Y-71826651D01*
X169977200Y-71830637D01*
X169925250Y-71877358D01*
X169919119Y-71880094D01*
X169830697Y-71916720D01*
X169830682Y-71916728D01*
X169715956Y-71993385D01*
X169432593Y-72276748D01*
X169371270Y-72310233D01*
X169301578Y-72305249D01*
X169257231Y-72276748D01*
X169160538Y-72180055D01*
X169160534Y-72180052D01*
X169013811Y-72089551D01*
X169013800Y-72089546D01*
X168850152Y-72035319D01*
X168749154Y-72025000D01*
X168689282Y-72025000D01*
X168622243Y-72005315D01*
X168576488Y-71952511D01*
X168566544Y-71883353D01*
X168595569Y-71819797D01*
X168601601Y-71813319D01*
X168777136Y-71637784D01*
X168777136Y-71637783D01*
X168777139Y-71637781D01*
X168886631Y-71473914D01*
X168962051Y-71291836D01*
X169000500Y-71098540D01*
X169000500Y-70901460D01*
X169000500Y-70901457D01*
X169000499Y-70901455D01*
X168962051Y-70708164D01*
X168949265Y-70677298D01*
X168941797Y-70607830D01*
X168973072Y-70545350D01*
X169033161Y-70509698D01*
X169102986Y-70512191D01*
G37*
%TD.AperFunction*%
%TA.AperFunction,Conductor*%
G36*
X180188216Y-60675064D02*
G01*
X180586597Y-60695392D01*
X180597400Y-60696419D01*
X180990418Y-60751291D01*
X181001080Y-60753259D01*
X181364117Y-60836905D01*
X181387758Y-60842352D01*
X181398239Y-60845256D01*
X181775627Y-60967889D01*
X181785801Y-60971697D01*
X181814546Y-60983915D01*
X182150975Y-61126919D01*
X182160787Y-61131608D01*
X182510962Y-61318234D01*
X182520316Y-61323758D01*
X182563384Y-61351815D01*
X182852799Y-61540356D01*
X182861642Y-61546686D01*
X183173857Y-61791574D01*
X183182112Y-61798655D01*
X183471666Y-62069958D01*
X183479269Y-62077735D01*
X183743944Y-62373373D01*
X183750836Y-62381787D01*
X183988579Y-62699468D01*
X183994707Y-62708452D01*
X184203706Y-63045754D01*
X184209023Y-63055241D01*
X184387659Y-63409549D01*
X184392125Y-63419466D01*
X184539032Y-63788076D01*
X184542611Y-63798346D01*
X184656650Y-64178396D01*
X184659316Y-64188940D01*
X184739616Y-64577526D01*
X184741348Y-64588263D01*
X184787292Y-64982398D01*
X184788076Y-64993245D01*
X184799432Y-65394322D01*
X184799467Y-65399761D01*
X184798747Y-65446025D01*
X184799500Y-65456644D01*
X184799500Y-95397293D01*
X184799382Y-95402702D01*
X184781853Y-95804181D01*
X184780910Y-95814957D01*
X184728811Y-96210685D01*
X184726933Y-96221339D01*
X184640538Y-96611039D01*
X184637738Y-96621487D01*
X184517713Y-97002159D01*
X184514013Y-97012325D01*
X184361263Y-97381096D01*
X184356691Y-97390900D01*
X184172388Y-97744942D01*
X184166980Y-97754310D01*
X183952511Y-98090959D01*
X183946306Y-98099820D01*
X183703319Y-98416487D01*
X183696365Y-98424774D01*
X183426705Y-98719056D01*
X183419056Y-98726705D01*
X183124774Y-98996365D01*
X183116487Y-99003319D01*
X182799820Y-99246306D01*
X182790959Y-99252511D01*
X182454310Y-99466980D01*
X182444942Y-99472388D01*
X182090900Y-99656691D01*
X182081096Y-99661263D01*
X181712325Y-99814013D01*
X181702159Y-99817713D01*
X181321487Y-99937738D01*
X181311039Y-99940538D01*
X180921339Y-100026933D01*
X180910685Y-100028811D01*
X180514957Y-100080910D01*
X180504181Y-100081853D01*
X180102703Y-100099382D01*
X180097294Y-100099500D01*
X150202706Y-100099500D01*
X150197297Y-100099382D01*
X149795818Y-100081853D01*
X149785042Y-100080910D01*
X149389314Y-100028811D01*
X149378660Y-100026933D01*
X148988960Y-99940538D01*
X148978512Y-99937738D01*
X148597840Y-99817713D01*
X148587674Y-99814013D01*
X148218903Y-99661263D01*
X148209099Y-99656691D01*
X147855057Y-99472388D01*
X147845689Y-99466980D01*
X147509040Y-99252511D01*
X147500179Y-99246306D01*
X147183512Y-99003319D01*
X147175225Y-98996365D01*
X146880943Y-98726705D01*
X146873294Y-98719056D01*
X146603634Y-98424774D01*
X146596680Y-98416487D01*
X146353693Y-98099820D01*
X146347488Y-98090959D01*
X146133019Y-97754310D01*
X146127611Y-97744942D01*
X146061857Y-97618630D01*
X145943305Y-97390893D01*
X145938736Y-97381096D01*
X145785982Y-97012315D01*
X145782286Y-97002159D01*
X145781605Y-97000000D01*
X145662260Y-96621483D01*
X145659461Y-96611039D01*
X145591853Y-96306081D01*
X145573064Y-96221331D01*
X145571188Y-96210685D01*
X145571181Y-96210629D01*
X145519087Y-95814937D01*
X145518147Y-95804202D01*
X145500618Y-95402702D01*
X145500500Y-95397293D01*
X145500500Y-87599998D01*
X145994390Y-87599998D01*
X145994390Y-87600001D01*
X146014804Y-87885433D01*
X146075628Y-88165037D01*
X146075630Y-88165043D01*
X146075631Y-88165046D01*
X146149039Y-88361859D01*
X146175635Y-88433166D01*
X146312770Y-88684309D01*
X146312775Y-88684317D01*
X146484254Y-88913387D01*
X146484270Y-88913405D01*
X146686594Y-89115729D01*
X146686612Y-89115745D01*
X146915682Y-89287224D01*
X146915690Y-89287229D01*
X147166833Y-89424364D01*
X147166832Y-89424364D01*
X147166836Y-89424365D01*
X147166839Y-89424367D01*
X147434954Y-89524369D01*
X147434960Y-89524370D01*
X147434962Y-89524371D01*
X147714566Y-89585195D01*
X147714568Y-89585195D01*
X147714572Y-89585196D01*
X147968220Y-89603337D01*
X147999999Y-89605610D01*
X148000000Y-89605610D01*
X148000001Y-89605610D01*
X148028595Y-89603564D01*
X148285428Y-89585196D01*
X148371957Y-89566373D01*
X148565037Y-89524371D01*
X148565037Y-89524370D01*
X148565046Y-89524369D01*
X148833161Y-89424367D01*
X149084315Y-89287226D01*
X149313395Y-89115739D01*
X149515739Y-88913395D01*
X149687226Y-88684315D01*
X149824367Y-88433161D01*
X149924369Y-88165046D01*
X149985196Y-87885428D01*
X150005610Y-87600000D01*
X149985196Y-87314572D01*
X149973697Y-87261715D01*
X149972713Y-87214026D01*
X150159202Y-86146173D01*
X150190125Y-86083522D01*
X150193646Y-86079852D01*
X152615384Y-83658116D01*
X152676707Y-83624631D01*
X152703065Y-83621797D01*
X154104341Y-83621797D01*
X154171380Y-83641482D01*
X154192022Y-83658116D01*
X156070587Y-85536680D01*
X156104072Y-85598003D01*
X156106906Y-85624361D01*
X156106906Y-88361859D01*
X156104524Y-88386048D01*
X156099500Y-88411307D01*
X156099500Y-88588696D01*
X156134103Y-88762658D01*
X156134105Y-88762666D01*
X156201988Y-88926548D01*
X156300534Y-89074034D01*
X156300538Y-89074039D01*
X156307938Y-89081438D01*
X156307942Y-89081442D01*
X158000536Y-90774035D01*
X158125965Y-90899464D01*
X158273453Y-90998013D01*
X158407311Y-91053458D01*
X158407314Y-91053459D01*
X158407315Y-91053460D01*
X158437329Y-91065892D01*
X158437334Y-91065894D01*
X158518657Y-91082070D01*
X158594691Y-91097195D01*
X158656602Y-91129580D01*
X158691176Y-91190296D01*
X158694500Y-91218812D01*
X158694500Y-91571889D01*
X158714974Y-91714296D01*
X158714976Y-91714304D01*
X158750198Y-91834261D01*
X158755483Y-91852258D01*
X158815252Y-91983136D01*
X158815253Y-91983138D01*
X158889376Y-92098476D01*
X158890196Y-92099917D01*
X158892988Y-92104098D01*
X158987206Y-92212829D01*
X158987210Y-92212833D01*
X159095864Y-92306981D01*
X159095867Y-92306984D01*
X159095869Y-92306985D01*
X159095870Y-92306986D01*
X159216906Y-92384770D01*
X159216914Y-92384774D01*
X159216923Y-92384779D01*
X159341642Y-92441736D01*
X159345941Y-92443985D01*
X159347692Y-92444499D01*
X159485744Y-92485035D01*
X159485745Y-92485035D01*
X159485748Y-92485036D01*
X159528183Y-92491136D01*
X159628059Y-92505497D01*
X159684399Y-92505497D01*
X159684409Y-92505500D01*
X159735764Y-92505500D01*
X160215573Y-92505500D01*
X160215601Y-92505497D01*
X160271940Y-92505497D01*
X160271941Y-92505497D01*
X160275289Y-92505015D01*
X160277228Y-92504737D01*
X160346387Y-92514678D01*
X160394675Y-92556518D01*
X160418524Y-92504297D01*
X160477301Y-92466523D01*
X160552309Y-92444498D01*
X160683094Y-92384770D01*
X160804130Y-92306986D01*
X160814490Y-92298009D01*
X160892070Y-92230787D01*
X160955625Y-92201762D01*
X160973272Y-92200500D01*
X161075500Y-92200500D01*
X161142539Y-92220185D01*
X161188294Y-92272989D01*
X161199500Y-92324500D01*
X161199500Y-92475019D01*
X161209500Y-92572898D01*
X161196731Y-92641591D01*
X161148850Y-92692475D01*
X161086142Y-92709500D01*
X160512237Y-92709500D01*
X160445198Y-92689815D01*
X160411867Y-92651349D01*
X160399195Y-92694511D01*
X160346392Y-92740267D01*
X160342331Y-92742035D01*
X160255393Y-92778046D01*
X160173455Y-92811985D01*
X160088030Y-92869065D01*
X160025961Y-92910537D01*
X157999375Y-94937123D01*
X157969322Y-94959237D01*
X156632381Y-95660960D01*
X156624586Y-95664711D01*
X156624336Y-95664820D01*
X156412563Y-95779426D01*
X156412558Y-95779429D01*
X156284630Y-95879000D01*
X156222537Y-95927329D01*
X156222534Y-95927331D01*
X156222534Y-95927332D01*
X156059449Y-96104490D01*
X155927743Y-96306081D01*
X155831017Y-96526594D01*
X155771904Y-96760027D01*
X155752020Y-96999994D01*
X155752020Y-97000005D01*
X155771904Y-97239972D01*
X155771904Y-97239975D01*
X155771905Y-97239976D01*
X155831017Y-97473405D01*
X155927745Y-97693922D01*
X156059449Y-97895510D01*
X156222537Y-98072671D01*
X156412561Y-98220572D01*
X156624336Y-98335179D01*
X156742598Y-98375778D01*
X156852083Y-98413365D01*
X156852085Y-98413365D01*
X156852087Y-98413366D01*
X157089601Y-98453000D01*
X157089602Y-98453000D01*
X157330398Y-98453000D01*
X157330399Y-98453000D01*
X157567913Y-98413366D01*
X157795664Y-98335179D01*
X158007439Y-98220572D01*
X158197463Y-98072671D01*
X158360551Y-97895510D01*
X158492255Y-97693922D01*
X158525285Y-97618618D01*
X158538360Y-97595770D01*
X158542547Y-97589983D01*
X158852215Y-96999994D01*
X160832020Y-96999994D01*
X160832020Y-97000005D01*
X160851904Y-97239972D01*
X160851904Y-97239975D01*
X160851905Y-97239976D01*
X160911017Y-97473405D01*
X161007745Y-97693922D01*
X161139449Y-97895510D01*
X161302537Y-98072671D01*
X161492561Y-98220572D01*
X161704336Y-98335179D01*
X161822598Y-98375778D01*
X161932083Y-98413365D01*
X161932085Y-98413365D01*
X161932087Y-98413366D01*
X162169601Y-98453000D01*
X162169602Y-98453000D01*
X162410398Y-98453000D01*
X162410399Y-98453000D01*
X162647913Y-98413366D01*
X162875664Y-98335179D01*
X163087439Y-98220572D01*
X163277463Y-98072671D01*
X163440551Y-97895510D01*
X163572255Y-97693922D01*
X163668983Y-97473405D01*
X163728095Y-97239976D01*
X163746959Y-97012325D01*
X163747980Y-97000005D01*
X163747980Y-96999994D01*
X163728095Y-96760027D01*
X163728095Y-96760024D01*
X163668983Y-96526595D01*
X163572255Y-96306078D01*
X163440551Y-96104490D01*
X163277463Y-95927329D01*
X163119242Y-95804181D01*
X163087441Y-95779429D01*
X162875665Y-95664821D01*
X162875656Y-95664818D01*
X162647916Y-95586634D01*
X162469777Y-95556908D01*
X162410399Y-95547000D01*
X162169601Y-95547000D01*
X162122098Y-95554926D01*
X161932083Y-95586634D01*
X161704343Y-95664818D01*
X161704334Y-95664821D01*
X161492558Y-95779429D01*
X161364630Y-95879000D01*
X161302537Y-95927329D01*
X161302534Y-95927331D01*
X161302534Y-95927332D01*
X161139449Y-96104490D01*
X161007743Y-96306081D01*
X160911017Y-96526594D01*
X160851904Y-96760027D01*
X160832020Y-96999994D01*
X158852215Y-96999994D01*
X159250758Y-96240677D01*
X159272866Y-96210632D01*
X160936681Y-94546819D01*
X160998004Y-94513334D01*
X161024362Y-94510500D01*
X168965218Y-94510500D01*
X169032257Y-94530185D01*
X169078012Y-94582989D01*
X169087956Y-94652147D01*
X169058931Y-94715703D01*
X169052903Y-94722176D01*
X168572221Y-95202858D01*
X168572218Y-95202861D01*
X168511169Y-95263910D01*
X168432859Y-95342219D01*
X168323371Y-95506080D01*
X168323366Y-95506089D01*
X168276503Y-95619229D01*
X168247950Y-95688159D01*
X168247949Y-95688163D01*
X168247949Y-95688164D01*
X168245495Y-95700500D01*
X168245494Y-95700502D01*
X168209500Y-95881453D01*
X168208978Y-95886758D01*
X168186524Y-95946609D01*
X168130700Y-96024867D01*
X168129189Y-96027039D01*
X168118648Y-96040180D01*
X168059449Y-96104489D01*
X167927743Y-96306081D01*
X167831017Y-96526594D01*
X167771904Y-96760027D01*
X167752020Y-96999994D01*
X167752020Y-97000005D01*
X167771904Y-97239972D01*
X167771904Y-97239975D01*
X167771905Y-97239976D01*
X167831017Y-97473405D01*
X167927745Y-97693922D01*
X168059449Y-97895510D01*
X168222537Y-98072671D01*
X168412561Y-98220572D01*
X168624336Y-98335179D01*
X168742598Y-98375778D01*
X168852083Y-98413365D01*
X168852085Y-98413365D01*
X168852087Y-98413366D01*
X169089601Y-98453000D01*
X169089602Y-98453000D01*
X169330398Y-98453000D01*
X169330399Y-98453000D01*
X169567913Y-98413366D01*
X169795664Y-98335179D01*
X170007439Y-98220572D01*
X170197463Y-98072671D01*
X170360551Y-97895510D01*
X170492255Y-97693922D01*
X170588983Y-97473405D01*
X170648095Y-97239976D01*
X170667577Y-97004859D01*
X170667752Y-97003463D01*
X170667720Y-97003460D01*
X170668041Y-96999994D01*
X172832020Y-96999994D01*
X172832020Y-97000005D01*
X172851904Y-97239972D01*
X172851904Y-97239975D01*
X172851905Y-97239976D01*
X172911017Y-97473405D01*
X173007745Y-97693922D01*
X173139449Y-97895510D01*
X173302537Y-98072671D01*
X173492561Y-98220572D01*
X173704336Y-98335179D01*
X173822598Y-98375778D01*
X173932083Y-98413365D01*
X173932085Y-98413365D01*
X173932087Y-98413366D01*
X174169601Y-98453000D01*
X174169602Y-98453000D01*
X174410398Y-98453000D01*
X174410399Y-98453000D01*
X174647913Y-98413366D01*
X174875664Y-98335179D01*
X175087439Y-98220572D01*
X175277463Y-98072671D01*
X175440551Y-97895510D01*
X175572255Y-97693922D01*
X175668983Y-97473405D01*
X175728095Y-97239976D01*
X175746959Y-97012325D01*
X175747980Y-97000005D01*
X175747980Y-96999994D01*
X175728095Y-96760027D01*
X175728095Y-96760024D01*
X175668983Y-96526595D01*
X175572255Y-96306078D01*
X175440551Y-96104490D01*
X175277463Y-95927329D01*
X175119242Y-95804181D01*
X175087441Y-95779429D01*
X174875665Y-95664821D01*
X174875656Y-95664818D01*
X174647916Y-95586634D01*
X174469777Y-95556908D01*
X174410399Y-95547000D01*
X174169601Y-95547000D01*
X174122098Y-95554926D01*
X173932083Y-95586634D01*
X173704343Y-95664818D01*
X173704334Y-95664821D01*
X173492558Y-95779429D01*
X173364630Y-95879000D01*
X173302537Y-95927329D01*
X173302534Y-95927331D01*
X173302534Y-95927332D01*
X173139449Y-96104490D01*
X173007743Y-96306081D01*
X172911017Y-96526594D01*
X172851904Y-96760027D01*
X172832020Y-96999994D01*
X170668041Y-96999994D01*
X170668128Y-96999050D01*
X170673093Y-96760024D01*
X170689625Y-95964105D01*
X170710697Y-95897491D01*
X170725907Y-95879011D01*
X171177139Y-95427781D01*
X171286631Y-95263914D01*
X171362051Y-95081836D01*
X171400500Y-94888540D01*
X171400500Y-94691460D01*
X171400500Y-94691457D01*
X171400499Y-94691455D01*
X171362051Y-94498164D01*
X171286631Y-94316086D01*
X171286629Y-94316083D01*
X171286627Y-94316079D01*
X171177139Y-94152219D01*
X171177136Y-94152215D01*
X171037783Y-94012862D01*
X170991281Y-93981791D01*
X170946475Y-93928178D01*
X170937768Y-93858854D01*
X170967922Y-93795826D01*
X170972469Y-93791028D01*
X171649464Y-93114035D01*
X171701629Y-93035965D01*
X171748013Y-92966547D01*
X171771213Y-92910537D01*
X171774145Y-92903459D01*
X171774145Y-92903458D01*
X171815895Y-92802666D01*
X171850500Y-92628691D01*
X171850500Y-92524500D01*
X171870185Y-92457461D01*
X171922989Y-92411706D01*
X171974500Y-92400500D01*
X172358693Y-92400500D01*
X172358694Y-92400499D01*
X172532666Y-92365895D01*
X172614606Y-92331953D01*
X172696547Y-92298013D01*
X172797158Y-92230787D01*
X172824028Y-92212833D01*
X172830667Y-92208396D01*
X172844036Y-92199464D01*
X173659463Y-91384036D01*
X173659464Y-91384035D01*
X173758013Y-91236547D01*
X173825894Y-91072666D01*
X173840348Y-91000000D01*
X173848649Y-90958268D01*
X173860500Y-90898694D01*
X173860500Y-90850520D01*
X173880185Y-90783481D01*
X173932989Y-90737726D01*
X174002147Y-90727782D01*
X174065703Y-90756807D01*
X174072181Y-90762839D01*
X177203454Y-93894112D01*
X177318192Y-93970777D01*
X177419796Y-94012862D01*
X177445672Y-94023580D01*
X177445676Y-94023580D01*
X177445677Y-94023581D01*
X177581003Y-94050500D01*
X177581006Y-94050500D01*
X177581007Y-94050500D01*
X178324543Y-94050500D01*
X178385905Y-94066746D01*
X179536744Y-94722123D01*
X179563056Y-94742190D01*
X179686595Y-94865729D01*
X179686602Y-94865736D01*
X179686612Y-94865745D01*
X179915682Y-95037224D01*
X179915690Y-95037229D01*
X180166833Y-95174364D01*
X180166832Y-95174364D01*
X180166836Y-95174365D01*
X180166839Y-95174367D01*
X180434954Y-95274369D01*
X180434960Y-95274370D01*
X180434962Y-95274371D01*
X180714566Y-95335195D01*
X180714568Y-95335195D01*
X180714572Y-95335196D01*
X180955188Y-95352405D01*
X180999999Y-95355610D01*
X181000000Y-95355610D01*
X181000001Y-95355610D01*
X181044812Y-95352405D01*
X181285428Y-95335196D01*
X181565046Y-95274369D01*
X181833161Y-95174367D01*
X182084315Y-95037226D01*
X182313395Y-94865739D01*
X182515739Y-94663395D01*
X182687226Y-94434315D01*
X182824367Y-94183161D01*
X182858417Y-94091866D01*
X182873467Y-94063448D01*
X182882654Y-94050500D01*
X183713169Y-92879961D01*
X183726607Y-92864048D01*
X184004113Y-92586543D01*
X184009957Y-92577798D01*
X184080775Y-92471811D01*
X184111707Y-92397134D01*
X184116829Y-92384770D01*
X184133578Y-92344333D01*
X184133580Y-92344329D01*
X184158216Y-92220473D01*
X184159734Y-92212844D01*
X184159737Y-92212829D01*
X184160499Y-92209000D01*
X184160500Y-92208990D01*
X184160500Y-69541005D01*
X184149212Y-69484262D01*
X184149212Y-69484260D01*
X184133581Y-69405679D01*
X184133580Y-69405672D01*
X184080775Y-69278189D01*
X184004114Y-69163457D01*
X184004112Y-69163454D01*
X182446545Y-67605887D01*
X182331807Y-67529222D01*
X182204332Y-67476421D01*
X182204322Y-67476418D01*
X182063331Y-67448373D01*
X182001420Y-67415988D01*
X181966846Y-67355272D01*
X181970586Y-67285503D01*
X182011453Y-67228831D01*
X182028097Y-67217924D01*
X182084304Y-67187232D01*
X182084303Y-67187232D01*
X182084315Y-67187226D01*
X182313395Y-67015739D01*
X182515739Y-66813395D01*
X182687226Y-66584315D01*
X182824367Y-66333161D01*
X182924369Y-66065046D01*
X182985196Y-65785428D01*
X183005610Y-65500000D01*
X182985196Y-65214572D01*
X182937049Y-64993245D01*
X182924371Y-64934962D01*
X182924370Y-64934960D01*
X182924369Y-64934954D01*
X182824367Y-64666839D01*
X182776217Y-64578660D01*
X182687229Y-64415690D01*
X182687224Y-64415682D01*
X182515745Y-64186612D01*
X182515729Y-64186594D01*
X182313405Y-63984270D01*
X182313387Y-63984254D01*
X182084317Y-63812775D01*
X182084309Y-63812770D01*
X181833166Y-63675635D01*
X181833167Y-63675635D01*
X181725915Y-63635632D01*
X181565046Y-63575631D01*
X181565043Y-63575630D01*
X181565037Y-63575628D01*
X181285433Y-63514804D01*
X181000001Y-63494390D01*
X180999999Y-63494390D01*
X180714566Y-63514804D01*
X180434962Y-63575628D01*
X180166833Y-63675635D01*
X179915690Y-63812770D01*
X179915682Y-63812775D01*
X179686616Y-63984251D01*
X179686605Y-63984261D01*
X179563062Y-64107803D01*
X179536744Y-64127874D01*
X179214604Y-64311326D01*
X178442773Y-64750867D01*
X178385903Y-64783253D01*
X178324540Y-64799500D01*
X168931003Y-64799500D01*
X168822590Y-64821065D01*
X168822589Y-64821065D01*
X168795671Y-64826420D01*
X168668190Y-64879224D01*
X168553454Y-64955887D01*
X163205887Y-70303454D01*
X163129222Y-70418192D01*
X163076421Y-70545667D01*
X163076418Y-70545679D01*
X163052050Y-70668186D01*
X163052049Y-70668191D01*
X163049500Y-70681002D01*
X163049500Y-71745980D01*
X163029815Y-71813019D01*
X163013181Y-71833662D01*
X162858660Y-71988182D01*
X162797337Y-72021666D01*
X162770980Y-72024500D01*
X162538331Y-72024500D01*
X162538312Y-72024501D01*
X162437247Y-72034825D01*
X162273484Y-72089092D01*
X162273481Y-72089093D01*
X162126648Y-72179661D01*
X162084036Y-72222273D01*
X162022713Y-72255757D01*
X161953021Y-72250772D01*
X161908675Y-72222272D01*
X161866062Y-72179659D01*
X161809402Y-72144710D01*
X161762678Y-72092761D01*
X161750500Y-72039172D01*
X161750500Y-71151918D01*
X161712052Y-70958632D01*
X161712051Y-70958631D01*
X161712051Y-70958627D01*
X161688370Y-70901455D01*
X161636635Y-70776554D01*
X161636628Y-70776541D01*
X161527139Y-70612680D01*
X161527136Y-70612676D01*
X161387785Y-70473325D01*
X161387781Y-70473322D01*
X161223920Y-70363833D01*
X161223907Y-70363826D01*
X161041839Y-70288412D01*
X161041829Y-70288409D01*
X160848543Y-70249962D01*
X160848541Y-70249962D01*
X160651459Y-70249962D01*
X160651457Y-70249962D01*
X160458170Y-70288409D01*
X160458160Y-70288412D01*
X160276092Y-70363826D01*
X160276079Y-70363833D01*
X160112218Y-70473322D01*
X160112214Y-70473325D01*
X159972863Y-70612676D01*
X159972860Y-70612680D01*
X159863371Y-70776541D01*
X159863364Y-70776554D01*
X159787950Y-70958622D01*
X159787947Y-70958632D01*
X159749500Y-71151918D01*
X159749500Y-71900500D01*
X159729815Y-71967539D01*
X159677011Y-72013294D01*
X159625500Y-72024500D01*
X159031043Y-72024500D01*
X159031025Y-72024501D01*
X158929960Y-72034825D01*
X158766197Y-72089092D01*
X158766194Y-72089093D01*
X158619361Y-72179661D01*
X158497374Y-72301648D01*
X158406806Y-72448481D01*
X158406805Y-72448484D01*
X158352539Y-72612247D01*
X158352539Y-72612248D01*
X158352538Y-72612248D01*
X158342213Y-72713315D01*
X158342213Y-73286669D01*
X158342214Y-73286687D01*
X158352538Y-73387752D01*
X158382084Y-73476914D01*
X158406037Y-73549199D01*
X158406805Y-73551515D01*
X158406806Y-73551518D01*
X158497374Y-73698351D01*
X158593394Y-73794371D01*
X158626879Y-73855694D01*
X158629713Y-73882052D01*
X158629713Y-74185684D01*
X158611252Y-74250780D01*
X158589095Y-74286701D01*
X158589092Y-74286708D01*
X158534826Y-74450471D01*
X158534826Y-74450472D01*
X158534825Y-74450472D01*
X158524500Y-74551539D01*
X158524500Y-75149893D01*
X158524501Y-75149911D01*
X158534825Y-75250976D01*
X158541165Y-75270108D01*
X158589092Y-75414740D01*
X158679294Y-75560981D01*
X158679661Y-75561575D01*
X158793629Y-75675543D01*
X158827114Y-75736866D01*
X158822130Y-75806558D01*
X158793629Y-75850905D01*
X158679661Y-75964872D01*
X158589093Y-76111705D01*
X158589092Y-76111708D01*
X158534826Y-76275471D01*
X158534826Y-76275472D01*
X158534825Y-76275472D01*
X158524500Y-76376539D01*
X158524500Y-76974893D01*
X158524501Y-76974911D01*
X158534825Y-77075976D01*
X158534826Y-77075979D01*
X158591364Y-77246596D01*
X158590071Y-77247024D01*
X158599500Y-77289550D01*
X158599500Y-77325638D01*
X158579815Y-77392677D01*
X158563181Y-77413319D01*
X154192022Y-81784478D01*
X154130699Y-81817963D01*
X154104341Y-81820797D01*
X152190006Y-81820797D01*
X152016042Y-81855400D01*
X152016026Y-81855405D01*
X151900156Y-81903399D01*
X151900157Y-81903400D01*
X151852157Y-81923283D01*
X151852156Y-81923284D01*
X151805404Y-81954523D01*
X151805403Y-81954524D01*
X151704664Y-82021834D01*
X148840412Y-84886086D01*
X148818448Y-84903558D01*
X147680441Y-85614776D01*
X147641083Y-85630789D01*
X147434961Y-85675629D01*
X147434957Y-85675630D01*
X147434954Y-85675631D01*
X147241983Y-85747605D01*
X147166833Y-85775635D01*
X146915690Y-85912770D01*
X146915682Y-85912775D01*
X146686612Y-86084254D01*
X146686594Y-86084270D01*
X146484270Y-86286594D01*
X146484254Y-86286612D01*
X146312775Y-86515682D01*
X146312770Y-86515690D01*
X146175635Y-86766833D01*
X146075628Y-87034962D01*
X146014804Y-87314566D01*
X145994390Y-87599998D01*
X145500500Y-87599998D01*
X145500500Y-79399998D01*
X145994390Y-79399998D01*
X145994390Y-79400001D01*
X146014804Y-79685433D01*
X146075628Y-79965037D01*
X146175635Y-80233166D01*
X146312770Y-80484309D01*
X146312775Y-80484317D01*
X146484254Y-80713387D01*
X146484270Y-80713405D01*
X146686594Y-80915729D01*
X146686612Y-80915745D01*
X146915682Y-81087224D01*
X146915690Y-81087229D01*
X147166833Y-81224364D01*
X147166832Y-81224364D01*
X147166836Y-81224365D01*
X147166839Y-81224367D01*
X147434954Y-81324369D01*
X147676985Y-81377019D01*
X147719862Y-81395315D01*
X147781220Y-81436613D01*
X147781221Y-81436613D01*
X148674974Y-82038165D01*
X148812662Y-82130837D01*
X148831105Y-82146026D01*
X149112213Y-82427135D01*
X149112214Y-82427136D01*
X149112217Y-82427138D01*
X149112219Y-82427140D01*
X149171625Y-82466833D01*
X149276087Y-82536632D01*
X149367125Y-82574341D01*
X149458164Y-82612051D01*
X149651455Y-82650499D01*
X149651458Y-82650500D01*
X149651460Y-82650500D01*
X149848542Y-82650500D01*
X149848543Y-82650499D01*
X150041836Y-82612051D01*
X150223914Y-82536631D01*
X150387782Y-82427140D01*
X150527140Y-82287782D01*
X150636631Y-82123914D01*
X150712051Y-81941836D01*
X150750500Y-81748540D01*
X150750500Y-81551460D01*
X150750500Y-81551457D01*
X150750499Y-81551455D01*
X150727655Y-81436613D01*
X150712051Y-81358164D01*
X150656629Y-81224364D01*
X150636632Y-81176087D01*
X150599967Y-81121214D01*
X150527140Y-81012219D01*
X150527138Y-81012217D01*
X150527136Y-81012214D01*
X150527135Y-81012213D01*
X150308013Y-80793092D01*
X150276246Y-80738697D01*
X149990464Y-79713085D01*
X149986230Y-79670963D01*
X150005610Y-79400000D01*
X149985196Y-79114572D01*
X149981138Y-79095919D01*
X149924371Y-78834962D01*
X149924370Y-78834960D01*
X149924369Y-78834954D01*
X149824367Y-78566839D01*
X149795523Y-78514016D01*
X149687229Y-78315690D01*
X149687224Y-78315682D01*
X149515745Y-78086612D01*
X149515729Y-78086594D01*
X149313405Y-77884270D01*
X149313387Y-77884254D01*
X149084317Y-77712775D01*
X149084309Y-77712770D01*
X148833166Y-77575635D01*
X148833167Y-77575635D01*
X148647578Y-77506414D01*
X148565046Y-77475631D01*
X148565043Y-77475630D01*
X148565037Y-77475628D01*
X148285433Y-77414804D01*
X148000001Y-77394390D01*
X147999999Y-77394390D01*
X147714566Y-77414804D01*
X147434962Y-77475628D01*
X147166833Y-77575635D01*
X146915690Y-77712770D01*
X146915682Y-77712775D01*
X146686612Y-77884254D01*
X146686594Y-77884270D01*
X146484270Y-78086594D01*
X146484254Y-78086612D01*
X146312775Y-78315682D01*
X146312770Y-78315690D01*
X146175635Y-78566833D01*
X146075628Y-78834962D01*
X146014804Y-79114566D01*
X145994390Y-79399998D01*
X145500500Y-79399998D01*
X145500500Y-75699997D01*
X151594652Y-75699997D01*
X151594652Y-75700002D01*
X151614028Y-76057368D01*
X151614029Y-76057385D01*
X151671926Y-76410539D01*
X151671932Y-76410565D01*
X151767672Y-76755392D01*
X151767674Y-76755399D01*
X151900142Y-77087870D01*
X151900151Y-77087888D01*
X152067784Y-77404077D01*
X152067787Y-77404082D01*
X152067789Y-77404085D01*
X152242190Y-77661308D01*
X152268634Y-77700309D01*
X152268641Y-77700319D01*
X152489083Y-77959843D01*
X152500332Y-77973086D01*
X152760163Y-78219211D01*
X153045081Y-78435800D01*
X153351747Y-78620315D01*
X153351749Y-78620316D01*
X153351751Y-78620317D01*
X153351755Y-78620319D01*
X153516512Y-78696543D01*
X153676565Y-78770591D01*
X154015726Y-78884868D01*
X154365254Y-78961805D01*
X154721052Y-79000500D01*
X154721058Y-79000500D01*
X155078942Y-79000500D01*
X155078948Y-79000500D01*
X155434746Y-78961805D01*
X155784274Y-78884868D01*
X156123435Y-78770591D01*
X156448253Y-78620315D01*
X156754919Y-78435800D01*
X157039837Y-78219211D01*
X157299668Y-77973086D01*
X157531365Y-77700311D01*
X157732211Y-77404085D01*
X157899853Y-77087880D01*
X158032324Y-76755403D01*
X158128071Y-76410552D01*
X158177064Y-76111708D01*
X158185970Y-76057385D01*
X158185970Y-76057382D01*
X158185972Y-76057371D01*
X158205348Y-75700000D01*
X158205232Y-75697869D01*
X158197843Y-75561575D01*
X158185972Y-75342629D01*
X158184136Y-75331431D01*
X158128073Y-74989460D01*
X158128072Y-74989459D01*
X158128071Y-74989448D01*
X158090988Y-74855886D01*
X158032327Y-74644607D01*
X158032325Y-74644600D01*
X157899857Y-74312129D01*
X157899848Y-74312111D01*
X157886376Y-74286701D01*
X157781235Y-74088383D01*
X157732215Y-73995922D01*
X157732213Y-73995919D01*
X157732211Y-73995915D01*
X157531365Y-73699689D01*
X157531361Y-73699684D01*
X157531358Y-73699680D01*
X157299668Y-73426914D01*
X157151632Y-73286687D01*
X157039837Y-73180789D01*
X157039830Y-73180783D01*
X157039827Y-73180781D01*
X156972245Y-73129407D01*
X156754919Y-72964200D01*
X156448253Y-72779685D01*
X156448252Y-72779684D01*
X156448248Y-72779682D01*
X156448244Y-72779680D01*
X156123447Y-72629414D01*
X156123441Y-72629411D01*
X156123435Y-72629409D01*
X155953854Y-72572270D01*
X155784273Y-72515131D01*
X155434744Y-72438194D01*
X155078949Y-72399500D01*
X155078948Y-72399500D01*
X154721052Y-72399500D01*
X154721050Y-72399500D01*
X154365255Y-72438194D01*
X154015726Y-72515131D01*
X153807291Y-72585362D01*
X153676565Y-72629409D01*
X153676563Y-72629410D01*
X153676552Y-72629414D01*
X153351755Y-72779680D01*
X153351751Y-72779682D01*
X153268646Y-72829685D01*
X153045081Y-72964200D01*
X152990607Y-73005610D01*
X152760172Y-73180781D01*
X152760163Y-73180789D01*
X152500331Y-73426914D01*
X152268641Y-73699680D01*
X152268634Y-73699690D01*
X152067790Y-73995913D01*
X152067784Y-73995922D01*
X151900151Y-74312111D01*
X151900142Y-74312129D01*
X151767674Y-74644600D01*
X151767672Y-74644607D01*
X151671932Y-74989434D01*
X151671926Y-74989460D01*
X151614029Y-75342614D01*
X151614028Y-75342631D01*
X151594652Y-75699997D01*
X145500500Y-75699997D01*
X145500500Y-73880115D01*
X146773436Y-73880115D01*
X146915960Y-73986807D01*
X146915961Y-73986808D01*
X147167042Y-74123908D01*
X147167041Y-74123908D01*
X147435104Y-74223890D01*
X147714637Y-74284699D01*
X147999999Y-74305109D01*
X148000001Y-74305109D01*
X148285362Y-74284699D01*
X148564895Y-74223890D01*
X148832958Y-74123908D01*
X149084047Y-73986803D01*
X149226561Y-73880116D01*
X149226562Y-73880115D01*
X148000001Y-72653553D01*
X148000000Y-72653553D01*
X146773436Y-73880115D01*
X145500500Y-73880115D01*
X145500500Y-72299998D01*
X145994891Y-72299998D01*
X145994891Y-72300001D01*
X146015300Y-72585362D01*
X146076109Y-72864895D01*
X146176091Y-73132958D01*
X146313191Y-73384038D01*
X146313196Y-73384046D01*
X146419882Y-73526561D01*
X146419883Y-73526562D01*
X147646446Y-72300000D01*
X147646446Y-72299999D01*
X148353553Y-72299999D01*
X148353553Y-72300000D01*
X149580115Y-73526562D01*
X149580116Y-73526561D01*
X149686803Y-73384047D01*
X149823908Y-73132958D01*
X149923890Y-72864895D01*
X149984699Y-72585362D01*
X150005109Y-72300001D01*
X150005109Y-72299998D01*
X149984699Y-72014637D01*
X149923890Y-71735104D01*
X149823908Y-71467041D01*
X149686808Y-71215961D01*
X149686807Y-71215960D01*
X149580115Y-71073436D01*
X148353553Y-72299999D01*
X147646446Y-72299999D01*
X146419883Y-71073436D01*
X146419882Y-71073437D01*
X146313196Y-71215953D01*
X146313191Y-71215961D01*
X146176091Y-71467041D01*
X146076109Y-71735104D01*
X146015300Y-72014637D01*
X145994891Y-72299998D01*
X145500500Y-72299998D01*
X145500500Y-70719883D01*
X146773436Y-70719883D01*
X148000000Y-71946446D01*
X148000001Y-71946446D01*
X149226562Y-70719883D01*
X149226561Y-70719882D01*
X149084046Y-70613196D01*
X149084038Y-70613191D01*
X148832957Y-70476091D01*
X148832958Y-70476091D01*
X148564895Y-70376109D01*
X148285362Y-70315300D01*
X148000001Y-70294891D01*
X147999999Y-70294891D01*
X147714637Y-70315300D01*
X147435104Y-70376109D01*
X147167041Y-70476091D01*
X146915961Y-70613191D01*
X146915953Y-70613196D01*
X146773437Y-70719882D01*
X146773436Y-70719883D01*
X145500500Y-70719883D01*
X145500500Y-65402706D01*
X145500618Y-65397297D01*
X145508596Y-65214566D01*
X145518147Y-64995795D01*
X145519087Y-64985064D01*
X145571189Y-64589302D01*
X145573063Y-64578672D01*
X145659466Y-64188940D01*
X145662261Y-64178512D01*
X145662298Y-64178396D01*
X145782291Y-63797823D01*
X145785979Y-63787691D01*
X145938742Y-63418888D01*
X145943300Y-63409114D01*
X146127617Y-63055045D01*
X146133012Y-63045700D01*
X146347495Y-62709029D01*
X146353685Y-62700189D01*
X146596687Y-62383503D01*
X146603625Y-62375234D01*
X146873304Y-62080932D01*
X146880932Y-62073304D01*
X147175234Y-61803625D01*
X147183503Y-61796687D01*
X147500189Y-61553685D01*
X147509029Y-61547495D01*
X147845700Y-61333012D01*
X147855045Y-61327617D01*
X148209114Y-61143300D01*
X148218888Y-61138742D01*
X148587691Y-60985979D01*
X148597823Y-60982291D01*
X148978521Y-60862258D01*
X148988950Y-60859463D01*
X149378672Y-60773063D01*
X149389302Y-60771189D01*
X149785064Y-60719087D01*
X149795796Y-60718147D01*
X150197286Y-60700617D01*
X150202695Y-60700500D01*
X150257101Y-60700500D01*
X150257710Y-60700450D01*
X180181848Y-60674904D01*
X180188216Y-60675064D01*
G37*
%TD.AperFunction*%
%TD*%
%TA.AperFunction,Conductor*%
%TO.N,/V2_{OUT}*%
G36*
X181201472Y-80803427D02*
G01*
X181203366Y-80805910D01*
X181995790Y-82197405D01*
X181996906Y-82206290D01*
X181994267Y-82211080D01*
X181008644Y-83291524D01*
X181000536Y-83295327D01*
X180992115Y-83292283D01*
X180991356Y-83291524D01*
X180005732Y-82211080D01*
X180002688Y-82202659D01*
X180004208Y-82197407D01*
X180796634Y-80805909D01*
X180803706Y-80800417D01*
X180806801Y-80800000D01*
X181193199Y-80800000D01*
X181201472Y-80803427D01*
G37*
%TD.AperFunction*%
%TD*%
%TA.AperFunction,Conductor*%
%TO.N,/V1_{OUT}*%
G36*
X183028035Y-92284957D02*
G01*
X183034004Y-92288155D01*
X183307360Y-92561511D01*
X183310787Y-92569784D01*
X183308629Y-92576554D01*
X182420441Y-93828379D01*
X182412859Y-93833144D01*
X182407109Y-93832678D01*
X181011523Y-93354894D01*
X181004806Y-93348973D01*
X181004244Y-93340035D01*
X181004675Y-93338954D01*
X181613224Y-92010077D01*
X181619784Y-92003983D01*
X181626161Y-92003479D01*
X183028035Y-92284957D01*
G37*
%TD.AperFunction*%
%TD*%
%TA.AperFunction,Conductor*%
%TO.N,/V1+*%
G36*
X179911080Y-70005732D02*
G01*
X180991524Y-70991356D01*
X180995327Y-70999464D01*
X180992283Y-71007885D01*
X180991524Y-71008644D01*
X179911080Y-71994267D01*
X179902659Y-71997311D01*
X179897405Y-71995790D01*
X178505910Y-71203365D01*
X178500417Y-71196293D01*
X178500000Y-71193198D01*
X178500000Y-70806801D01*
X178503427Y-70798528D01*
X178505907Y-70796635D01*
X179897406Y-70004208D01*
X179906290Y-70003093D01*
X179911080Y-70005732D01*
G37*
%TD.AperFunction*%
%TD*%
%TA.AperFunction,Conductor*%
%TO.N,/V1-*%
G36*
X179911080Y-64505732D02*
G01*
X180991524Y-65491356D01*
X180995327Y-65499464D01*
X180992283Y-65507885D01*
X180991524Y-65508644D01*
X179911080Y-66494267D01*
X179902659Y-66497311D01*
X179897405Y-66495790D01*
X178505910Y-65703365D01*
X178500417Y-65696293D01*
X178500000Y-65693198D01*
X178500000Y-65306801D01*
X178503427Y-65298528D01*
X178505907Y-65296635D01*
X179897406Y-64504208D01*
X179906290Y-64503093D01*
X179911080Y-64505732D01*
G37*
%TD.AperFunction*%
%TD*%
%TA.AperFunction,Conductor*%
%TO.N,GND*%
G36*
X148011884Y-79401702D02*
G01*
X149448829Y-79676720D01*
X149456311Y-79681641D01*
X149457901Y-79685070D01*
X149829108Y-81017254D01*
X149828027Y-81026144D01*
X149826110Y-81028668D01*
X149130648Y-81724130D01*
X149122375Y-81727557D01*
X149115843Y-81725563D01*
X148063476Y-81017254D01*
X147860978Y-80880960D01*
X147856028Y-80873498D01*
X147855866Y-80870118D01*
X147971426Y-79685070D01*
X147998048Y-79412058D01*
X148002262Y-79404158D01*
X148010829Y-79401550D01*
X148011884Y-79401702D01*
G37*
%TD.AperFunction*%
%TD*%
%TA.AperFunction,Conductor*%
%TO.N,GND*%
G36*
X169490529Y-95009178D02*
G01*
X169492008Y-95010430D01*
X170185814Y-95704236D01*
X170189241Y-95712509D01*
X170189238Y-95712752D01*
X170162737Y-96988551D01*
X170159140Y-96996751D01*
X170151049Y-97000008D01*
X169214151Y-97000703D01*
X169205875Y-96997282D01*
X169205860Y-96997267D01*
X168543469Y-96333484D01*
X168540051Y-96325208D01*
X168542225Y-96318428D01*
X169474210Y-95011908D01*
X169481804Y-95007163D01*
X169490529Y-95009178D01*
G37*
%TD.AperFunction*%
%TD*%
%TA.AperFunction,Conductor*%
%TO.N,/MOTOR_{IN}*%
G36*
X158280283Y-95376208D02*
G01*
X158833791Y-95929716D01*
X158837218Y-95937989D01*
X158835878Y-95943427D01*
X158094955Y-97355054D01*
X158088076Y-97360786D01*
X158080128Y-97360430D01*
X157213784Y-97002562D01*
X157207446Y-96996236D01*
X157207437Y-96996215D01*
X156849569Y-96129871D01*
X156849578Y-96120916D01*
X156854944Y-96115044D01*
X158266572Y-95374120D01*
X158275491Y-95373311D01*
X158280283Y-95376208D01*
G37*
%TD.AperFunction*%
%TD*%
%TA.AperFunction,Conductor*%
%TO.N,/+12V*%
G36*
X149134883Y-85312594D02*
G01*
X149689688Y-85867399D01*
X149693115Y-85875672D01*
X149692941Y-85877685D01*
X149450054Y-87268476D01*
X149445255Y-87276036D01*
X149441084Y-87277880D01*
X148011811Y-87597903D01*
X148002989Y-87596367D01*
X147997838Y-87589042D01*
X147997653Y-87587998D01*
X147810567Y-86137593D01*
X147812907Y-86128952D01*
X147815966Y-86126180D01*
X149120410Y-85310944D01*
X149129241Y-85309467D01*
X149134883Y-85312594D01*
G37*
%TD.AperFunction*%
%TD*%
%TA.AperFunction,Conductor*%
%TO.N,/V2-*%
G36*
X179911080Y-87305732D02*
G01*
X180991524Y-88291356D01*
X180995327Y-88299464D01*
X180992283Y-88307885D01*
X180991524Y-88308644D01*
X179911080Y-89294267D01*
X179902659Y-89297311D01*
X179897405Y-89295790D01*
X178505910Y-88503365D01*
X178500417Y-88496293D01*
X178500000Y-88493198D01*
X178500000Y-88106801D01*
X178503427Y-88098528D01*
X178505907Y-88096635D01*
X179897406Y-87304208D01*
X179906290Y-87303093D01*
X179911080Y-87305732D01*
G37*
%TD.AperFunction*%
%TD*%
%TA.AperFunction,Conductor*%
%TO.N,/V1_{OUT}*%
G36*
X179911080Y-92355732D02*
G01*
X180991524Y-93341356D01*
X180995327Y-93349464D01*
X180992283Y-93357885D01*
X180991524Y-93358644D01*
X179911080Y-94344267D01*
X179902659Y-94347311D01*
X179897405Y-94345790D01*
X178505910Y-93553365D01*
X178500417Y-93546293D01*
X178500000Y-93543198D01*
X178500000Y-93156801D01*
X178503427Y-93148528D01*
X178505907Y-93146635D01*
X179897406Y-92354208D01*
X179906290Y-92353093D01*
X179911080Y-92355732D01*
G37*
%TD.AperFunction*%
%TD*%
M02*
