%TF.GenerationSoftware,KiCad,Pcbnew,8.0.2*%
%TF.CreationDate,2024-12-27T17:59:50+11:00*%
%TF.ProjectId,Shutter-TestPlatform,53687574-7465-4722-9d54-657374506c61,rev?*%
%TF.SameCoordinates,Original*%
%TF.FileFunction,Legend,Top*%
%TF.FilePolarity,Positive*%
%FSLAX46Y46*%
G04 Gerber Fmt 4.6, Leading zero omitted, Abs format (unit mm)*
G04 Created by KiCad (PCBNEW 8.0.2) date 2024-12-27 17:59:50*
%MOMM*%
%LPD*%
G01*
G04 APERTURE LIST*
%ADD10C,0.130000*%
%ADD11C,0.100000*%
%ADD12C,0.153000*%
%ADD13C,0.120000*%
%ADD14C,0.152400*%
%ADD15C,0.508000*%
%ADD16C,0.200000*%
G04 APERTURE END LIST*
D10*
X148914097Y-64775620D02*
X148871240Y-64823240D01*
X148871240Y-64823240D02*
X148742668Y-64870859D01*
X148742668Y-64870859D02*
X148656954Y-64870859D01*
X148656954Y-64870859D02*
X148528383Y-64823240D01*
X148528383Y-64823240D02*
X148442668Y-64728001D01*
X148442668Y-64728001D02*
X148399811Y-64632763D01*
X148399811Y-64632763D02*
X148356954Y-64442287D01*
X148356954Y-64442287D02*
X148356954Y-64299430D01*
X148356954Y-64299430D02*
X148399811Y-64108954D01*
X148399811Y-64108954D02*
X148442668Y-64013716D01*
X148442668Y-64013716D02*
X148528383Y-63918478D01*
X148528383Y-63918478D02*
X148656954Y-63870859D01*
X148656954Y-63870859D02*
X148742668Y-63870859D01*
X148742668Y-63870859D02*
X148871240Y-63918478D01*
X148871240Y-63918478D02*
X148914097Y-63966097D01*
X149428383Y-64870859D02*
X149342668Y-64823240D01*
X149342668Y-64823240D02*
X149299811Y-64775620D01*
X149299811Y-64775620D02*
X149256954Y-64680382D01*
X149256954Y-64680382D02*
X149256954Y-64394668D01*
X149256954Y-64394668D02*
X149299811Y-64299430D01*
X149299811Y-64299430D02*
X149342668Y-64251811D01*
X149342668Y-64251811D02*
X149428383Y-64204192D01*
X149428383Y-64204192D02*
X149556954Y-64204192D01*
X149556954Y-64204192D02*
X149642668Y-64251811D01*
X149642668Y-64251811D02*
X149685526Y-64299430D01*
X149685526Y-64299430D02*
X149728383Y-64394668D01*
X149728383Y-64394668D02*
X149728383Y-64680382D01*
X149728383Y-64680382D02*
X149685526Y-64775620D01*
X149685526Y-64775620D02*
X149642668Y-64823240D01*
X149642668Y-64823240D02*
X149556954Y-64870859D01*
X149556954Y-64870859D02*
X149428383Y-64870859D01*
X150114097Y-64870859D02*
X150114097Y-64204192D01*
X150114097Y-64394668D02*
X150156954Y-64299430D01*
X150156954Y-64299430D02*
X150199812Y-64251811D01*
X150199812Y-64251811D02*
X150285526Y-64204192D01*
X150285526Y-64204192D02*
X150371240Y-64204192D01*
X150671240Y-64870859D02*
X150671240Y-64204192D01*
X150671240Y-64394668D02*
X150714097Y-64299430D01*
X150714097Y-64299430D02*
X150756955Y-64251811D01*
X150756955Y-64251811D02*
X150842669Y-64204192D01*
X150842669Y-64204192D02*
X150928383Y-64204192D01*
X151571240Y-64823240D02*
X151485526Y-64870859D01*
X151485526Y-64870859D02*
X151314098Y-64870859D01*
X151314098Y-64870859D02*
X151228383Y-64823240D01*
X151228383Y-64823240D02*
X151185526Y-64728001D01*
X151185526Y-64728001D02*
X151185526Y-64347049D01*
X151185526Y-64347049D02*
X151228383Y-64251811D01*
X151228383Y-64251811D02*
X151314098Y-64204192D01*
X151314098Y-64204192D02*
X151485526Y-64204192D01*
X151485526Y-64204192D02*
X151571240Y-64251811D01*
X151571240Y-64251811D02*
X151614098Y-64347049D01*
X151614098Y-64347049D02*
X151614098Y-64442287D01*
X151614098Y-64442287D02*
X151185526Y-64537525D01*
X152385527Y-64823240D02*
X152299812Y-64870859D01*
X152299812Y-64870859D02*
X152128384Y-64870859D01*
X152128384Y-64870859D02*
X152042669Y-64823240D01*
X152042669Y-64823240D02*
X151999812Y-64775620D01*
X151999812Y-64775620D02*
X151956955Y-64680382D01*
X151956955Y-64680382D02*
X151956955Y-64394668D01*
X151956955Y-64394668D02*
X151999812Y-64299430D01*
X151999812Y-64299430D02*
X152042669Y-64251811D01*
X152042669Y-64251811D02*
X152128384Y-64204192D01*
X152128384Y-64204192D02*
X152299812Y-64204192D01*
X152299812Y-64204192D02*
X152385527Y-64251811D01*
X152642670Y-64204192D02*
X152985527Y-64204192D01*
X152771241Y-63870859D02*
X152771241Y-64728001D01*
X152771241Y-64728001D02*
X152814098Y-64823240D01*
X152814098Y-64823240D02*
X152899813Y-64870859D01*
X152899813Y-64870859D02*
X152985527Y-64870859D01*
X154142670Y-63870859D02*
X154314098Y-63870859D01*
X154314098Y-63870859D02*
X154399813Y-63918478D01*
X154399813Y-63918478D02*
X154485527Y-64013716D01*
X154485527Y-64013716D02*
X154528384Y-64204192D01*
X154528384Y-64204192D02*
X154528384Y-64537525D01*
X154528384Y-64537525D02*
X154485527Y-64728001D01*
X154485527Y-64728001D02*
X154399813Y-64823240D01*
X154399813Y-64823240D02*
X154314098Y-64870859D01*
X154314098Y-64870859D02*
X154142670Y-64870859D01*
X154142670Y-64870859D02*
X154056956Y-64823240D01*
X154056956Y-64823240D02*
X153971241Y-64728001D01*
X153971241Y-64728001D02*
X153928384Y-64537525D01*
X153928384Y-64537525D02*
X153928384Y-64204192D01*
X153928384Y-64204192D02*
X153971241Y-64013716D01*
X153971241Y-64013716D02*
X154056956Y-63918478D01*
X154056956Y-63918478D02*
X154142670Y-63870859D01*
X154914098Y-64870859D02*
X154914098Y-63870859D01*
X154914098Y-63870859D02*
X155256955Y-63870859D01*
X155256955Y-63870859D02*
X155342670Y-63918478D01*
X155342670Y-63918478D02*
X155385527Y-63966097D01*
X155385527Y-63966097D02*
X155428384Y-64061335D01*
X155428384Y-64061335D02*
X155428384Y-64204192D01*
X155428384Y-64204192D02*
X155385527Y-64299430D01*
X155385527Y-64299430D02*
X155342670Y-64347049D01*
X155342670Y-64347049D02*
X155256955Y-64394668D01*
X155256955Y-64394668D02*
X154914098Y-64394668D01*
X155771241Y-64585144D02*
X156199813Y-64585144D01*
X155685527Y-64870859D02*
X155985527Y-63870859D01*
X155985527Y-63870859D02*
X156285527Y-64870859D01*
X156585527Y-64870859D02*
X156585527Y-63870859D01*
X156585527Y-63870859D02*
X156885527Y-64585144D01*
X156885527Y-64585144D02*
X157185527Y-63870859D01*
X157185527Y-63870859D02*
X157185527Y-64870859D01*
X157614098Y-64870859D02*
X157614098Y-63870859D01*
X157614098Y-63870859D02*
X157956955Y-63870859D01*
X157956955Y-63870859D02*
X158042670Y-63918478D01*
X158042670Y-63918478D02*
X158085527Y-63966097D01*
X158085527Y-63966097D02*
X158128384Y-64061335D01*
X158128384Y-64061335D02*
X158128384Y-64204192D01*
X158128384Y-64204192D02*
X158085527Y-64299430D01*
X158085527Y-64299430D02*
X158042670Y-64347049D01*
X158042670Y-64347049D02*
X157956955Y-64394668D01*
X157956955Y-64394668D02*
X157614098Y-64394668D01*
X159071241Y-64204192D02*
X159414098Y-64204192D01*
X159199812Y-63870859D02*
X159199812Y-64728001D01*
X159199812Y-64728001D02*
X159242669Y-64823240D01*
X159242669Y-64823240D02*
X159328384Y-64870859D01*
X159328384Y-64870859D02*
X159414098Y-64870859D01*
X159714098Y-64870859D02*
X159714098Y-63870859D01*
X160099813Y-64870859D02*
X160099813Y-64347049D01*
X160099813Y-64347049D02*
X160056955Y-64251811D01*
X160056955Y-64251811D02*
X159971241Y-64204192D01*
X159971241Y-64204192D02*
X159842670Y-64204192D01*
X159842670Y-64204192D02*
X159756955Y-64251811D01*
X159756955Y-64251811D02*
X159714098Y-64299430D01*
X160528384Y-64870859D02*
X160528384Y-64204192D01*
X160528384Y-63870859D02*
X160485527Y-63918478D01*
X160485527Y-63918478D02*
X160528384Y-63966097D01*
X160528384Y-63966097D02*
X160571241Y-63918478D01*
X160571241Y-63918478D02*
X160528384Y-63870859D01*
X160528384Y-63870859D02*
X160528384Y-63966097D01*
X160914098Y-64823240D02*
X160999812Y-64870859D01*
X160999812Y-64870859D02*
X161171241Y-64870859D01*
X161171241Y-64870859D02*
X161256955Y-64823240D01*
X161256955Y-64823240D02*
X161299812Y-64728001D01*
X161299812Y-64728001D02*
X161299812Y-64680382D01*
X161299812Y-64680382D02*
X161256955Y-64585144D01*
X161256955Y-64585144D02*
X161171241Y-64537525D01*
X161171241Y-64537525D02*
X161042670Y-64537525D01*
X161042670Y-64537525D02*
X160956955Y-64489906D01*
X160956955Y-64489906D02*
X160914098Y-64394668D01*
X160914098Y-64394668D02*
X160914098Y-64347049D01*
X160914098Y-64347049D02*
X160956955Y-64251811D01*
X160956955Y-64251811D02*
X161042670Y-64204192D01*
X161042670Y-64204192D02*
X161171241Y-64204192D01*
X161171241Y-64204192D02*
X161256955Y-64251811D01*
X162242669Y-64204192D02*
X162585526Y-64204192D01*
X162371240Y-63870859D02*
X162371240Y-64728001D01*
X162371240Y-64728001D02*
X162414097Y-64823240D01*
X162414097Y-64823240D02*
X162499812Y-64870859D01*
X162499812Y-64870859D02*
X162585526Y-64870859D01*
X162885526Y-64870859D02*
X162885526Y-64204192D01*
X162885526Y-63870859D02*
X162842669Y-63918478D01*
X162842669Y-63918478D02*
X162885526Y-63966097D01*
X162885526Y-63966097D02*
X162928383Y-63918478D01*
X162928383Y-63918478D02*
X162885526Y-63870859D01*
X162885526Y-63870859D02*
X162885526Y-63966097D01*
X163314097Y-64870859D02*
X163314097Y-64204192D01*
X163314097Y-64299430D02*
X163356954Y-64251811D01*
X163356954Y-64251811D02*
X163442669Y-64204192D01*
X163442669Y-64204192D02*
X163571240Y-64204192D01*
X163571240Y-64204192D02*
X163656954Y-64251811D01*
X163656954Y-64251811D02*
X163699812Y-64347049D01*
X163699812Y-64347049D02*
X163699812Y-64870859D01*
X163699812Y-64347049D02*
X163742669Y-64251811D01*
X163742669Y-64251811D02*
X163828383Y-64204192D01*
X163828383Y-64204192D02*
X163956954Y-64204192D01*
X163956954Y-64204192D02*
X164042669Y-64251811D01*
X164042669Y-64251811D02*
X164085526Y-64347049D01*
X164085526Y-64347049D02*
X164085526Y-64870859D01*
X164856954Y-64823240D02*
X164771240Y-64870859D01*
X164771240Y-64870859D02*
X164599812Y-64870859D01*
X164599812Y-64870859D02*
X164514097Y-64823240D01*
X164514097Y-64823240D02*
X164471240Y-64728001D01*
X164471240Y-64728001D02*
X164471240Y-64347049D01*
X164471240Y-64347049D02*
X164514097Y-64251811D01*
X164514097Y-64251811D02*
X164599812Y-64204192D01*
X164599812Y-64204192D02*
X164771240Y-64204192D01*
X164771240Y-64204192D02*
X164856954Y-64251811D01*
X164856954Y-64251811D02*
X164899812Y-64347049D01*
X164899812Y-64347049D02*
X164899812Y-64442287D01*
X164899812Y-64442287D02*
X164471240Y-64537525D01*
D11*
X178800000Y-63400000D02*
X148355666Y-63402909D01*
D12*
G36*
X148967416Y-62277816D02*
G01*
X149040769Y-62349740D01*
X149081317Y-62507265D01*
X149082644Y-62821645D01*
X149042674Y-62986389D01*
X148972692Y-63057761D01*
X148903759Y-63093277D01*
X148749301Y-63094382D01*
X148681514Y-63061509D01*
X148608162Y-62989583D01*
X148567614Y-62832059D01*
X148566287Y-62517679D01*
X148606257Y-62352936D01*
X148676238Y-62281565D01*
X148745172Y-62246048D01*
X148899630Y-62244943D01*
X148967416Y-62277816D01*
G37*
G36*
X152147942Y-62807762D02*
G01*
X151882026Y-62808558D01*
X152014507Y-62409285D01*
X152147942Y-62807762D01*
G37*
G36*
X150015249Y-62277919D02*
G01*
X150046246Y-62307829D01*
X150081448Y-62376151D01*
X150082444Y-62483075D01*
X150049541Y-62550924D01*
X150019634Y-62581918D01*
X149951486Y-62617030D01*
X149662072Y-62618105D01*
X149661533Y-62245883D01*
X149947002Y-62244823D01*
X150015249Y-62277919D01*
G37*
G36*
X154253344Y-62277919D02*
G01*
X154284341Y-62307829D01*
X154319543Y-62376151D01*
X154320539Y-62483075D01*
X154287636Y-62550924D01*
X154257729Y-62581918D01*
X154189581Y-62617030D01*
X153900167Y-62618105D01*
X153899628Y-62245883D01*
X154185097Y-62244823D01*
X154253344Y-62277919D01*
G37*
G36*
X162724893Y-63357274D02*
G01*
X148303522Y-63357274D01*
X148303522Y-62502996D01*
X148414633Y-62502996D01*
X148416018Y-62831344D01*
X148414724Y-62840048D01*
X148416094Y-62849321D01*
X148416103Y-62851253D01*
X148416534Y-62852294D01*
X148416917Y-62854883D01*
X148463722Y-63036715D01*
X148463722Y-63041729D01*
X148467130Y-63049958D01*
X148469582Y-63059481D01*
X148472968Y-63064051D01*
X148475145Y-63069306D01*
X148484658Y-63080898D01*
X148580452Y-63174829D01*
X148587087Y-63182479D01*
X148590346Y-63184531D01*
X148591489Y-63185651D01*
X148593351Y-63186422D01*
X148599778Y-63190468D01*
X148685492Y-63232035D01*
X148686727Y-63233270D01*
X148695718Y-63236994D01*
X148709022Y-63243446D01*
X148711763Y-63243640D01*
X148714304Y-63244693D01*
X148729228Y-63246163D01*
X148908098Y-63244882D01*
X148910136Y-63245562D01*
X148920990Y-63244790D01*
X148934628Y-63244693D01*
X148937168Y-63243640D01*
X148939910Y-63243446D01*
X148953916Y-63238087D01*
X149048489Y-63189360D01*
X149057444Y-63185651D01*
X149060404Y-63183221D01*
X149061845Y-63182479D01*
X149063169Y-63180952D01*
X149069036Y-63176137D01*
X149157512Y-63085904D01*
X149161580Y-63083464D01*
X149166758Y-63076475D01*
X149173788Y-63069306D01*
X149175965Y-63064049D01*
X149179350Y-63059481D01*
X149184396Y-63045359D01*
X149229595Y-62859058D01*
X149232829Y-62851253D01*
X149233744Y-62841958D01*
X149234208Y-62840048D01*
X149234042Y-62838934D01*
X149234299Y-62836329D01*
X149232913Y-62507980D01*
X149234208Y-62499277D01*
X149232837Y-62490003D01*
X149232829Y-62488072D01*
X149232397Y-62487030D01*
X149232015Y-62484442D01*
X149185210Y-62302609D01*
X149185210Y-62297596D01*
X149181801Y-62289366D01*
X149179350Y-62279844D01*
X149175963Y-62275273D01*
X149173787Y-62270019D01*
X149164274Y-62258426D01*
X149073749Y-62169663D01*
X149509871Y-62169663D01*
X149511341Y-63184587D01*
X149522764Y-63212164D01*
X149543870Y-63233270D01*
X149571447Y-63244693D01*
X149601295Y-63244693D01*
X149628872Y-63233270D01*
X149649978Y-63212164D01*
X149661401Y-63184587D01*
X149662871Y-63169663D01*
X149662857Y-63160095D01*
X151605710Y-63160095D01*
X151607826Y-63189869D01*
X151621175Y-63216566D01*
X151643724Y-63236123D01*
X151672041Y-63245562D01*
X151701815Y-63243446D01*
X151728512Y-63230097D01*
X151748069Y-63207548D01*
X151754183Y-63193854D01*
X151831683Y-62960283D01*
X152198648Y-62959185D01*
X152281815Y-63207547D01*
X152301372Y-63230097D01*
X152328069Y-63243445D01*
X152357843Y-63245562D01*
X152386160Y-63236123D01*
X152408709Y-63216565D01*
X152422058Y-63189868D01*
X152424174Y-63160094D01*
X152420849Y-63145471D01*
X152094087Y-62169663D01*
X152605109Y-62169663D01*
X152606579Y-63184587D01*
X152618002Y-63212164D01*
X152639108Y-63233270D01*
X152666685Y-63244693D01*
X152696533Y-63244693D01*
X152724110Y-63233270D01*
X152745216Y-63212164D01*
X152756639Y-63184587D01*
X152758109Y-63169663D01*
X152757154Y-62510970D01*
X152945685Y-62913042D01*
X152949530Y-62923615D01*
X152951810Y-62926105D01*
X152953262Y-62929201D01*
X152961834Y-62937051D01*
X152969689Y-62945628D01*
X152972771Y-62947066D01*
X152975276Y-62949360D01*
X152986197Y-62953331D01*
X152996737Y-62958250D01*
X153000132Y-62958399D01*
X153003327Y-62959561D01*
X153014942Y-62959050D01*
X153026557Y-62959561D01*
X153029751Y-62958399D01*
X153033147Y-62958250D01*
X153043684Y-62953332D01*
X153054609Y-62949360D01*
X153057114Y-62947065D01*
X153060195Y-62945628D01*
X153068047Y-62937053D01*
X153076622Y-62929201D01*
X153079156Y-62924922D01*
X153080354Y-62923615D01*
X153081026Y-62921766D01*
X153084265Y-62916299D01*
X153272270Y-62511498D01*
X153273245Y-63184587D01*
X153284668Y-63212164D01*
X153305774Y-63233270D01*
X153333351Y-63244693D01*
X153363199Y-63244693D01*
X153390776Y-63233270D01*
X153411882Y-63212164D01*
X153423305Y-63184587D01*
X153424775Y-63169663D01*
X153423328Y-62170780D01*
X153423377Y-62169663D01*
X153747966Y-62169663D01*
X153749436Y-63184587D01*
X153760859Y-63212164D01*
X153781965Y-63233270D01*
X153809542Y-63244693D01*
X153839390Y-63244693D01*
X153866967Y-63233270D01*
X153888073Y-63212164D01*
X153899496Y-63184587D01*
X153900966Y-63169663D01*
X153900386Y-62769690D01*
X154193541Y-62768601D01*
X154195850Y-62769371D01*
X154207401Y-62768550D01*
X154220342Y-62768502D01*
X154222882Y-62767449D01*
X154225624Y-62767255D01*
X154239630Y-62761896D01*
X154334207Y-62713167D01*
X154343157Y-62709460D01*
X154346117Y-62707030D01*
X154347559Y-62706288D01*
X154348883Y-62704761D01*
X154354750Y-62699947D01*
X154402125Y-62650847D01*
X154408710Y-62645137D01*
X154410726Y-62641933D01*
X154411882Y-62640736D01*
X154412654Y-62638870D01*
X154416699Y-62632446D01*
X154458266Y-62546731D01*
X154459501Y-62545497D01*
X154463225Y-62536505D01*
X154469677Y-62523202D01*
X154469871Y-62520460D01*
X154470924Y-62517920D01*
X154472394Y-62502996D01*
X154471169Y-62371577D01*
X154471793Y-62369707D01*
X154471055Y-62359329D01*
X154470924Y-62345215D01*
X154469871Y-62342674D01*
X154469677Y-62339933D01*
X154464318Y-62325927D01*
X154415589Y-62231350D01*
X154411882Y-62222399D01*
X154409452Y-62219438D01*
X154408710Y-62217998D01*
X154407183Y-62216673D01*
X154402368Y-62210807D01*
X154353274Y-62163437D01*
X154347559Y-62156847D01*
X154344352Y-62154828D01*
X154344260Y-62154739D01*
X155368484Y-62154739D01*
X155368484Y-62184587D01*
X155379907Y-62212164D01*
X155401013Y-62233270D01*
X155428590Y-62244693D01*
X155443514Y-62246163D01*
X155652838Y-62245638D01*
X155654198Y-63184587D01*
X155665621Y-63212164D01*
X155686727Y-63233270D01*
X155714304Y-63244693D01*
X155744152Y-63244693D01*
X155771729Y-63233270D01*
X155792835Y-63212164D01*
X155804258Y-63184587D01*
X155805728Y-63169663D01*
X155804389Y-62245258D01*
X156029866Y-62244693D01*
X156057443Y-62233270D01*
X156078549Y-62212164D01*
X156089972Y-62184587D01*
X156089972Y-62169663D01*
X156271776Y-62169663D01*
X156273246Y-63184587D01*
X156284669Y-63212164D01*
X156305775Y-63233270D01*
X156333352Y-63244693D01*
X156348276Y-63246163D01*
X156839390Y-63244693D01*
X156866967Y-63233270D01*
X156888073Y-63212164D01*
X156899496Y-63184587D01*
X156899496Y-63154739D01*
X156888073Y-63127162D01*
X156866967Y-63106056D01*
X156839390Y-63094633D01*
X156824466Y-63093163D01*
X156424666Y-63094359D01*
X156424127Y-62722032D01*
X156696533Y-62720883D01*
X156724110Y-62709460D01*
X156745216Y-62688354D01*
X156756639Y-62660777D01*
X156756639Y-62630929D01*
X156745216Y-62603352D01*
X156724110Y-62582246D01*
X156696533Y-62570823D01*
X156681609Y-62569353D01*
X156423908Y-62570440D01*
X156423603Y-62360139D01*
X157128919Y-62360139D01*
X157130041Y-62444245D01*
X157129520Y-62445809D01*
X157130187Y-62455201D01*
X157130389Y-62470301D01*
X157131441Y-62472841D01*
X157131636Y-62475583D01*
X157136995Y-62489589D01*
X157185723Y-62584166D01*
X157189431Y-62593116D01*
X157191860Y-62596076D01*
X157192603Y-62597518D01*
X157194129Y-62598842D01*
X157198944Y-62604709D01*
X157248043Y-62652084D01*
X157253754Y-62658669D01*
X157256957Y-62660685D01*
X157258155Y-62661841D01*
X157260020Y-62662613D01*
X157266445Y-62666658D01*
X157357615Y-62710871D01*
X157363219Y-62715023D01*
X157374456Y-62719038D01*
X157375689Y-62719636D01*
X157376238Y-62719675D01*
X157377341Y-62720069D01*
X157554580Y-62763070D01*
X157634297Y-62801728D01*
X157665294Y-62831638D01*
X157700562Y-62900088D01*
X157701355Y-62959547D01*
X157668589Y-63027114D01*
X157638680Y-63058110D01*
X157570469Y-63093255D01*
X157364318Y-63094453D01*
X157214987Y-63046145D01*
X157185213Y-63048261D01*
X157158516Y-63061610D01*
X157138959Y-63084159D01*
X157129520Y-63112476D01*
X157131636Y-63142250D01*
X157144985Y-63168947D01*
X157167534Y-63188504D01*
X157181228Y-63194618D01*
X157323836Y-63240751D01*
X157333352Y-63244693D01*
X157337189Y-63245070D01*
X157338707Y-63245562D01*
X157340721Y-63245418D01*
X157348276Y-63246163D01*
X157574660Y-63244847D01*
X157576803Y-63245562D01*
X157587938Y-63244770D01*
X157601295Y-63244693D01*
X157603835Y-63243640D01*
X157606577Y-63243446D01*
X157620583Y-63238087D01*
X157715156Y-63189360D01*
X157724111Y-63185651D01*
X157727071Y-63183221D01*
X157728512Y-63182479D01*
X157729836Y-63180952D01*
X157735703Y-63176137D01*
X157783073Y-63127041D01*
X157789663Y-63121327D01*
X157791681Y-63118120D01*
X157792835Y-63116925D01*
X157793606Y-63115062D01*
X157797652Y-63108636D01*
X157839219Y-63022921D01*
X157840454Y-63021687D01*
X157844178Y-63012695D01*
X157850630Y-62999392D01*
X157850824Y-62996650D01*
X157851877Y-62994110D01*
X157853347Y-62979186D01*
X157852224Y-62895079D01*
X157852746Y-62893516D01*
X157852078Y-62884123D01*
X157851877Y-62869024D01*
X157850824Y-62866483D01*
X157850630Y-62863742D01*
X157845271Y-62849736D01*
X157796542Y-62755159D01*
X157792835Y-62746208D01*
X157790405Y-62743247D01*
X157789663Y-62741807D01*
X157788136Y-62740482D01*
X157783321Y-62734616D01*
X157734227Y-62687246D01*
X157728512Y-62680656D01*
X157725305Y-62678637D01*
X157724110Y-62677484D01*
X157722247Y-62676712D01*
X157715821Y-62672667D01*
X157624650Y-62628453D01*
X157619047Y-62624302D01*
X157607809Y-62620286D01*
X157606577Y-62619689D01*
X157606027Y-62619649D01*
X157604925Y-62619256D01*
X157427685Y-62576254D01*
X157347966Y-62537595D01*
X157316972Y-62507688D01*
X157281703Y-62439236D01*
X157280910Y-62379777D01*
X157313675Y-62312212D01*
X157343585Y-62281215D01*
X157411796Y-62246070D01*
X157617947Y-62244872D01*
X157767278Y-62293181D01*
X157797052Y-62291065D01*
X157823749Y-62277716D01*
X157843307Y-62255167D01*
X157852746Y-62226850D01*
X157850629Y-62197076D01*
X157837281Y-62170379D01*
X157819247Y-62154739D01*
X157987532Y-62154739D01*
X157987532Y-62184587D01*
X157998955Y-62212164D01*
X158020061Y-62233270D01*
X158047638Y-62244693D01*
X158062562Y-62246163D01*
X158271886Y-62245638D01*
X158273246Y-63184587D01*
X158284669Y-63212164D01*
X158305775Y-63233270D01*
X158333352Y-63244693D01*
X158363200Y-63244693D01*
X158390777Y-63233270D01*
X158411883Y-63212164D01*
X158423306Y-63184587D01*
X158424776Y-63169663D01*
X158423437Y-62245258D01*
X158648914Y-62244693D01*
X158676491Y-62233270D01*
X158697597Y-62212164D01*
X158709020Y-62184587D01*
X158709020Y-62179231D01*
X159510473Y-62179231D01*
X159513798Y-62193854D01*
X159845543Y-63184549D01*
X159845922Y-63189869D01*
X159850170Y-63198365D01*
X159853245Y-63207547D01*
X159856825Y-63211675D01*
X159859271Y-63216566D01*
X159866518Y-63222851D01*
X159872802Y-63230097D01*
X159877689Y-63232540D01*
X159881820Y-63236123D01*
X159890924Y-63239157D01*
X159899499Y-63243445D01*
X159904948Y-63243832D01*
X159910137Y-63245562D01*
X159919707Y-63244881D01*
X159929273Y-63245562D01*
X159934458Y-63243833D01*
X159939911Y-63243446D01*
X159948490Y-63239156D01*
X159957590Y-63236123D01*
X159961719Y-63232541D01*
X159966608Y-63230097D01*
X159972895Y-63222848D01*
X159980139Y-63216565D01*
X159982582Y-63211679D01*
X159986165Y-63207548D01*
X159992279Y-63193854D01*
X160240485Y-62445809D01*
X160462854Y-62445809D01*
X160464970Y-62475583D01*
X160478318Y-62502280D01*
X160500868Y-62521837D01*
X160529185Y-62531276D01*
X160558959Y-62529160D01*
X160572965Y-62523801D01*
X160667542Y-62475072D01*
X160676492Y-62471365D01*
X160679452Y-62468935D01*
X160680894Y-62468193D01*
X160682218Y-62466666D01*
X160688085Y-62461852D01*
X160748301Y-62400440D01*
X160749305Y-63094067D01*
X160523829Y-63094633D01*
X160496252Y-63106056D01*
X160475146Y-63127162D01*
X160463723Y-63154739D01*
X160463723Y-63184587D01*
X160475146Y-63212164D01*
X160496252Y-63233270D01*
X160523829Y-63244693D01*
X160538753Y-63246163D01*
X161125105Y-63244693D01*
X161152682Y-63233270D01*
X161173788Y-63212164D01*
X161185211Y-63184587D01*
X161185211Y-63154739D01*
X161173788Y-63127162D01*
X161153747Y-63107121D01*
X161416104Y-63107121D01*
X161416104Y-63136969D01*
X161427527Y-63164546D01*
X161427531Y-63164550D01*
X161437040Y-63176138D01*
X161496251Y-63233270D01*
X161507674Y-63238001D01*
X161523829Y-63244693D01*
X161553677Y-63244693D01*
X161581254Y-63233270D01*
X161592847Y-63223757D01*
X161649979Y-63164546D01*
X161661401Y-63136969D01*
X161661401Y-63122760D01*
X161661402Y-63107120D01*
X161649979Y-63079543D01*
X161640466Y-63067951D01*
X161581255Y-63010817D01*
X161553678Y-62999394D01*
X161553677Y-62999394D01*
X161523829Y-62999394D01*
X161515752Y-63002739D01*
X161496252Y-63010816D01*
X161496251Y-63010817D01*
X161484659Y-63020331D01*
X161427526Y-63079543D01*
X161416104Y-63107121D01*
X161153747Y-63107121D01*
X161152682Y-63106056D01*
X161125105Y-63094633D01*
X161110181Y-63093163D01*
X160900856Y-63093687D01*
X160899918Y-62445809D01*
X161891425Y-62445809D01*
X161893541Y-62475583D01*
X161906889Y-62502280D01*
X161929439Y-62521837D01*
X161957756Y-62531276D01*
X161987530Y-62529160D01*
X162001536Y-62523801D01*
X162096113Y-62475072D01*
X162105063Y-62471365D01*
X162108023Y-62468935D01*
X162109465Y-62468193D01*
X162110789Y-62466666D01*
X162116656Y-62461852D01*
X162176872Y-62400440D01*
X162177876Y-63094067D01*
X161952400Y-63094633D01*
X161924823Y-63106056D01*
X161903717Y-63127162D01*
X161892294Y-63154739D01*
X161892294Y-63184587D01*
X161903717Y-63212164D01*
X161924823Y-63233270D01*
X161952400Y-63244693D01*
X161967324Y-63246163D01*
X162553676Y-63244693D01*
X162581253Y-63233270D01*
X162602359Y-63212164D01*
X162613782Y-63184587D01*
X162613782Y-63154739D01*
X162602359Y-63127162D01*
X162581253Y-63106056D01*
X162553676Y-63094633D01*
X162538752Y-63093163D01*
X162329427Y-63093687D01*
X162328100Y-62176851D01*
X162329538Y-62169583D01*
X162328078Y-62162287D01*
X162328068Y-62154739D01*
X162325169Y-62147741D01*
X162323684Y-62140314D01*
X162319512Y-62134084D01*
X162316645Y-62127162D01*
X162311291Y-62121808D01*
X162307075Y-62115512D01*
X162300835Y-62111352D01*
X162295539Y-62106056D01*
X162288544Y-62103158D01*
X162282240Y-62098956D01*
X162274886Y-62097501D01*
X162267962Y-62094633D01*
X162260388Y-62094633D01*
X162252958Y-62093163D01*
X162245608Y-62094633D01*
X162238114Y-62094633D01*
X162231116Y-62097531D01*
X162223689Y-62099017D01*
X162217460Y-62103188D01*
X162210537Y-62106056D01*
X162205182Y-62111410D01*
X162198888Y-62115626D01*
X162189481Y-62127111D01*
X162189431Y-62127162D01*
X162189421Y-62127184D01*
X162189386Y-62127228D01*
X162102801Y-62259348D01*
X162020313Y-62343474D01*
X161920421Y-62394942D01*
X161900864Y-62417492D01*
X161891425Y-62445809D01*
X160899918Y-62445809D01*
X160899529Y-62176851D01*
X160900967Y-62169583D01*
X160899507Y-62162287D01*
X160899497Y-62154739D01*
X160896598Y-62147741D01*
X160895113Y-62140314D01*
X160890941Y-62134084D01*
X160888074Y-62127162D01*
X160882720Y-62121808D01*
X160878504Y-62115512D01*
X160872264Y-62111352D01*
X160866968Y-62106056D01*
X160859973Y-62103158D01*
X160853669Y-62098956D01*
X160846315Y-62097501D01*
X160839391Y-62094633D01*
X160831817Y-62094633D01*
X160824387Y-62093163D01*
X160817037Y-62094633D01*
X160809543Y-62094633D01*
X160802545Y-62097531D01*
X160795118Y-62099017D01*
X160788889Y-62103188D01*
X160781966Y-62106056D01*
X160776611Y-62111410D01*
X160770317Y-62115626D01*
X160760910Y-62127111D01*
X160760860Y-62127162D01*
X160760850Y-62127184D01*
X160760815Y-62127228D01*
X160674230Y-62259348D01*
X160591742Y-62343474D01*
X160491850Y-62394942D01*
X160472293Y-62417492D01*
X160462854Y-62445809D01*
X160240485Y-62445809D01*
X160328937Y-62179232D01*
X160326821Y-62149458D01*
X160313472Y-62122761D01*
X160290923Y-62103203D01*
X160262606Y-62093764D01*
X160232832Y-62095881D01*
X160206135Y-62109229D01*
X160186578Y-62131779D01*
X160180464Y-62145472D01*
X159920139Y-62930040D01*
X159652832Y-62131778D01*
X159633275Y-62109229D01*
X159606578Y-62095880D01*
X159576804Y-62093764D01*
X159548487Y-62103203D01*
X159525938Y-62122760D01*
X159512589Y-62149457D01*
X159510473Y-62179231D01*
X158709020Y-62179231D01*
X158709020Y-62154739D01*
X158697597Y-62127162D01*
X158676491Y-62106056D01*
X158648914Y-62094633D01*
X158633990Y-62093163D01*
X158047638Y-62094633D01*
X158020061Y-62106056D01*
X157998955Y-62127162D01*
X157987532Y-62154739D01*
X157819247Y-62154739D01*
X157814731Y-62150822D01*
X157801038Y-62144708D01*
X157658433Y-62098576D01*
X157648914Y-62094633D01*
X157645075Y-62094254D01*
X157643558Y-62093764D01*
X157641544Y-62093907D01*
X157633990Y-62093163D01*
X157407605Y-62094478D01*
X157405463Y-62093764D01*
X157394327Y-62094555D01*
X157380971Y-62094633D01*
X157378430Y-62095685D01*
X157375689Y-62095880D01*
X157361683Y-62101239D01*
X157267106Y-62149967D01*
X157258155Y-62153675D01*
X157255194Y-62156104D01*
X157253754Y-62156847D01*
X157252429Y-62158373D01*
X157246563Y-62163189D01*
X157199193Y-62212282D01*
X157192603Y-62217998D01*
X157190584Y-62221204D01*
X157189431Y-62222400D01*
X157188659Y-62224262D01*
X157184614Y-62230689D01*
X157143046Y-62316403D01*
X157141812Y-62317638D01*
X157138087Y-62326629D01*
X157131636Y-62339933D01*
X157131441Y-62342674D01*
X157130389Y-62345215D01*
X157128919Y-62360139D01*
X156423603Y-62360139D01*
X156423438Y-62245938D01*
X156839390Y-62244693D01*
X156866967Y-62233270D01*
X156888073Y-62212164D01*
X156899496Y-62184587D01*
X156899496Y-62154739D01*
X156888073Y-62127162D01*
X156866967Y-62106056D01*
X156839390Y-62094633D01*
X156824466Y-62093163D01*
X156333352Y-62094633D01*
X156305775Y-62106056D01*
X156284669Y-62127162D01*
X156273246Y-62154739D01*
X156271776Y-62169663D01*
X156089972Y-62169663D01*
X156089972Y-62154739D01*
X156078549Y-62127162D01*
X156057443Y-62106056D01*
X156029866Y-62094633D01*
X156014942Y-62093163D01*
X155428590Y-62094633D01*
X155401013Y-62106056D01*
X155379907Y-62127162D01*
X155368484Y-62154739D01*
X154344260Y-62154739D01*
X154343157Y-62153675D01*
X154341294Y-62152903D01*
X154334868Y-62148858D01*
X154249153Y-62107290D01*
X154247919Y-62106056D01*
X154238927Y-62102331D01*
X154225624Y-62095880D01*
X154222882Y-62095685D01*
X154220342Y-62094633D01*
X154205418Y-62093163D01*
X153809542Y-62094633D01*
X153781965Y-62106056D01*
X153760859Y-62127162D01*
X153749436Y-62154739D01*
X153747966Y-62169663D01*
X153423377Y-62169663D01*
X153423888Y-62158048D01*
X153423307Y-62156451D01*
X153423305Y-62154739D01*
X153418224Y-62142474D01*
X153413687Y-62129996D01*
X153412534Y-62128737D01*
X153411882Y-62127162D01*
X153402498Y-62117778D01*
X153393528Y-62107983D01*
X153391981Y-62107261D01*
X153390776Y-62106056D01*
X153378516Y-62100977D01*
X153366480Y-62095361D01*
X153364775Y-62095286D01*
X153363199Y-62094633D01*
X153349921Y-62094633D01*
X153336660Y-62094050D01*
X153335057Y-62094633D01*
X153333351Y-62094633D01*
X153321082Y-62099715D01*
X153308609Y-62104251D01*
X153307351Y-62105402D01*
X153305774Y-62106056D01*
X153296385Y-62115444D01*
X153286595Y-62124410D01*
X153285396Y-62126433D01*
X153284668Y-62127162D01*
X153283978Y-62128827D01*
X153278952Y-62137312D01*
X153015409Y-62704753D01*
X152750038Y-62138805D01*
X152745216Y-62127162D01*
X152744017Y-62125963D01*
X152743289Y-62124410D01*
X152733493Y-62115439D01*
X152724110Y-62106056D01*
X152722534Y-62105403D01*
X152721276Y-62104251D01*
X152708797Y-62099713D01*
X152696533Y-62094633D01*
X152694827Y-62094633D01*
X152693224Y-62094050D01*
X152679963Y-62094633D01*
X152666685Y-62094633D01*
X152665108Y-62095286D01*
X152663404Y-62095361D01*
X152651367Y-62100977D01*
X152639108Y-62106056D01*
X152637902Y-62107261D01*
X152636356Y-62107983D01*
X152627385Y-62117778D01*
X152618002Y-62127162D01*
X152617349Y-62128737D01*
X152616197Y-62129996D01*
X152611659Y-62142474D01*
X152606579Y-62154739D01*
X152606348Y-62157078D01*
X152605996Y-62158048D01*
X152606075Y-62159852D01*
X152605109Y-62169663D01*
X152094087Y-62169663D01*
X152089102Y-62154775D01*
X152088725Y-62149458D01*
X152084478Y-62140965D01*
X152081402Y-62131778D01*
X152077819Y-62127646D01*
X152075376Y-62122761D01*
X152068132Y-62116477D01*
X152061845Y-62109229D01*
X152056956Y-62106784D01*
X152052827Y-62103203D01*
X152043727Y-62100169D01*
X152035148Y-62095880D01*
X152029695Y-62095492D01*
X152024510Y-62093764D01*
X152014944Y-62094444D01*
X152005374Y-62093764D01*
X152000185Y-62095493D01*
X151994736Y-62095881D01*
X151986161Y-62100168D01*
X151977057Y-62103203D01*
X151972926Y-62106785D01*
X151968039Y-62109229D01*
X151961755Y-62116474D01*
X151954508Y-62122760D01*
X151952062Y-62127650D01*
X151948482Y-62131779D01*
X151942368Y-62145472D01*
X151704189Y-62863295D01*
X151701817Y-62869024D01*
X151701817Y-62870446D01*
X151605710Y-63160095D01*
X149662857Y-63160095D01*
X149662297Y-62773786D01*
X150511341Y-62773786D01*
X150511341Y-62803634D01*
X150522764Y-62831211D01*
X150543870Y-62852317D01*
X150571447Y-62863740D01*
X150586371Y-62865210D01*
X151363200Y-62863740D01*
X151390777Y-62852317D01*
X151411883Y-62831211D01*
X151423306Y-62803634D01*
X151423306Y-62773786D01*
X151411883Y-62746209D01*
X151390777Y-62725103D01*
X151363200Y-62713680D01*
X151348276Y-62712210D01*
X150571447Y-62713680D01*
X150543870Y-62725103D01*
X150522764Y-62746209D01*
X150511341Y-62773786D01*
X149662297Y-62773786D01*
X149662291Y-62769690D01*
X149955446Y-62768601D01*
X149957755Y-62769371D01*
X149969306Y-62768550D01*
X149982247Y-62768502D01*
X149984787Y-62767449D01*
X149987529Y-62767255D01*
X150001535Y-62761896D01*
X150096112Y-62713167D01*
X150105062Y-62709460D01*
X150108022Y-62707030D01*
X150109464Y-62706288D01*
X150110788Y-62704761D01*
X150116655Y-62699947D01*
X150164030Y-62650847D01*
X150170615Y-62645137D01*
X150172631Y-62641933D01*
X150173787Y-62640736D01*
X150174559Y-62638870D01*
X150178604Y-62632446D01*
X150220171Y-62546731D01*
X150221406Y-62545497D01*
X150225130Y-62536505D01*
X150231582Y-62523202D01*
X150231776Y-62520460D01*
X150232829Y-62517920D01*
X150234299Y-62502996D01*
X150233074Y-62371577D01*
X150233698Y-62369707D01*
X150232960Y-62359329D01*
X150232829Y-62345215D01*
X150231776Y-62342674D01*
X150231582Y-62339933D01*
X150226223Y-62325927D01*
X150177494Y-62231350D01*
X150173787Y-62222399D01*
X150171357Y-62219438D01*
X150170615Y-62217998D01*
X150169088Y-62216673D01*
X150164273Y-62210807D01*
X150115179Y-62163437D01*
X150109464Y-62156847D01*
X150106257Y-62154828D01*
X150105062Y-62153675D01*
X150103199Y-62152903D01*
X150096773Y-62148858D01*
X150011058Y-62107290D01*
X150009824Y-62106056D01*
X150000832Y-62102331D01*
X149987529Y-62095880D01*
X149984787Y-62095685D01*
X149982247Y-62094633D01*
X149967323Y-62093163D01*
X149571447Y-62094633D01*
X149543870Y-62106056D01*
X149522764Y-62127162D01*
X149511341Y-62154739D01*
X149509871Y-62169663D01*
X149073749Y-62169663D01*
X149068478Y-62164495D01*
X149061845Y-62156847D01*
X149058585Y-62154794D01*
X149057443Y-62153675D01*
X149055580Y-62152903D01*
X149049154Y-62148858D01*
X148963439Y-62107290D01*
X148962205Y-62106056D01*
X148953213Y-62102331D01*
X148939910Y-62095880D01*
X148937168Y-62095685D01*
X148934628Y-62094633D01*
X148919704Y-62093163D01*
X148740833Y-62094443D01*
X148738796Y-62093764D01*
X148727941Y-62094535D01*
X148714304Y-62094633D01*
X148711763Y-62095685D01*
X148709022Y-62095880D01*
X148695016Y-62101239D01*
X148600438Y-62149967D01*
X148591489Y-62153675D01*
X148588528Y-62156104D01*
X148587087Y-62156847D01*
X148585762Y-62158373D01*
X148579896Y-62163188D01*
X148491421Y-62253419D01*
X148487352Y-62255861D01*
X148482170Y-62262853D01*
X148475145Y-62270019D01*
X148472968Y-62275273D01*
X148469582Y-62279844D01*
X148464536Y-62293966D01*
X148419336Y-62480266D01*
X148416103Y-62488072D01*
X148415187Y-62497366D01*
X148414724Y-62499277D01*
X148414889Y-62500390D01*
X148414633Y-62502996D01*
X148303522Y-62502996D01*
X148303522Y-61982052D01*
X162724893Y-61982052D01*
X162724893Y-63357274D01*
G37*
X159083333Y-78704663D02*
X158750000Y-78228472D01*
X158511905Y-78704663D02*
X158511905Y-77704663D01*
X158511905Y-77704663D02*
X158892857Y-77704663D01*
X158892857Y-77704663D02*
X158988095Y-77752282D01*
X158988095Y-77752282D02*
X159035714Y-77799901D01*
X159035714Y-77799901D02*
X159083333Y-77895139D01*
X159083333Y-77895139D02*
X159083333Y-78037996D01*
X159083333Y-78037996D02*
X159035714Y-78133234D01*
X159035714Y-78133234D02*
X158988095Y-78180853D01*
X158988095Y-78180853D02*
X158892857Y-78228472D01*
X158892857Y-78228472D02*
X158511905Y-78228472D01*
X159940476Y-78037996D02*
X159940476Y-78704663D01*
X159702381Y-77657044D02*
X159464286Y-78371329D01*
X159464286Y-78371329D02*
X160083333Y-78371329D01*
X170633333Y-79954663D02*
X170300000Y-79478472D01*
X170061905Y-79954663D02*
X170061905Y-78954663D01*
X170061905Y-78954663D02*
X170442857Y-78954663D01*
X170442857Y-78954663D02*
X170538095Y-79002282D01*
X170538095Y-79002282D02*
X170585714Y-79049901D01*
X170585714Y-79049901D02*
X170633333Y-79145139D01*
X170633333Y-79145139D02*
X170633333Y-79287996D01*
X170633333Y-79287996D02*
X170585714Y-79383234D01*
X170585714Y-79383234D02*
X170538095Y-79430853D01*
X170538095Y-79430853D02*
X170442857Y-79478472D01*
X170442857Y-79478472D02*
X170061905Y-79478472D01*
X171204762Y-79383234D02*
X171109524Y-79335615D01*
X171109524Y-79335615D02*
X171061905Y-79287996D01*
X171061905Y-79287996D02*
X171014286Y-79192758D01*
X171014286Y-79192758D02*
X171014286Y-79145139D01*
X171014286Y-79145139D02*
X171061905Y-79049901D01*
X171061905Y-79049901D02*
X171109524Y-79002282D01*
X171109524Y-79002282D02*
X171204762Y-78954663D01*
X171204762Y-78954663D02*
X171395238Y-78954663D01*
X171395238Y-78954663D02*
X171490476Y-79002282D01*
X171490476Y-79002282D02*
X171538095Y-79049901D01*
X171538095Y-79049901D02*
X171585714Y-79145139D01*
X171585714Y-79145139D02*
X171585714Y-79192758D01*
X171585714Y-79192758D02*
X171538095Y-79287996D01*
X171538095Y-79287996D02*
X171490476Y-79335615D01*
X171490476Y-79335615D02*
X171395238Y-79383234D01*
X171395238Y-79383234D02*
X171204762Y-79383234D01*
X171204762Y-79383234D02*
X171109524Y-79430853D01*
X171109524Y-79430853D02*
X171061905Y-79478472D01*
X171061905Y-79478472D02*
X171014286Y-79573710D01*
X171014286Y-79573710D02*
X171014286Y-79764186D01*
X171014286Y-79764186D02*
X171061905Y-79859424D01*
X171061905Y-79859424D02*
X171109524Y-79907044D01*
X171109524Y-79907044D02*
X171204762Y-79954663D01*
X171204762Y-79954663D02*
X171395238Y-79954663D01*
X171395238Y-79954663D02*
X171490476Y-79907044D01*
X171490476Y-79907044D02*
X171538095Y-79859424D01*
X171538095Y-79859424D02*
X171585714Y-79764186D01*
X171585714Y-79764186D02*
X171585714Y-79573710D01*
X171585714Y-79573710D02*
X171538095Y-79478472D01*
X171538095Y-79478472D02*
X171490476Y-79430853D01*
X171490476Y-79430853D02*
X171395238Y-79383234D01*
X172666666Y-90254663D02*
X172666666Y-90968948D01*
X172666666Y-90968948D02*
X172619047Y-91111805D01*
X172619047Y-91111805D02*
X172523809Y-91207044D01*
X172523809Y-91207044D02*
X172380952Y-91254663D01*
X172380952Y-91254663D02*
X172285714Y-91254663D01*
X173142857Y-91254663D02*
X173142857Y-90254663D01*
X173142857Y-90254663D02*
X173523809Y-90254663D01*
X173523809Y-90254663D02*
X173619047Y-90302282D01*
X173619047Y-90302282D02*
X173666666Y-90349901D01*
X173666666Y-90349901D02*
X173714285Y-90445139D01*
X173714285Y-90445139D02*
X173714285Y-90587996D01*
X173714285Y-90587996D02*
X173666666Y-90683234D01*
X173666666Y-90683234D02*
X173619047Y-90730853D01*
X173619047Y-90730853D02*
X173523809Y-90778472D01*
X173523809Y-90778472D02*
X173142857Y-90778472D01*
X174571428Y-90587996D02*
X174571428Y-91254663D01*
X174333333Y-90207044D02*
X174095238Y-90921329D01*
X174095238Y-90921329D02*
X174714285Y-90921329D01*
X175571429Y-64954663D02*
X175904762Y-65954663D01*
X175904762Y-65954663D02*
X176238095Y-64954663D01*
X177095238Y-65954663D02*
X176523810Y-65954663D01*
X176809524Y-65954663D02*
X176809524Y-64954663D01*
X176809524Y-64954663D02*
X176714286Y-65097520D01*
X176714286Y-65097520D02*
X176619048Y-65192758D01*
X176619048Y-65192758D02*
X176523810Y-65240377D01*
X177523810Y-65573710D02*
X178285715Y-65573710D01*
X157616666Y-85304663D02*
X157616666Y-86018948D01*
X157616666Y-86018948D02*
X157569047Y-86161805D01*
X157569047Y-86161805D02*
X157473809Y-86257044D01*
X157473809Y-86257044D02*
X157330952Y-86304663D01*
X157330952Y-86304663D02*
X157235714Y-86304663D01*
X158092857Y-86304663D02*
X158092857Y-85304663D01*
X158092857Y-85304663D02*
X158473809Y-85304663D01*
X158473809Y-85304663D02*
X158569047Y-85352282D01*
X158569047Y-85352282D02*
X158616666Y-85399901D01*
X158616666Y-85399901D02*
X158664285Y-85495139D01*
X158664285Y-85495139D02*
X158664285Y-85637996D01*
X158664285Y-85637996D02*
X158616666Y-85733234D01*
X158616666Y-85733234D02*
X158569047Y-85780853D01*
X158569047Y-85780853D02*
X158473809Y-85828472D01*
X158473809Y-85828472D02*
X158092857Y-85828472D01*
X159616666Y-86304663D02*
X159045238Y-86304663D01*
X159330952Y-86304663D02*
X159330952Y-85304663D01*
X159330952Y-85304663D02*
X159235714Y-85447520D01*
X159235714Y-85447520D02*
X159140476Y-85542758D01*
X159140476Y-85542758D02*
X159045238Y-85590377D01*
X158033333Y-82254663D02*
X157700000Y-81778472D01*
X157461905Y-82254663D02*
X157461905Y-81254663D01*
X157461905Y-81254663D02*
X157842857Y-81254663D01*
X157842857Y-81254663D02*
X157938095Y-81302282D01*
X157938095Y-81302282D02*
X157985714Y-81349901D01*
X157985714Y-81349901D02*
X158033333Y-81445139D01*
X158033333Y-81445139D02*
X158033333Y-81587996D01*
X158033333Y-81587996D02*
X157985714Y-81683234D01*
X157985714Y-81683234D02*
X157938095Y-81730853D01*
X157938095Y-81730853D02*
X157842857Y-81778472D01*
X157842857Y-81778472D02*
X157461905Y-81778472D01*
X158509524Y-82254663D02*
X158700000Y-82254663D01*
X158700000Y-82254663D02*
X158795238Y-82207044D01*
X158795238Y-82207044D02*
X158842857Y-82159424D01*
X158842857Y-82159424D02*
X158938095Y-82016567D01*
X158938095Y-82016567D02*
X158985714Y-81826091D01*
X158985714Y-81826091D02*
X158985714Y-81445139D01*
X158985714Y-81445139D02*
X158938095Y-81349901D01*
X158938095Y-81349901D02*
X158890476Y-81302282D01*
X158890476Y-81302282D02*
X158795238Y-81254663D01*
X158795238Y-81254663D02*
X158604762Y-81254663D01*
X158604762Y-81254663D02*
X158509524Y-81302282D01*
X158509524Y-81302282D02*
X158461905Y-81349901D01*
X158461905Y-81349901D02*
X158414286Y-81445139D01*
X158414286Y-81445139D02*
X158414286Y-81683234D01*
X158414286Y-81683234D02*
X158461905Y-81778472D01*
X158461905Y-81778472D02*
X158509524Y-81826091D01*
X158509524Y-81826091D02*
X158604762Y-81873710D01*
X158604762Y-81873710D02*
X158795238Y-81873710D01*
X158795238Y-81873710D02*
X158890476Y-81826091D01*
X158890476Y-81826091D02*
X158938095Y-81778472D01*
X158938095Y-81778472D02*
X158985714Y-81683234D01*
X169225714Y-99524663D02*
X169225714Y-98524663D01*
X169225714Y-98524663D02*
X169559047Y-99238948D01*
X169559047Y-99238948D02*
X169892380Y-98524663D01*
X169892380Y-98524663D02*
X169892380Y-99524663D01*
X170511428Y-99524663D02*
X170416190Y-99477044D01*
X170416190Y-99477044D02*
X170368571Y-99429424D01*
X170368571Y-99429424D02*
X170320952Y-99334186D01*
X170320952Y-99334186D02*
X170320952Y-99048472D01*
X170320952Y-99048472D02*
X170368571Y-98953234D01*
X170368571Y-98953234D02*
X170416190Y-98905615D01*
X170416190Y-98905615D02*
X170511428Y-98857996D01*
X170511428Y-98857996D02*
X170654285Y-98857996D01*
X170654285Y-98857996D02*
X170749523Y-98905615D01*
X170749523Y-98905615D02*
X170797142Y-98953234D01*
X170797142Y-98953234D02*
X170844761Y-99048472D01*
X170844761Y-99048472D02*
X170844761Y-99334186D01*
X170844761Y-99334186D02*
X170797142Y-99429424D01*
X170797142Y-99429424D02*
X170749523Y-99477044D01*
X170749523Y-99477044D02*
X170654285Y-99524663D01*
X170654285Y-99524663D02*
X170511428Y-99524663D01*
X171130476Y-98857996D02*
X171511428Y-98857996D01*
X171273333Y-98524663D02*
X171273333Y-99381805D01*
X171273333Y-99381805D02*
X171320952Y-99477044D01*
X171320952Y-99477044D02*
X171416190Y-99524663D01*
X171416190Y-99524663D02*
X171511428Y-99524663D01*
X171987619Y-99524663D02*
X171892381Y-99477044D01*
X171892381Y-99477044D02*
X171844762Y-99429424D01*
X171844762Y-99429424D02*
X171797143Y-99334186D01*
X171797143Y-99334186D02*
X171797143Y-99048472D01*
X171797143Y-99048472D02*
X171844762Y-98953234D01*
X171844762Y-98953234D02*
X171892381Y-98905615D01*
X171892381Y-98905615D02*
X171987619Y-98857996D01*
X171987619Y-98857996D02*
X172130476Y-98857996D01*
X172130476Y-98857996D02*
X172225714Y-98905615D01*
X172225714Y-98905615D02*
X172273333Y-98953234D01*
X172273333Y-98953234D02*
X172320952Y-99048472D01*
X172320952Y-99048472D02*
X172320952Y-99334186D01*
X172320952Y-99334186D02*
X172273333Y-99429424D01*
X172273333Y-99429424D02*
X172225714Y-99477044D01*
X172225714Y-99477044D02*
X172130476Y-99524663D01*
X172130476Y-99524663D02*
X171987619Y-99524663D01*
X172749524Y-99524663D02*
X172749524Y-98857996D01*
X172749524Y-99048472D02*
X172797143Y-98953234D01*
X172797143Y-98953234D02*
X172844762Y-98905615D01*
X172844762Y-98905615D02*
X172940000Y-98857996D01*
X172940000Y-98857996D02*
X173035238Y-98857996D01*
X174463810Y-99000853D02*
X174606667Y-99048472D01*
X174606667Y-99048472D02*
X174654286Y-99096091D01*
X174654286Y-99096091D02*
X174701905Y-99191329D01*
X174701905Y-99191329D02*
X174701905Y-99334186D01*
X174701905Y-99334186D02*
X174654286Y-99429424D01*
X174654286Y-99429424D02*
X174606667Y-99477044D01*
X174606667Y-99477044D02*
X174511429Y-99524663D01*
X174511429Y-99524663D02*
X174130477Y-99524663D01*
X174130477Y-99524663D02*
X174130477Y-98524663D01*
X174130477Y-98524663D02*
X174463810Y-98524663D01*
X174463810Y-98524663D02*
X174559048Y-98572282D01*
X174559048Y-98572282D02*
X174606667Y-98619901D01*
X174606667Y-98619901D02*
X174654286Y-98715139D01*
X174654286Y-98715139D02*
X174654286Y-98810377D01*
X174654286Y-98810377D02*
X174606667Y-98905615D01*
X174606667Y-98905615D02*
X174559048Y-98953234D01*
X174559048Y-98953234D02*
X174463810Y-99000853D01*
X174463810Y-99000853D02*
X174130477Y-99000853D01*
X159326046Y-71954663D02*
X158992713Y-71478472D01*
X158754618Y-71954663D02*
X158754618Y-70954663D01*
X158754618Y-70954663D02*
X159135570Y-70954663D01*
X159135570Y-70954663D02*
X159230808Y-71002282D01*
X159230808Y-71002282D02*
X159278427Y-71049901D01*
X159278427Y-71049901D02*
X159326046Y-71145139D01*
X159326046Y-71145139D02*
X159326046Y-71287996D01*
X159326046Y-71287996D02*
X159278427Y-71383234D01*
X159278427Y-71383234D02*
X159230808Y-71430853D01*
X159230808Y-71430853D02*
X159135570Y-71478472D01*
X159135570Y-71478472D02*
X158754618Y-71478472D01*
X160230808Y-70954663D02*
X159754618Y-70954663D01*
X159754618Y-70954663D02*
X159706999Y-71430853D01*
X159706999Y-71430853D02*
X159754618Y-71383234D01*
X159754618Y-71383234D02*
X159849856Y-71335615D01*
X159849856Y-71335615D02*
X160087951Y-71335615D01*
X160087951Y-71335615D02*
X160183189Y-71383234D01*
X160183189Y-71383234D02*
X160230808Y-71430853D01*
X160230808Y-71430853D02*
X160278427Y-71526091D01*
X160278427Y-71526091D02*
X160278427Y-71764186D01*
X160278427Y-71764186D02*
X160230808Y-71859424D01*
X160230808Y-71859424D02*
X160183189Y-71907044D01*
X160183189Y-71907044D02*
X160087951Y-71954663D01*
X160087951Y-71954663D02*
X159849856Y-71954663D01*
X159849856Y-71954663D02*
X159754618Y-71907044D01*
X159754618Y-71907044D02*
X159706999Y-71859424D01*
X166533333Y-71959424D02*
X166485714Y-72007044D01*
X166485714Y-72007044D02*
X166342857Y-72054663D01*
X166342857Y-72054663D02*
X166247619Y-72054663D01*
X166247619Y-72054663D02*
X166104762Y-72007044D01*
X166104762Y-72007044D02*
X166009524Y-71911805D01*
X166009524Y-71911805D02*
X165961905Y-71816567D01*
X165961905Y-71816567D02*
X165914286Y-71626091D01*
X165914286Y-71626091D02*
X165914286Y-71483234D01*
X165914286Y-71483234D02*
X165961905Y-71292758D01*
X165961905Y-71292758D02*
X166009524Y-71197520D01*
X166009524Y-71197520D02*
X166104762Y-71102282D01*
X166104762Y-71102282D02*
X166247619Y-71054663D01*
X166247619Y-71054663D02*
X166342857Y-71054663D01*
X166342857Y-71054663D02*
X166485714Y-71102282D01*
X166485714Y-71102282D02*
X166533333Y-71149901D01*
X167485714Y-72054663D02*
X166914286Y-72054663D01*
X167200000Y-72054663D02*
X167200000Y-71054663D01*
X167200000Y-71054663D02*
X167104762Y-71197520D01*
X167104762Y-71197520D02*
X167009524Y-71292758D01*
X167009524Y-71292758D02*
X166914286Y-71340377D01*
X163583333Y-72024663D02*
X163250000Y-71548472D01*
X163011905Y-72024663D02*
X163011905Y-71024663D01*
X163011905Y-71024663D02*
X163392857Y-71024663D01*
X163392857Y-71024663D02*
X163488095Y-71072282D01*
X163488095Y-71072282D02*
X163535714Y-71119901D01*
X163535714Y-71119901D02*
X163583333Y-71215139D01*
X163583333Y-71215139D02*
X163583333Y-71357996D01*
X163583333Y-71357996D02*
X163535714Y-71453234D01*
X163535714Y-71453234D02*
X163488095Y-71500853D01*
X163488095Y-71500853D02*
X163392857Y-71548472D01*
X163392857Y-71548472D02*
X163011905Y-71548472D01*
X164440476Y-71024663D02*
X164250000Y-71024663D01*
X164250000Y-71024663D02*
X164154762Y-71072282D01*
X164154762Y-71072282D02*
X164107143Y-71119901D01*
X164107143Y-71119901D02*
X164011905Y-71262758D01*
X164011905Y-71262758D02*
X163964286Y-71453234D01*
X163964286Y-71453234D02*
X163964286Y-71834186D01*
X163964286Y-71834186D02*
X164011905Y-71929424D01*
X164011905Y-71929424D02*
X164059524Y-71977044D01*
X164059524Y-71977044D02*
X164154762Y-72024663D01*
X164154762Y-72024663D02*
X164345238Y-72024663D01*
X164345238Y-72024663D02*
X164440476Y-71977044D01*
X164440476Y-71977044D02*
X164488095Y-71929424D01*
X164488095Y-71929424D02*
X164535714Y-71834186D01*
X164535714Y-71834186D02*
X164535714Y-71596091D01*
X164535714Y-71596091D02*
X164488095Y-71500853D01*
X164488095Y-71500853D02*
X164440476Y-71453234D01*
X164440476Y-71453234D02*
X164345238Y-71405615D01*
X164345238Y-71405615D02*
X164154762Y-71405615D01*
X164154762Y-71405615D02*
X164059524Y-71453234D01*
X164059524Y-71453234D02*
X164011905Y-71500853D01*
X164011905Y-71500853D02*
X163964286Y-71596091D01*
X151220952Y-87803366D02*
X150649524Y-87803366D01*
X150935238Y-87803366D02*
X150935238Y-86803366D01*
X150935238Y-86803366D02*
X150840000Y-86946223D01*
X150840000Y-86946223D02*
X150744762Y-87041461D01*
X150744762Y-87041461D02*
X150649524Y-87089080D01*
X151601905Y-86898604D02*
X151649524Y-86850985D01*
X151649524Y-86850985D02*
X151744762Y-86803366D01*
X151744762Y-86803366D02*
X151982857Y-86803366D01*
X151982857Y-86803366D02*
X152078095Y-86850985D01*
X152078095Y-86850985D02*
X152125714Y-86898604D01*
X152125714Y-86898604D02*
X152173333Y-86993842D01*
X152173333Y-86993842D02*
X152173333Y-87089080D01*
X152173333Y-87089080D02*
X152125714Y-87231937D01*
X152125714Y-87231937D02*
X151554286Y-87803366D01*
X151554286Y-87803366D02*
X152173333Y-87803366D01*
X152459048Y-86803366D02*
X152792381Y-87803366D01*
X152792381Y-87803366D02*
X153125714Y-86803366D01*
X161226787Y-78704663D02*
X160893454Y-78228472D01*
X160655359Y-78704663D02*
X160655359Y-77704663D01*
X160655359Y-77704663D02*
X161036311Y-77704663D01*
X161036311Y-77704663D02*
X161131549Y-77752282D01*
X161131549Y-77752282D02*
X161179168Y-77799901D01*
X161179168Y-77799901D02*
X161226787Y-77895139D01*
X161226787Y-77895139D02*
X161226787Y-78037996D01*
X161226787Y-78037996D02*
X161179168Y-78133234D01*
X161179168Y-78133234D02*
X161131549Y-78180853D01*
X161131549Y-78180853D02*
X161036311Y-78228472D01*
X161036311Y-78228472D02*
X160655359Y-78228472D01*
X161560121Y-77704663D02*
X162179168Y-77704663D01*
X162179168Y-77704663D02*
X161845835Y-78085615D01*
X161845835Y-78085615D02*
X161988692Y-78085615D01*
X161988692Y-78085615D02*
X162083930Y-78133234D01*
X162083930Y-78133234D02*
X162131549Y-78180853D01*
X162131549Y-78180853D02*
X162179168Y-78276091D01*
X162179168Y-78276091D02*
X162179168Y-78514186D01*
X162179168Y-78514186D02*
X162131549Y-78609424D01*
X162131549Y-78609424D02*
X162083930Y-78657044D01*
X162083930Y-78657044D02*
X161988692Y-78704663D01*
X161988692Y-78704663D02*
X161702978Y-78704663D01*
X161702978Y-78704663D02*
X161607740Y-78657044D01*
X161607740Y-78657044D02*
X161560121Y-78609424D01*
X156787142Y-99474663D02*
X156787142Y-98474663D01*
X156787142Y-98474663D02*
X157120475Y-99188948D01*
X157120475Y-99188948D02*
X157453808Y-98474663D01*
X157453808Y-98474663D02*
X157453808Y-99474663D01*
X158072856Y-99474663D02*
X157977618Y-99427044D01*
X157977618Y-99427044D02*
X157929999Y-99379424D01*
X157929999Y-99379424D02*
X157882380Y-99284186D01*
X157882380Y-99284186D02*
X157882380Y-98998472D01*
X157882380Y-98998472D02*
X157929999Y-98903234D01*
X157929999Y-98903234D02*
X157977618Y-98855615D01*
X157977618Y-98855615D02*
X158072856Y-98807996D01*
X158072856Y-98807996D02*
X158215713Y-98807996D01*
X158215713Y-98807996D02*
X158310951Y-98855615D01*
X158310951Y-98855615D02*
X158358570Y-98903234D01*
X158358570Y-98903234D02*
X158406189Y-98998472D01*
X158406189Y-98998472D02*
X158406189Y-99284186D01*
X158406189Y-99284186D02*
X158358570Y-99379424D01*
X158358570Y-99379424D02*
X158310951Y-99427044D01*
X158310951Y-99427044D02*
X158215713Y-99474663D01*
X158215713Y-99474663D02*
X158072856Y-99474663D01*
X158691904Y-98807996D02*
X159072856Y-98807996D01*
X158834761Y-98474663D02*
X158834761Y-99331805D01*
X158834761Y-99331805D02*
X158882380Y-99427044D01*
X158882380Y-99427044D02*
X158977618Y-99474663D01*
X158977618Y-99474663D02*
X159072856Y-99474663D01*
X159549047Y-99474663D02*
X159453809Y-99427044D01*
X159453809Y-99427044D02*
X159406190Y-99379424D01*
X159406190Y-99379424D02*
X159358571Y-99284186D01*
X159358571Y-99284186D02*
X159358571Y-98998472D01*
X159358571Y-98998472D02*
X159406190Y-98903234D01*
X159406190Y-98903234D02*
X159453809Y-98855615D01*
X159453809Y-98855615D02*
X159549047Y-98807996D01*
X159549047Y-98807996D02*
X159691904Y-98807996D01*
X159691904Y-98807996D02*
X159787142Y-98855615D01*
X159787142Y-98855615D02*
X159834761Y-98903234D01*
X159834761Y-98903234D02*
X159882380Y-98998472D01*
X159882380Y-98998472D02*
X159882380Y-99284186D01*
X159882380Y-99284186D02*
X159834761Y-99379424D01*
X159834761Y-99379424D02*
X159787142Y-99427044D01*
X159787142Y-99427044D02*
X159691904Y-99474663D01*
X159691904Y-99474663D02*
X159549047Y-99474663D01*
X160310952Y-99474663D02*
X160310952Y-98807996D01*
X160310952Y-98998472D02*
X160358571Y-98903234D01*
X160358571Y-98903234D02*
X160406190Y-98855615D01*
X160406190Y-98855615D02*
X160501428Y-98807996D01*
X160501428Y-98807996D02*
X160596666Y-98807996D01*
X161644286Y-99188948D02*
X162120476Y-99188948D01*
X161549048Y-99474663D02*
X161882381Y-98474663D01*
X161882381Y-98474663D02*
X162215714Y-99474663D01*
X147809523Y-74754663D02*
X147333333Y-74754663D01*
X147333333Y-74754663D02*
X147285714Y-75230853D01*
X147285714Y-75230853D02*
X147333333Y-75183234D01*
X147333333Y-75183234D02*
X147428571Y-75135615D01*
X147428571Y-75135615D02*
X147666666Y-75135615D01*
X147666666Y-75135615D02*
X147761904Y-75183234D01*
X147761904Y-75183234D02*
X147809523Y-75230853D01*
X147809523Y-75230853D02*
X147857142Y-75326091D01*
X147857142Y-75326091D02*
X147857142Y-75564186D01*
X147857142Y-75564186D02*
X147809523Y-75659424D01*
X147809523Y-75659424D02*
X147761904Y-75707044D01*
X147761904Y-75707044D02*
X147666666Y-75754663D01*
X147666666Y-75754663D02*
X147428571Y-75754663D01*
X147428571Y-75754663D02*
X147333333Y-75707044D01*
X147333333Y-75707044D02*
X147285714Y-75659424D01*
X148142857Y-74754663D02*
X148476190Y-75754663D01*
X148476190Y-75754663D02*
X148809523Y-74754663D01*
X164360237Y-79329570D02*
X164360237Y-78059570D01*
X165690714Y-79208617D02*
X165630238Y-79269094D01*
X165630238Y-79269094D02*
X165448809Y-79329570D01*
X165448809Y-79329570D02*
X165327857Y-79329570D01*
X165327857Y-79329570D02*
X165146428Y-79269094D01*
X165146428Y-79269094D02*
X165025476Y-79148141D01*
X165025476Y-79148141D02*
X164964999Y-79027189D01*
X164964999Y-79027189D02*
X164904523Y-78785284D01*
X164904523Y-78785284D02*
X164904523Y-78603855D01*
X164904523Y-78603855D02*
X164964999Y-78361951D01*
X164964999Y-78361951D02*
X165025476Y-78240998D01*
X165025476Y-78240998D02*
X165146428Y-78120046D01*
X165146428Y-78120046D02*
X165327857Y-78059570D01*
X165327857Y-78059570D02*
X165448809Y-78059570D01*
X165448809Y-78059570D02*
X165630238Y-78120046D01*
X165630238Y-78120046D02*
X165690714Y-78180522D01*
X166900238Y-79329570D02*
X166174523Y-79329570D01*
X166537380Y-79329570D02*
X166537380Y-78059570D01*
X166537380Y-78059570D02*
X166416428Y-78240998D01*
X166416428Y-78240998D02*
X166295476Y-78361951D01*
X166295476Y-78361951D02*
X166174523Y-78422427D01*
X170733333Y-71492163D02*
X170400000Y-71015972D01*
X170161905Y-71492163D02*
X170161905Y-70492163D01*
X170161905Y-70492163D02*
X170542857Y-70492163D01*
X170542857Y-70492163D02*
X170638095Y-70539782D01*
X170638095Y-70539782D02*
X170685714Y-70587401D01*
X170685714Y-70587401D02*
X170733333Y-70682639D01*
X170733333Y-70682639D02*
X170733333Y-70825496D01*
X170733333Y-70825496D02*
X170685714Y-70920734D01*
X170685714Y-70920734D02*
X170638095Y-70968353D01*
X170638095Y-70968353D02*
X170542857Y-71015972D01*
X170542857Y-71015972D02*
X170161905Y-71015972D01*
X171066667Y-70492163D02*
X171733333Y-70492163D01*
X171733333Y-70492163D02*
X171304762Y-71492163D01*
X151238095Y-78902282D02*
X151142857Y-78854663D01*
X151142857Y-78854663D02*
X151000000Y-78854663D01*
X151000000Y-78854663D02*
X150857143Y-78902282D01*
X150857143Y-78902282D02*
X150761905Y-78997520D01*
X150761905Y-78997520D02*
X150714286Y-79092758D01*
X150714286Y-79092758D02*
X150666667Y-79283234D01*
X150666667Y-79283234D02*
X150666667Y-79426091D01*
X150666667Y-79426091D02*
X150714286Y-79616567D01*
X150714286Y-79616567D02*
X150761905Y-79711805D01*
X150761905Y-79711805D02*
X150857143Y-79807044D01*
X150857143Y-79807044D02*
X151000000Y-79854663D01*
X151000000Y-79854663D02*
X151095238Y-79854663D01*
X151095238Y-79854663D02*
X151238095Y-79807044D01*
X151238095Y-79807044D02*
X151285714Y-79759424D01*
X151285714Y-79759424D02*
X151285714Y-79426091D01*
X151285714Y-79426091D02*
X151095238Y-79426091D01*
X151714286Y-79854663D02*
X151714286Y-78854663D01*
X151714286Y-78854663D02*
X152285714Y-79854663D01*
X152285714Y-79854663D02*
X152285714Y-78854663D01*
X152761905Y-79854663D02*
X152761905Y-78854663D01*
X152761905Y-78854663D02*
X153000000Y-78854663D01*
X153000000Y-78854663D02*
X153142857Y-78902282D01*
X153142857Y-78902282D02*
X153238095Y-78997520D01*
X153238095Y-78997520D02*
X153285714Y-79092758D01*
X153285714Y-79092758D02*
X153333333Y-79283234D01*
X153333333Y-79283234D02*
X153333333Y-79426091D01*
X153333333Y-79426091D02*
X153285714Y-79616567D01*
X153285714Y-79616567D02*
X153238095Y-79711805D01*
X153238095Y-79711805D02*
X153142857Y-79807044D01*
X153142857Y-79807044D02*
X153000000Y-79854663D01*
X153000000Y-79854663D02*
X152761905Y-79854663D01*
X171366666Y-85454663D02*
X171366666Y-86168948D01*
X171366666Y-86168948D02*
X171319047Y-86311805D01*
X171319047Y-86311805D02*
X171223809Y-86407044D01*
X171223809Y-86407044D02*
X171080952Y-86454663D01*
X171080952Y-86454663D02*
X170985714Y-86454663D01*
X171842857Y-86454663D02*
X171842857Y-85454663D01*
X171842857Y-85454663D02*
X172223809Y-85454663D01*
X172223809Y-85454663D02*
X172319047Y-85502282D01*
X172319047Y-85502282D02*
X172366666Y-85549901D01*
X172366666Y-85549901D02*
X172414285Y-85645139D01*
X172414285Y-85645139D02*
X172414285Y-85787996D01*
X172414285Y-85787996D02*
X172366666Y-85883234D01*
X172366666Y-85883234D02*
X172319047Y-85930853D01*
X172319047Y-85930853D02*
X172223809Y-85978472D01*
X172223809Y-85978472D02*
X171842857Y-85978472D01*
X172795238Y-85549901D02*
X172842857Y-85502282D01*
X172842857Y-85502282D02*
X172938095Y-85454663D01*
X172938095Y-85454663D02*
X173176190Y-85454663D01*
X173176190Y-85454663D02*
X173271428Y-85502282D01*
X173271428Y-85502282D02*
X173319047Y-85549901D01*
X173319047Y-85549901D02*
X173366666Y-85645139D01*
X173366666Y-85645139D02*
X173366666Y-85740377D01*
X173366666Y-85740377D02*
X173319047Y-85883234D01*
X173319047Y-85883234D02*
X172747619Y-86454663D01*
X172747619Y-86454663D02*
X173366666Y-86454663D01*
X175571429Y-70454663D02*
X175904762Y-71454663D01*
X175904762Y-71454663D02*
X176238095Y-70454663D01*
X177095238Y-71454663D02*
X176523810Y-71454663D01*
X176809524Y-71454663D02*
X176809524Y-70454663D01*
X176809524Y-70454663D02*
X176714286Y-70597520D01*
X176714286Y-70597520D02*
X176619048Y-70692758D01*
X176619048Y-70692758D02*
X176523810Y-70740377D01*
X177523810Y-71073710D02*
X178285715Y-71073710D01*
X177904762Y-71454663D02*
X177904762Y-70692758D01*
X174047619Y-92804663D02*
X174380952Y-93804663D01*
X174380952Y-93804663D02*
X174714285Y-92804663D01*
X175571428Y-93804663D02*
X175000000Y-93804663D01*
X175285714Y-93804663D02*
X175285714Y-92804663D01*
X175285714Y-92804663D02*
X175190476Y-92947520D01*
X175190476Y-92947520D02*
X175095238Y-93042758D01*
X175095238Y-93042758D02*
X175000000Y-93090377D01*
X176104762Y-93115139D02*
X176257143Y-93115139D01*
X176257143Y-93115139D02*
X176333333Y-93153234D01*
X176333333Y-93153234D02*
X176409524Y-93229424D01*
X176409524Y-93229424D02*
X176447619Y-93381805D01*
X176447619Y-93381805D02*
X176447619Y-93648472D01*
X176447619Y-93648472D02*
X176409524Y-93800853D01*
X176409524Y-93800853D02*
X176333333Y-93877044D01*
X176333333Y-93877044D02*
X176257143Y-93915139D01*
X176257143Y-93915139D02*
X176104762Y-93915139D01*
X176104762Y-93915139D02*
X176028571Y-93877044D01*
X176028571Y-93877044D02*
X175952381Y-93800853D01*
X175952381Y-93800853D02*
X175914285Y-93648472D01*
X175914285Y-93648472D02*
X175914285Y-93381805D01*
X175914285Y-93381805D02*
X175952381Y-93229424D01*
X175952381Y-93229424D02*
X176028571Y-93153234D01*
X176028571Y-93153234D02*
X176104762Y-93115139D01*
X176790476Y-93115139D02*
X176790476Y-93762758D01*
X176790476Y-93762758D02*
X176828571Y-93838948D01*
X176828571Y-93838948D02*
X176866666Y-93877044D01*
X176866666Y-93877044D02*
X176942857Y-93915139D01*
X176942857Y-93915139D02*
X177095238Y-93915139D01*
X177095238Y-93915139D02*
X177171428Y-93877044D01*
X177171428Y-93877044D02*
X177209523Y-93838948D01*
X177209523Y-93838948D02*
X177247619Y-93762758D01*
X177247619Y-93762758D02*
X177247619Y-93115139D01*
X177514285Y-93115139D02*
X177971428Y-93115139D01*
X177742856Y-93915139D02*
X177742856Y-93115139D01*
X174047619Y-82754663D02*
X174380952Y-83754663D01*
X174380952Y-83754663D02*
X174714285Y-82754663D01*
X175000000Y-82849901D02*
X175047619Y-82802282D01*
X175047619Y-82802282D02*
X175142857Y-82754663D01*
X175142857Y-82754663D02*
X175380952Y-82754663D01*
X175380952Y-82754663D02*
X175476190Y-82802282D01*
X175476190Y-82802282D02*
X175523809Y-82849901D01*
X175523809Y-82849901D02*
X175571428Y-82945139D01*
X175571428Y-82945139D02*
X175571428Y-83040377D01*
X175571428Y-83040377D02*
X175523809Y-83183234D01*
X175523809Y-83183234D02*
X174952381Y-83754663D01*
X174952381Y-83754663D02*
X175571428Y-83754663D01*
X176104762Y-83065139D02*
X176257143Y-83065139D01*
X176257143Y-83065139D02*
X176333333Y-83103234D01*
X176333333Y-83103234D02*
X176409524Y-83179424D01*
X176409524Y-83179424D02*
X176447619Y-83331805D01*
X176447619Y-83331805D02*
X176447619Y-83598472D01*
X176447619Y-83598472D02*
X176409524Y-83750853D01*
X176409524Y-83750853D02*
X176333333Y-83827044D01*
X176333333Y-83827044D02*
X176257143Y-83865139D01*
X176257143Y-83865139D02*
X176104762Y-83865139D01*
X176104762Y-83865139D02*
X176028571Y-83827044D01*
X176028571Y-83827044D02*
X175952381Y-83750853D01*
X175952381Y-83750853D02*
X175914285Y-83598472D01*
X175914285Y-83598472D02*
X175914285Y-83331805D01*
X175914285Y-83331805D02*
X175952381Y-83179424D01*
X175952381Y-83179424D02*
X176028571Y-83103234D01*
X176028571Y-83103234D02*
X176104762Y-83065139D01*
X176790476Y-83065139D02*
X176790476Y-83712758D01*
X176790476Y-83712758D02*
X176828571Y-83788948D01*
X176828571Y-83788948D02*
X176866666Y-83827044D01*
X176866666Y-83827044D02*
X176942857Y-83865139D01*
X176942857Y-83865139D02*
X177095238Y-83865139D01*
X177095238Y-83865139D02*
X177171428Y-83827044D01*
X177171428Y-83827044D02*
X177209523Y-83788948D01*
X177209523Y-83788948D02*
X177247619Y-83712758D01*
X177247619Y-83712758D02*
X177247619Y-83065139D01*
X177514285Y-83065139D02*
X177971428Y-83065139D01*
X177742856Y-83865139D02*
X177742856Y-83065139D01*
X165333333Y-94154663D02*
X165000000Y-93678472D01*
X164761905Y-94154663D02*
X164761905Y-93154663D01*
X164761905Y-93154663D02*
X165142857Y-93154663D01*
X165142857Y-93154663D02*
X165238095Y-93202282D01*
X165238095Y-93202282D02*
X165285714Y-93249901D01*
X165285714Y-93249901D02*
X165333333Y-93345139D01*
X165333333Y-93345139D02*
X165333333Y-93487996D01*
X165333333Y-93487996D02*
X165285714Y-93583234D01*
X165285714Y-93583234D02*
X165238095Y-93630853D01*
X165238095Y-93630853D02*
X165142857Y-93678472D01*
X165142857Y-93678472D02*
X164761905Y-93678472D01*
X165714286Y-93249901D02*
X165761905Y-93202282D01*
X165761905Y-93202282D02*
X165857143Y-93154663D01*
X165857143Y-93154663D02*
X166095238Y-93154663D01*
X166095238Y-93154663D02*
X166190476Y-93202282D01*
X166190476Y-93202282D02*
X166238095Y-93249901D01*
X166238095Y-93249901D02*
X166285714Y-93345139D01*
X166285714Y-93345139D02*
X166285714Y-93440377D01*
X166285714Y-93440377D02*
X166238095Y-93583234D01*
X166238095Y-93583234D02*
X165666667Y-94154663D01*
X165666667Y-94154663D02*
X166285714Y-94154663D01*
X165333333Y-88354663D02*
X165000000Y-87878472D01*
X164761905Y-88354663D02*
X164761905Y-87354663D01*
X164761905Y-87354663D02*
X165142857Y-87354663D01*
X165142857Y-87354663D02*
X165238095Y-87402282D01*
X165238095Y-87402282D02*
X165285714Y-87449901D01*
X165285714Y-87449901D02*
X165333333Y-87545139D01*
X165333333Y-87545139D02*
X165333333Y-87687996D01*
X165333333Y-87687996D02*
X165285714Y-87783234D01*
X165285714Y-87783234D02*
X165238095Y-87830853D01*
X165238095Y-87830853D02*
X165142857Y-87878472D01*
X165142857Y-87878472D02*
X164761905Y-87878472D01*
X166285714Y-88354663D02*
X165714286Y-88354663D01*
X166000000Y-88354663D02*
X166000000Y-87354663D01*
X166000000Y-87354663D02*
X165904762Y-87497520D01*
X165904762Y-87497520D02*
X165809524Y-87592758D01*
X165809524Y-87592758D02*
X165714286Y-87640377D01*
X156266666Y-90254663D02*
X156266666Y-90968948D01*
X156266666Y-90968948D02*
X156219047Y-91111805D01*
X156219047Y-91111805D02*
X156123809Y-91207044D01*
X156123809Y-91207044D02*
X155980952Y-91254663D01*
X155980952Y-91254663D02*
X155885714Y-91254663D01*
X156742857Y-91254663D02*
X156742857Y-90254663D01*
X156742857Y-90254663D02*
X157123809Y-90254663D01*
X157123809Y-90254663D02*
X157219047Y-90302282D01*
X157219047Y-90302282D02*
X157266666Y-90349901D01*
X157266666Y-90349901D02*
X157314285Y-90445139D01*
X157314285Y-90445139D02*
X157314285Y-90587996D01*
X157314285Y-90587996D02*
X157266666Y-90683234D01*
X157266666Y-90683234D02*
X157219047Y-90730853D01*
X157219047Y-90730853D02*
X157123809Y-90778472D01*
X157123809Y-90778472D02*
X156742857Y-90778472D01*
X157647619Y-90254663D02*
X158266666Y-90254663D01*
X158266666Y-90254663D02*
X157933333Y-90635615D01*
X157933333Y-90635615D02*
X158076190Y-90635615D01*
X158076190Y-90635615D02*
X158171428Y-90683234D01*
X158171428Y-90683234D02*
X158219047Y-90730853D01*
X158219047Y-90730853D02*
X158266666Y-90826091D01*
X158266666Y-90826091D02*
X158266666Y-91064186D01*
X158266666Y-91064186D02*
X158219047Y-91159424D01*
X158219047Y-91159424D02*
X158171428Y-91207044D01*
X158171428Y-91207044D02*
X158076190Y-91254663D01*
X158076190Y-91254663D02*
X157790476Y-91254663D01*
X157790476Y-91254663D02*
X157695238Y-91207044D01*
X157695238Y-91207044D02*
X157647619Y-91159424D01*
X175571429Y-87754663D02*
X175904762Y-88754663D01*
X175904762Y-88754663D02*
X176238095Y-87754663D01*
X176523810Y-87849901D02*
X176571429Y-87802282D01*
X176571429Y-87802282D02*
X176666667Y-87754663D01*
X176666667Y-87754663D02*
X176904762Y-87754663D01*
X176904762Y-87754663D02*
X177000000Y-87802282D01*
X177000000Y-87802282D02*
X177047619Y-87849901D01*
X177047619Y-87849901D02*
X177095238Y-87945139D01*
X177095238Y-87945139D02*
X177095238Y-88040377D01*
X177095238Y-88040377D02*
X177047619Y-88183234D01*
X177047619Y-88183234D02*
X176476191Y-88754663D01*
X176476191Y-88754663D02*
X177095238Y-88754663D01*
X177523810Y-88373710D02*
X178285715Y-88373710D01*
D13*
%TO.C,R4*%
X158977500Y-76017948D02*
X158977500Y-75508500D01*
X160022500Y-76017948D02*
X160022500Y-75508500D01*
%TO.C,R8*%
X170277500Y-76782776D02*
X170277500Y-77292224D01*
X171322500Y-76782776D02*
X171322500Y-77292224D01*
%TO.C,JP4*%
X169950000Y-91550000D02*
X169950000Y-90150000D01*
X170650000Y-89450000D02*
X171250000Y-89450000D01*
X171250000Y-92250000D02*
X170650000Y-92250000D01*
X171950000Y-90150000D02*
X171950000Y-91550000D01*
X169950000Y-90150000D02*
G75*
G02*
X170650000Y-89450000I700000J0D01*
G01*
X170650000Y-92250000D02*
G75*
G02*
X169950000Y-91550000I-1J699999D01*
G01*
X171250000Y-89450000D02*
G75*
G02*
X171950000Y-90150000I0J-700000D01*
G01*
X171950000Y-91550000D02*
G75*
G02*
X171250000Y-92250000I-699999J-1D01*
G01*
%TO.C,TP3*%
X182750000Y-65500000D02*
G75*
G02*
X179250000Y-65500000I-1750000J0D01*
G01*
X179250000Y-65500000D02*
G75*
G02*
X182750000Y-65500000I1750000J0D01*
G01*
%TO.C,JP1*%
X160450000Y-86550000D02*
X160450000Y-85150000D01*
X161150000Y-84450000D02*
X161750000Y-84450000D01*
X161750000Y-87250000D02*
X161150000Y-87250000D01*
X162450000Y-85150000D02*
X162450000Y-86550000D01*
X160450000Y-85150000D02*
G75*
G02*
X161150000Y-84450000I700000J0D01*
G01*
X161150000Y-87250000D02*
G75*
G02*
X160450000Y-86550000I-1J699999D01*
G01*
X161750000Y-84450000D02*
G75*
G02*
X162450000Y-85150000I0J-700000D01*
G01*
X162450000Y-86550000D02*
G75*
G02*
X161750000Y-87250000I-699999J-1D01*
G01*
%TO.C,R9*%
X161460000Y-81750000D02*
X162230000Y-81750000D01*
X162230000Y-80380000D02*
X162230000Y-83120000D01*
X162230000Y-83120000D02*
X168770000Y-83120000D01*
X168770000Y-80380000D02*
X162230000Y-80380000D01*
X168770000Y-83120000D02*
X168770000Y-80380000D01*
X169540000Y-81750000D02*
X168770000Y-81750000D01*
D14*
%TO.C,J2*%
X167622500Y-96453900D02*
X167622500Y-97546100D01*
X167622500Y-97546100D02*
X168046550Y-97546100D01*
X168046550Y-96453900D02*
X167622500Y-96453900D01*
X170373450Y-97546100D02*
X173126550Y-97546100D01*
X173126550Y-96453900D02*
X170373450Y-96453900D01*
X175453450Y-97546100D02*
X175877500Y-97546100D01*
X175877500Y-96453900D02*
X175453450Y-96453900D01*
X175877500Y-97546100D02*
X175877500Y-96453900D01*
D15*
X169591000Y-97000000D02*
G75*
G02*
X168829000Y-97000000I-381000J0D01*
G01*
X168829000Y-97000000D02*
G75*
G02*
X169591000Y-97000000I381000J0D01*
G01*
D13*
%TO.C,R5*%
X160497437Y-72477500D02*
X159987989Y-72477500D01*
X160497437Y-73522500D02*
X159987989Y-73522500D01*
%TO.C,C1*%
X167683767Y-72490000D02*
X167391233Y-72490000D01*
X167683767Y-73510000D02*
X167391233Y-73510000D01*
%TO.C,R6*%
X163495276Y-72477500D02*
X164004724Y-72477500D01*
X163495276Y-73522500D02*
X164004724Y-73522500D01*
%TO.C,TP10*%
X149750000Y-87600000D02*
G75*
G02*
X146250000Y-87600000I-1750000J0D01*
G01*
X146250000Y-87600000D02*
G75*
G02*
X149750000Y-87600000I1750000J0D01*
G01*
%TO.C,R3*%
X160727500Y-76017948D02*
X160727500Y-75508500D01*
X161772500Y-76017948D02*
X161772500Y-75508500D01*
D14*
%TO.C,J1*%
X155622500Y-96453900D02*
X155622500Y-97546100D01*
X155622500Y-97546100D02*
X156046550Y-97546100D01*
X156046550Y-96453900D02*
X155622500Y-96453900D01*
X158373450Y-97546100D02*
X161126550Y-97546100D01*
X161126550Y-96453900D02*
X158373450Y-96453900D01*
X163453450Y-97546100D02*
X163877500Y-97546100D01*
X163877500Y-96453900D02*
X163453450Y-96453900D01*
X163877500Y-97546100D02*
X163877500Y-96453900D01*
D15*
X157591000Y-97000000D02*
G75*
G02*
X156829000Y-97000000I-381000J0D01*
G01*
X156829000Y-97000000D02*
G75*
G02*
X157591000Y-97000000I381000J0D01*
G01*
D13*
%TO.C,TP9*%
X149750000Y-72300000D02*
G75*
G02*
X146250000Y-72300000I-1750000J0D01*
G01*
X146250000Y-72300000D02*
G75*
G02*
X149750000Y-72300000I1750000J0D01*
G01*
D16*
%TO.C,IC1*%
X162600000Y-74200000D02*
X164000000Y-74200000D01*
X164350000Y-74250000D02*
X166650000Y-74250000D01*
X164350000Y-77250000D02*
X164350000Y-74250000D01*
X166650000Y-74250000D02*
X166650000Y-77250000D01*
X166650000Y-77250000D02*
X164350000Y-77250000D01*
D13*
%TO.C,R7*%
X170277500Y-73195276D02*
X170277500Y-73704724D01*
X171322500Y-73195276D02*
X171322500Y-73704724D01*
%TO.C,TP11*%
X149750000Y-79400000D02*
G75*
G02*
X146250000Y-79400000I-1750000J0D01*
G01*
X146250000Y-79400000D02*
G75*
G02*
X149750000Y-79400000I1750000J0D01*
G01*
%TO.C,JP2*%
X168450000Y-86550000D02*
X168450000Y-85150000D01*
X169150000Y-84450000D02*
X169750000Y-84450000D01*
X169750000Y-87250000D02*
X169150000Y-87250000D01*
X170450000Y-85150000D02*
X170450000Y-86550000D01*
X168450000Y-85150000D02*
G75*
G02*
X169150000Y-84450000I700000J0D01*
G01*
X169150000Y-87250000D02*
G75*
G02*
X168450000Y-86550000I-1J699999D01*
G01*
X169750000Y-84450000D02*
G75*
G02*
X170450000Y-85150000I0J-700000D01*
G01*
X170450000Y-86550000D02*
G75*
G02*
X169750000Y-87250000I-699999J-1D01*
G01*
%TO.C,TP4*%
X182750000Y-71000000D02*
G75*
G02*
X179250000Y-71000000I-1750000J0D01*
G01*
X179250000Y-71000000D02*
G75*
G02*
X182750000Y-71000000I1750000J0D01*
G01*
%TO.C,TP5*%
X182750000Y-93350000D02*
G75*
G02*
X179250000Y-93350000I-1750000J0D01*
G01*
X179250000Y-93350000D02*
G75*
G02*
X182750000Y-93350000I1750000J0D01*
G01*
%TO.C,TP8*%
X182750000Y-83300000D02*
G75*
G02*
X179250000Y-83300000I-1750000J0D01*
G01*
X179250000Y-83300000D02*
G75*
G02*
X182750000Y-83300000I1750000J0D01*
G01*
%TO.C,R2*%
X167627064Y-89290000D02*
X163272936Y-89290000D01*
X167627064Y-92710000D02*
X163272936Y-92710000D01*
%TO.C,R1*%
X166177064Y-85090000D02*
X164722936Y-85090000D01*
X166177064Y-86910000D02*
X164722936Y-86910000D01*
%TO.C,JP3*%
X158950000Y-91550000D02*
X158950000Y-90150000D01*
X159650000Y-89450000D02*
X160250000Y-89450000D01*
X160250000Y-92250000D02*
X159650000Y-92250000D01*
X160950000Y-90150000D02*
X160950000Y-91550000D01*
X158950000Y-90150000D02*
G75*
G02*
X159650000Y-89450000I700000J0D01*
G01*
X159650000Y-92250000D02*
G75*
G02*
X158950000Y-91550000I-1J699999D01*
G01*
X160250000Y-89450000D02*
G75*
G02*
X160950000Y-90150000I0J-700000D01*
G01*
X160950000Y-91550000D02*
G75*
G02*
X160250000Y-92250000I-699999J-1D01*
G01*
%TO.C,TP6*%
X182750000Y-88300000D02*
G75*
G02*
X179250000Y-88300000I-1750000J0D01*
G01*
X179250000Y-88300000D02*
G75*
G02*
X182750000Y-88300000I1750000J0D01*
G01*
%TD*%
M02*
