<?xml version="1.0" standalone="no"?>
 <!DOCTYPE svg PUBLIC "-//W3C//DTD SVG 1.1//EN" 
 "http://www.w3.org/Graphics/SVG/1.1/DTD/svg11.dtd"> 
<svg
  xmlns:svg="http://www.w3.org/2000/svg"
  xmlns="http://www.w3.org/2000/svg"
  xmlns:xlink="http://www.w3.org/1999/xlink"
  version="1.1"
  width="69.9770mm" height="67.9958mm" viewBox="0.0000 0.0000 69.9770 67.9958">
<title>SVG Image created as Shutter-TestPlatform-F_Mask.svg date 2025/01/08 17:27:46 </title>
  <desc>Image generated by PCBNEW </desc>
<g style="fill:#000000; fill-opacity:1.0000;stroke:#000000; stroke-opacity:1.0000;
stroke-linecap:round; stroke-linejoin:round;"
 transform="translate(0 0) scale(1 1)">
<path style="fill:#D864FF; fill-opacity:0.4000; stroke:none;fill-rule:evenodd;"
d="M 29.2625,31.1632
29.1716,31.1451
29.0946,31.0937
29.0431,31.0166
29.0250,30.9257
29.0250,30.4257
29.0431,30.3348
29.0946,30.2578
29.1716,30.2063
29.2625,30.1882
29.7375,30.1882
29.8284,30.2063
29.9054,30.2578
29.9569,30.3348
29.9750,30.4257
29.9750,30.9257
29.9569,31.0166
29.9054,31.0937
29.8284,31.1451
29.7375,31.1632
Z" /> 
<path style="fill:#D864FF; fill-opacity:0.4000; stroke:none;fill-rule:evenodd;"
d="M 29.2625,29.3382
29.1716,29.3201
29.0946,29.2687
29.0431,29.1916
29.0250,29.1007
29.0250,28.6007
29.0431,28.5098
29.0946,28.4328
29.1716,28.3813
29.2625,28.3632
29.7375,28.3632
29.8284,28.3813
29.9054,28.4328
29.9569,28.5098
29.9750,28.6007
29.9750,29.1007
29.9569,29.1916
29.9054,29.2687
29.8284,29.3201
29.7375,29.3382
Z" /> 
<path style="fill:#D864FF; fill-opacity:0.4000; stroke:none;fill-rule:evenodd;"
d="M 41.0375,29.6375
41.1284,29.6556
41.2054,29.7071
41.2569,29.7841
41.2750,29.8750
41.2750,30.3750
41.2569,30.4659
41.2054,30.5429
41.1284,30.5944
41.0375,30.6125
40.5625,30.6125
40.4716,30.5944
40.3946,30.5429
40.3431,30.4659
40.3250,30.3750
40.3250,29.8750
40.3431,29.7841
40.3946,29.7071
40.4716,29.6556
40.5625,29.6375
Z" /> 
<path style="fill:#D864FF; fill-opacity:0.4000; stroke:none;fill-rule:evenodd;"
d="M 41.0375,31.4625
41.1284,31.4806
41.2054,31.5321
41.2569,31.6091
41.2750,31.7000
41.2750,32.2000
41.2569,32.2909
41.2054,32.3679
41.1284,32.4194
41.0375,32.4375
40.5625,32.4375
40.4716,32.4194
40.3946,32.3679
40.3431,32.2909
40.3250,32.2000
40.3250,31.7000
40.3431,31.6091
40.3946,31.5321
40.4716,31.4806
40.5625,31.4625
Z" /> 
<path style="fill:#D864FF; fill-opacity:0.4000; stroke:none;fill-rule:evenodd;"
d="M 41.7000,45.0000
41.7000,45.5000
41.6949,45.5000
41.6949,45.5712
41.6548,45.7077
41.5779,45.8274
41.4703,45.9206
41.3409,45.9797
41.2000,46.0000
40.7000,46.0000
40.5591,45.9797
40.4297,45.9206
40.3221,45.8274
40.2452,45.7077
40.2051,45.5712
40.2051,45.5000
40.2000,45.5000
40.2000,45.0000
Z" /> 
<path style="fill:#D864FF; fill-opacity:0.4000; stroke:none;fill-rule:evenodd;"
d="M 40.2051,44.2000
40.2051,44.1288
40.2452,43.9923
40.3221,43.8726
40.4297,43.7794
40.5591,43.7203
40.7000,43.7000
41.2000,43.7000
41.3409,43.7203
41.4703,43.7794
41.5779,43.8726
41.6548,43.9923
41.6949,44.1288
41.6949,44.2000
41.7000,44.2000
41.7000,44.7000
40.2000,44.7000
40.2000,44.2000
Z" /> 
</g>
<g style="fill:#D864FF; fill-opacity:0.4000; stroke:none;">
<circle cx="51.0000" cy="19.5000" r="1.5000" /> 
<path style="fill:#D864FF; fill-opacity:0.4000; stroke:none;fill-rule:evenodd;"
d="M 32.2000,40.0000
32.2000,40.5000
32.1949,40.5000
32.1949,40.5712
32.1548,40.7077
32.0779,40.8274
31.9703,40.9206
31.8409,40.9797
31.7000,41.0000
31.2000,41.0000
31.0591,40.9797
30.9297,40.9206
30.8221,40.8274
30.7452,40.7077
30.7051,40.5712
30.7051,40.5000
30.7000,40.5000
30.7000,40.0000
Z" /> 
<path style="fill:#D864FF; fill-opacity:0.4000; stroke:none;fill-rule:evenodd;"
d="M 30.7051,39.2000
30.7051,39.1288
30.7452,38.9923
30.8221,38.8726
30.9297,38.7794
31.0591,38.7203
31.2000,38.7000
31.7000,38.7000
31.8409,38.7203
31.9703,38.7794
32.0779,38.8726
32.1548,38.9923
32.1949,39.1288
32.1949,39.2000
32.2000,39.2000
32.2000,39.7000
30.7000,39.7000
30.7000,39.2000
Z" /> 
</g>
<g style="fill:#D864FF; fill-opacity:0.4000; stroke:none;">
<circle cx="40.5800" cy="35.7500" r="0.8000" /> 
</g>
<g style="fill:#D864FF; fill-opacity:0.4000; stroke:none;">
<circle cx="30.4200" cy="35.7500" r="0.8000" /> 
<circle cx="24.9000" cy="29.7000" r="2.8000" /> 
</g>
<g style="fill:#D864FF; fill-opacity:0.4000; stroke:none;">
<circle cx="39.2100" cy="51.0000" r="0.9525" /> 
</g>
<g style="fill:#D864FF; fill-opacity:0.4000; stroke:none;">
<circle cx="44.2900" cy="51.0000" r="0.9525" /> 
<path style="fill:#D864FF; fill-opacity:0.4000; stroke:none;fill-rule:evenodd;"
d="M 31.6427,27.2375
31.6246,27.3284
31.5732,27.4054
31.4961,27.4569
31.4052,27.4750
30.9052,27.4750
30.8143,27.4569
30.7373,27.4054
30.6858,27.3284
30.6677,27.2375
30.6677,26.7625
30.6858,26.6716
30.7373,26.5946
30.8143,26.5431
30.9052,26.5250
31.4052,26.5250
31.4961,26.5431
31.5732,26.5946
31.6246,26.6716
31.6427,26.7625
Z" /> 
<path style="fill:#D864FF; fill-opacity:0.4000; stroke:none;fill-rule:evenodd;"
d="M 29.8177,27.2375
29.7996,27.3284
29.7482,27.4054
29.6711,27.4569
29.5802,27.4750
29.0802,27.4750
28.9893,27.4569
28.9123,27.4054
28.8608,27.3284
28.8427,27.2375
28.8427,26.7625
28.8608,26.6716
28.9123,26.5946
28.9893,26.5431
29.0802,26.5250
29.5802,26.5250
29.6711,26.5431
29.7482,26.5946
29.7996,26.6716
29.8177,26.7625
Z" /> 
<path style="fill:#D864FF; fill-opacity:0.4000; stroke:none;fill-rule:evenodd;"
d="M 38.9375,27.2375
38.9194,27.3284
38.8679,27.4054
38.7909,27.4569
38.7000,27.4750
38.1000,27.4750
38.0091,27.4569
37.9321,27.4054
37.8806,27.3284
37.8625,27.2375
37.8625,26.7625
37.8806,26.6716
37.9321,26.5946
38.0091,26.5431
38.1000,26.5250
38.7000,26.5250
38.7909,26.5431
38.8679,26.5946
38.9194,26.6716
38.9375,26.7625
Z" /> 
<path style="fill:#D864FF; fill-opacity:0.4000; stroke:none;fill-rule:evenodd;"
d="M 37.2125,27.2375
37.1944,27.3284
37.1429,27.4054
37.0659,27.4569
36.9750,27.4750
36.3750,27.4750
36.2841,27.4569
36.2071,27.4054
36.1556,27.3284
36.1375,27.2375
36.1375,26.7625
36.1556,26.6716
36.2071,26.5946
36.2841,26.5431
36.3750,26.5250
36.9750,26.5250
37.0659,26.5431
37.1429,26.5946
37.1944,26.6716
37.2125,26.7625
Z" /> 
<path style="fill:#D864FF; fill-opacity:0.4000; stroke:none;fill-rule:evenodd;"
d="M 32.3500,26.7625
32.3681,26.6716
32.4196,26.5946
32.4966,26.5431
32.5875,26.5250
33.0875,26.5250
33.1784,26.5431
33.2554,26.5946
33.3069,26.6716
33.3250,26.7625
33.3250,27.2375
33.3069,27.3284
33.2554,27.4054
33.1784,27.4569
33.0875,27.4750
32.5875,27.4750
32.4966,27.4569
32.4196,27.4054
32.3681,27.3284
32.3500,27.2375
Z" /> 
<path style="fill:#D864FF; fill-opacity:0.4000; stroke:none;fill-rule:evenodd;"
d="M 34.1750,26.7625
34.1931,26.6716
34.2446,26.5946
34.3216,26.5431
34.4125,26.5250
34.9125,26.5250
35.0034,26.5431
35.0804,26.5946
35.1319,26.6716
35.1500,26.7625
35.1500,27.2375
35.1319,27.3284
35.0804,27.4054
35.0034,27.4569
34.9125,27.4750
34.4125,27.4750
34.3216,27.4569
34.2446,27.4054
34.1931,27.3284
34.1750,27.2375
Z" /> 
</g>
<g style="fill:#D864FF; fill-opacity:0.4000; stroke:none;">
<circle cx="18.0000" cy="41.6000" r="1.5000" /> 
</g>
<g style="fill:#D864FF; fill-opacity:0.4000; stroke:none;">
<circle cx="45.5000" cy="29.7500" r="2.8000" /> 
<path style="fill:#D864FF; fill-opacity:0.4000; stroke:none;fill-rule:evenodd;"
d="M 31.0125,31.1632
30.9216,31.1451
30.8446,31.0937
30.7931,31.0166
30.7750,30.9257
30.7750,30.4257
30.7931,30.3348
30.8446,30.2578
30.9216,30.2063
31.0125,30.1882
31.4875,30.1882
31.5784,30.2063
31.6554,30.2578
31.7069,30.3348
31.7250,30.4257
31.7250,30.9257
31.7069,31.0166
31.6554,31.0937
31.5784,31.1451
31.4875,31.1632
Z" /> 
<path style="fill:#D864FF; fill-opacity:0.4000; stroke:none;fill-rule:evenodd;"
d="M 31.0125,29.3382
30.9216,29.3201
30.8446,29.2687
30.7931,29.1916
30.7750,29.1007
30.7750,28.6007
30.7931,28.5098
30.8446,28.4328
30.9216,28.3813
31.0125,28.3632
31.4875,28.3632
31.5784,28.3813
31.6554,28.4328
31.7069,28.5098
31.7250,28.6007
31.7250,29.1007
31.7069,29.1916
31.6554,29.2687
31.5784,29.3201
31.4875,29.3382
Z" /> 
</g>
<g style="fill:#D864FF; fill-opacity:0.4000; stroke:none;">
<circle cx="27.2100" cy="51.0000" r="0.9525" /> 
</g>
<g style="fill:#D864FF; fill-opacity:0.4000; stroke:none;">
<circle cx="32.2900" cy="51.0000" r="0.9525" /> 
</g>
<g style="fill:#D864FF; fill-opacity:0.4000; stroke:none;">
<circle cx="18.0000" cy="26.3000" r="1.5000" /> 
<path style="fill:#D864FF; fill-opacity:0.4000; stroke:none;fill-rule:evenodd;"
d="M 34.0000,29.0000
32.6000,29.0000
32.6000,28.5500
34.0000,28.5500
Z" /> 
<path style="fill:#D864FF; fill-opacity:0.4000; stroke:none;fill-rule:evenodd;"
d="M 34.0000,29.6500
32.6000,29.6500
32.6000,29.2000
34.0000,29.2000
Z" /> 
<path style="fill:#D864FF; fill-opacity:0.4000; stroke:none;fill-rule:evenodd;"
d="M 34.0000,30.3000
32.6000,30.3000
32.6000,29.8500
34.0000,29.8500
Z" /> 
<path style="fill:#D864FF; fill-opacity:0.4000; stroke:none;fill-rule:evenodd;"
d="M 34.0000,30.9500
32.6000,30.9500
32.6000,30.5000
34.0000,30.5000
Z" /> 
<path style="fill:#D864FF; fill-opacity:0.4000; stroke:none;fill-rule:evenodd;"
d="M 38.4000,30.9500
37.0000,30.9500
37.0000,30.5000
38.4000,30.5000
Z" /> 
<path style="fill:#D864FF; fill-opacity:0.4000; stroke:none;fill-rule:evenodd;"
d="M 38.4000,30.3000
37.0000,30.3000
37.0000,29.8500
38.4000,29.8500
Z" /> 
<path style="fill:#D864FF; fill-opacity:0.4000; stroke:none;fill-rule:evenodd;"
d="M 38.4000,29.6500
37.0000,29.6500
37.0000,29.2000
38.4000,29.2000
Z" /> 
<path style="fill:#D864FF; fill-opacity:0.4000; stroke:none;fill-rule:evenodd;"
d="M 38.4000,29.0000
37.0000,29.0000
37.0000,28.5500
38.4000,28.5500
Z" /> 
<path style="fill:#D864FF; fill-opacity:0.4000; stroke:none;fill-rule:evenodd;"
d="M 41.0375,26.0500
41.1284,26.0681
41.2054,26.1196
41.2569,26.1966
41.2750,26.2875
41.2750,26.7875
41.2569,26.8784
41.2054,26.9554
41.1284,27.0069
41.0375,27.0250
40.5625,27.0250
40.4716,27.0069
40.3946,26.9554
40.3431,26.8784
40.3250,26.7875
40.3250,26.2875
40.3431,26.1966
40.3946,26.1196
40.4716,26.0681
40.5625,26.0500
Z" /> 
<path style="fill:#D864FF; fill-opacity:0.4000; stroke:none;fill-rule:evenodd;"
d="M 41.0375,27.8750
41.1284,27.8931
41.2054,27.9446
41.2569,28.0216
41.2750,28.1125
41.2750,28.6125
41.2569,28.7034
41.2054,28.7804
41.1284,28.8319
41.0375,28.8500
40.5625,28.8500
40.4716,28.8319
40.3946,28.7804
40.3431,28.7034
40.3250,28.6125
40.3250,28.1125
40.3431,28.0216
40.3946,27.9446
40.4716,27.8931
40.5625,27.8750
Z" /> 
</g>
<g style="fill:#D864FF; fill-opacity:0.4000; stroke:none;">
<circle cx="18.0000" cy="33.4000" r="1.5000" /> 
<path style="fill:#D864FF; fill-opacity:0.4000; stroke:none;fill-rule:evenodd;"
d="M 40.2000,40.0000
40.2000,40.5000
40.1949,40.5000
40.1949,40.5712
40.1548,40.7077
40.0779,40.8274
39.9703,40.9206
39.8409,40.9797
39.7000,41.0000
39.2000,41.0000
39.0591,40.9797
38.9297,40.9206
38.8221,40.8274
38.7452,40.7077
38.7051,40.5712
38.7051,40.5000
38.7000,40.5000
38.7000,40.0000
Z" /> 
<path style="fill:#D864FF; fill-opacity:0.4000; stroke:none;fill-rule:evenodd;"
d="M 38.7051,39.2000
38.7051,39.1288
38.7452,38.9923
38.8221,38.8726
38.9297,38.7794
39.0591,38.7203
39.2000,38.7000
39.7000,38.7000
39.8409,38.7203
39.9703,38.7794
40.0779,38.8726
40.1548,38.9923
40.1949,39.1288
40.1949,39.2000
40.2000,39.2000
40.2000,39.7000
38.7000,39.7000
38.7000,39.2000
Z" /> 
</g>
<g style="fill:#D864FF; fill-opacity:0.4000; stroke:none;">
<circle cx="51.0000" cy="25.0000" r="1.5000" /> 
</g>
<g style="fill:#D864FF; fill-opacity:0.4000; stroke:none;">
<circle cx="51.0000" cy="47.3500" r="1.5000" /> 
</g>
<g style="fill:#D864FF; fill-opacity:0.4000; stroke:none;">
<circle cx="51.0000" cy="37.3000" r="1.5000" /> 
<path style="fill:#D864FF; fill-opacity:0.4000; stroke:none;fill-rule:evenodd;"
d="M 39.2000,46.4250
39.1810,46.5207
39.1268,46.6018
39.0457,46.6560
38.9500,46.6750
38.0500,46.6750
37.9543,46.6560
37.8732,46.6018
37.8190,46.5207
37.8000,46.4250
37.8000,43.5750
37.8190,43.4793
37.8732,43.3982
37.9543,43.3440
38.0500,43.3250
38.9500,43.3250
39.0457,43.3440
39.1268,43.3982
39.1810,43.4793
39.2000,43.5750
Z" /> 
<path style="fill:#D864FF; fill-opacity:0.4000; stroke:none;fill-rule:evenodd;"
d="M 33.1000,46.4250
33.0810,46.5207
33.0268,46.6018
32.9457,46.6560
32.8500,46.6750
31.9500,46.6750
31.8543,46.6560
31.7732,46.6018
31.7190,46.5207
31.7000,46.4250
31.7000,43.5750
31.7190,43.4793
31.7732,43.3982
31.8543,43.3440
31.9500,43.3250
32.8500,43.3250
32.9457,43.3440
33.0268,43.3982
33.0810,43.4793
33.1000,43.5750
Z" /> 
<path style="fill:#D864FF; fill-opacity:0.4000; stroke:none;fill-rule:evenodd;"
d="M 37.6500,40.6250
37.6310,40.7207
37.5768,40.8018
37.4957,40.8560
37.4000,40.8750
36.6000,40.8750
36.5043,40.8560
36.4232,40.8018
36.3690,40.7207
36.3500,40.6250
36.3500,39.3750
36.3690,39.2793
36.4232,39.1982
36.5043,39.1440
36.6000,39.1250
37.4000,39.1250
37.4957,39.1440
37.5768,39.1982
37.6310,39.2793
37.6500,39.3750
Z" /> 
<path style="fill:#D864FF; fill-opacity:0.4000; stroke:none;fill-rule:evenodd;"
d="M 34.5500,40.6250
34.5310,40.7207
34.4768,40.8018
34.3957,40.8560
34.3000,40.8750
33.5000,40.8750
33.4043,40.8560
33.3232,40.8018
33.2690,40.7207
33.2500,40.6250
33.2500,39.3750
33.2690,39.2793
33.3232,39.1982
33.4043,39.1440
33.5000,39.1250
34.3000,39.1250
34.3957,39.1440
34.4768,39.1982
34.5310,39.2793
34.5500,39.3750
Z" /> 
<path style="fill:#D864FF; fill-opacity:0.4000; stroke:none;fill-rule:evenodd;"
d="M 30.7000,45.0000
30.7000,45.5000
30.6949,45.5000
30.6949,45.5712
30.6548,45.7077
30.5779,45.8274
30.4703,45.9206
30.3409,45.9797
30.2000,46.0000
29.7000,46.0000
29.5591,45.9797
29.4297,45.9206
29.3221,45.8274
29.2452,45.7077
29.2051,45.5712
29.2051,45.5000
29.2000,45.5000
29.2000,45.0000
Z" /> 
<path style="fill:#D864FF; fill-opacity:0.4000; stroke:none;fill-rule:evenodd;"
d="M 29.2051,44.2000
29.2051,44.1288
29.2452,43.9923
29.3221,43.8726
29.4297,43.7794
29.5591,43.7203
29.7000,43.7000
30.2000,43.7000
30.3409,43.7203
30.4703,43.7794
30.5779,43.8726
30.6548,43.9923
30.6949,44.1288
30.6949,44.2000
30.7000,44.2000
30.7000,44.7000
29.2000,44.7000
29.2000,44.2000
Z" /> 
</g>
<g style="fill:#D864FF; fill-opacity:0.4000; stroke:none;">
<circle cx="51.0000" cy="42.3000" r="1.5000" /> 
</g>
<g style="fill:none; 
stroke:#D0D2CD; stroke-width:0.0500; stroke-opacity:1; 
stroke-linecap:round; stroke-linejoin:round;">
<path d="M55.1000 49.4000
L55.1000 19.4000
" />
<path d="M15.2000 49.4000 A5.0000 5.0000 0.0 0 0 20.2000 54.4000" />
<path d="M50.1870 14.3744
L20.2000 14.4000
" />
<path d="M50.1000 54.4000 A5.0000 5.0000 0.0 0 0 55.1000 49.4000" />
<path d="M55.0999 19.4000 A4.9487 4.9487 0.0 0 0 50.1870 14.3744" />
<path d="M20.2000 14.4000 A5.0000 5.0000 0.0 0 0 15.2000 19.4000" />
<path d="M15.2000 19.4000
L15.2000 49.4000
" />
<path d="M20.2000 54.4000
L50.1000 54.4000
" />
</g> 
</svg>
