%TF.GenerationSoftware,KiCad,Pcbnew,9.0.6*%
%TF.CreationDate,2025-12-31T13:47:15+11:00*%
%TF.ProjectId,ShutterRetroFit,53687574-7465-4725-9265-74726f466974,rev?*%
%TF.SameCoordinates,Original*%
%TF.FileFunction,Soldermask,Top*%
%TF.FilePolarity,Negative*%
%FSLAX46Y46*%
G04 Gerber Fmt 4.6, Leading zero omitted, Abs format (unit mm)*
G04 Created by KiCad (PCBNEW 9.0.6) date 2025-12-31 13:47:15*
%MOMM*%
%LPD*%
G01*
G04 APERTURE LIST*
G04 Aperture macros list*
%AMRoundRect*
0 Rectangle with rounded corners*
0 $1 Rounding radius*
0 $2 $3 $4 $5 $6 $7 $8 $9 X,Y pos of 4 corners*
0 Add a 4 corners polygon primitive as box body*
4,1,4,$2,$3,$4,$5,$6,$7,$8,$9,$2,$3,0*
0 Add four circle primitives for the rounded corners*
1,1,$1+$1,$2,$3*
1,1,$1+$1,$4,$5*
1,1,$1+$1,$6,$7*
1,1,$1+$1,$8,$9*
0 Add four rect primitives between the rounded corners*
20,1,$1+$1,$2,$3,$4,$5,0*
20,1,$1+$1,$4,$5,$6,$7,0*
20,1,$1+$1,$6,$7,$8,$9,0*
20,1,$1+$1,$8,$9,$2,$3,0*%
G04 Aperture macros list end*
%ADD10RoundRect,0.237500X-0.250000X-0.237500X0.250000X-0.237500X0.250000X0.237500X-0.250000X0.237500X0*%
%ADD11C,1.905000*%
%ADD12R,1.525000X0.700000*%
%ADD13RoundRect,0.237500X-0.237500X0.300000X-0.237500X-0.300000X0.237500X-0.300000X0.237500X0.300000X0*%
%ADD14R,0.250000X0.075000*%
%ADD15R,1.725000X2.235000*%
%ADD16R,0.510000X0.405000*%
%ADD17R,0.990000X0.405000*%
%ADD18C,1.000000*%
%ADD19RoundRect,0.237500X-0.237500X0.250000X-0.237500X-0.250000X0.237500X-0.250000X0.237500X0.250000X0*%
%ADD20RoundRect,0.237500X0.250000X0.237500X-0.250000X0.237500X-0.250000X-0.237500X0.250000X-0.237500X0*%
%ADD21R,1.400000X0.450000*%
%ADD22RoundRect,0.062500X-0.287500X0.187500X-0.287500X-0.187500X0.287500X-0.187500X0.287500X0.187500X0*%
%ADD23RoundRect,0.250000X-0.400000X-0.625000X0.400000X-0.625000X0.400000X0.625000X-0.400000X0.625000X0*%
%ADD24RoundRect,0.237500X-0.300000X-0.237500X0.300000X-0.237500X0.300000X0.237500X-0.300000X0.237500X0*%
%ADD25RoundRect,0.250000X1.500000X1.000000X-1.500000X1.000000X-1.500000X-1.000000X1.500000X-1.000000X0*%
%ADD26RoundRect,0.237500X0.237500X-0.300000X0.237500X0.300000X-0.237500X0.300000X-0.237500X-0.300000X0*%
%ADD27R,1.500000X0.900000*%
%ADD28R,0.900000X1.500000*%
%ADD29C,0.600000*%
%ADD30R,4.200000X4.200000*%
%ADD31C,5.600000*%
%ADD32RoundRect,0.237500X0.300000X0.237500X-0.300000X0.237500X-0.300000X-0.237500X0.300000X-0.237500X0*%
%ADD33RoundRect,0.250000X0.725000X-0.600000X0.725000X0.600000X-0.725000X0.600000X-0.725000X-0.600000X0*%
%ADD34O,1.950000X1.700000*%
%ADD35C,0.650000*%
%ADD36RoundRect,0.102000X0.300000X0.570000X-0.300000X0.570000X-0.300000X-0.570000X0.300000X-0.570000X0*%
%ADD37RoundRect,0.102000X0.150000X0.570000X-0.150000X0.570000X-0.150000X-0.570000X0.150000X-0.570000X0*%
%ADD38O,1.254000X2.304000*%
%ADD39O,1.104000X2.004000*%
%ADD40RoundRect,0.250000X0.650000X-1.500000X0.650000X1.500000X-0.650000X1.500000X-0.650000X-1.500000X0*%
%ADD41R,2.900000X5.400000*%
%ADD42RoundRect,0.250000X2.050000X0.300000X-2.050000X0.300000X-2.050000X-0.300000X2.050000X-0.300000X0*%
%ADD43RoundRect,0.250002X4.449998X5.149998X-4.449998X5.149998X-4.449998X-5.149998X4.449998X-5.149998X0*%
%ADD44RoundRect,0.237500X-0.237500X0.287500X-0.237500X-0.287500X0.237500X-0.287500X0.237500X0.287500X0*%
%ADD45RoundRect,0.237500X0.237500X-0.287500X0.237500X0.287500X-0.237500X0.287500X-0.237500X-0.287500X0*%
%ADD46C,1.440000*%
%ADD47RoundRect,0.375000X0.375000X-0.625000X0.375000X0.625000X-0.375000X0.625000X-0.375000X-0.625000X0*%
%ADD48RoundRect,0.500000X1.400000X-0.500000X1.400000X0.500000X-1.400000X0.500000X-1.400000X-0.500000X0*%
%ADD49RoundRect,0.062500X-0.062500X0.337500X-0.062500X-0.337500X0.062500X-0.337500X0.062500X0.337500X0*%
%ADD50RoundRect,0.062500X-0.337500X0.062500X-0.337500X-0.062500X0.337500X-0.062500X0.337500X0.062500X0*%
%ADD51R,3.350000X3.350000*%
G04 APERTURE END LIST*
D10*
%TO.C,R14*%
X147261500Y-118014000D03*
X145436500Y-118014000D03*
%TD*%
D11*
%TO.C,J8*%
X146540000Y-134000000D03*
X141460000Y-134000000D03*
%TD*%
D10*
%TO.C,R8*%
X153161500Y-116014000D03*
X151336500Y-116014000D03*
%TD*%
D12*
%TO.C,IC2*%
X127437000Y-123499000D03*
X127437000Y-122229000D03*
X127437000Y-120959000D03*
X127437000Y-119689000D03*
X132861000Y-119689000D03*
X132861000Y-120959000D03*
X132861000Y-122229000D03*
X132861000Y-123499000D03*
%TD*%
D13*
%TO.C,C17*%
X147349000Y-121576500D03*
X147349000Y-119851500D03*
%TD*%
%TO.C,C20*%
X145349000Y-121576500D03*
X145349000Y-119851500D03*
%TD*%
D10*
%TO.C,R5*%
X130811500Y-115594000D03*
X128986500Y-115594000D03*
%TD*%
D14*
%TO.C,Q8*%
X149416000Y-113469000D03*
X149416000Y-111159000D03*
D15*
X148679000Y-112314000D03*
D16*
X149796000Y-111324000D03*
X149796000Y-111984000D03*
X149796000Y-112644000D03*
X149796000Y-113304000D03*
D17*
X146686000Y-113304000D03*
X146686000Y-112644000D03*
X146686000Y-111984000D03*
X146686000Y-111324000D03*
%TD*%
D18*
%TO.C,TP7*%
X157249000Y-116014000D03*
%TD*%
D19*
%TO.C,R19*%
X157149000Y-113826500D03*
X157149000Y-112001500D03*
%TD*%
D20*
%TO.C,R24*%
X127736500Y-125344000D03*
X129561500Y-125344000D03*
%TD*%
D19*
%TO.C,R10*%
X123649000Y-113506500D03*
X123649000Y-111681500D03*
%TD*%
D21*
%TO.C,IC3*%
X142886500Y-102044000D03*
X142886500Y-102694000D03*
X142886500Y-103344000D03*
X142886500Y-103994000D03*
X138486500Y-103994000D03*
X138486500Y-103344000D03*
X138486500Y-102694000D03*
X138486500Y-102044000D03*
%TD*%
D22*
%TO.C,D2*%
X147429000Y-124014000D03*
X147429000Y-123214000D03*
%TD*%
D20*
%TO.C,R23*%
X149536500Y-117914000D03*
X151361500Y-117914000D03*
%TD*%
D14*
%TO.C,Q6*%
X128769000Y-113489000D03*
X128769000Y-111179000D03*
D15*
X128032000Y-112334000D03*
D16*
X129149000Y-111344000D03*
X129149000Y-112004000D03*
X129149000Y-112664000D03*
X129149000Y-113324000D03*
D17*
X126039000Y-113324000D03*
X126039000Y-112664000D03*
X126039000Y-112004000D03*
X126039000Y-111344000D03*
%TD*%
D19*
%TO.C,R6*%
X135636000Y-121256500D03*
X135636000Y-119431500D03*
%TD*%
D13*
%TO.C,C21*%
X144986500Y-103856500D03*
X144986500Y-102131500D03*
%TD*%
D10*
%TO.C,R22*%
X155061500Y-117914000D03*
X153236500Y-117914000D03*
%TD*%
D18*
%TO.C,TP15*%
X136186500Y-104519000D03*
%TD*%
D23*
%TO.C,R26*%
X141986500Y-107094000D03*
X138886500Y-107094000D03*
%TD*%
D11*
%TO.C,J7*%
X136550000Y-134100000D03*
X131470000Y-134100000D03*
%TD*%
D24*
%TO.C,C18*%
X155111500Y-125314000D03*
X153386500Y-125314000D03*
%TD*%
D18*
%TO.C,TP6*%
X135899000Y-116344000D03*
%TD*%
D20*
%TO.C,R21*%
X130986500Y-117844000D03*
X132811500Y-117844000D03*
%TD*%
D14*
%TO.C,Q5*%
X134129000Y-113489000D03*
X134129000Y-111179000D03*
D15*
X133392000Y-112334000D03*
D16*
X134509000Y-111344000D03*
X134509000Y-112004000D03*
X134509000Y-112664000D03*
X134509000Y-113324000D03*
D17*
X131399000Y-113324000D03*
X131399000Y-112664000D03*
X131399000Y-112004000D03*
X131399000Y-111344000D03*
%TD*%
D18*
%TO.C,TP8*%
X149116500Y-116026000D03*
%TD*%
D22*
%TO.C,D1*%
X125149000Y-123994000D03*
X125149000Y-123194000D03*
%TD*%
D24*
%TO.C,C15*%
X133011500Y-125344000D03*
X131286500Y-125344000D03*
%TD*%
D18*
%TO.C,TP5*%
X123899000Y-115844000D03*
%TD*%
D14*
%TO.C,Q7*%
X154874000Y-113469000D03*
X154874000Y-111159000D03*
D15*
X154137000Y-112314000D03*
D16*
X155254000Y-111324000D03*
X155254000Y-111984000D03*
X155254000Y-112644000D03*
X155254000Y-113304000D03*
D17*
X152144000Y-113304000D03*
X152144000Y-112644000D03*
X152144000Y-111984000D03*
X152144000Y-111324000D03*
%TD*%
D20*
%TO.C,R25*%
X149836500Y-125314000D03*
X151661500Y-125314000D03*
%TD*%
%TO.C,R13*%
X122986500Y-117844000D03*
X124811500Y-117844000D03*
%TD*%
D13*
%TO.C,C16*%
X125149000Y-121706500D03*
X125149000Y-119981500D03*
%TD*%
D19*
%TO.C,R9*%
X136649000Y-113756500D03*
X136649000Y-111931500D03*
%TD*%
D12*
%TO.C,IC1*%
X149437000Y-123519000D03*
X149437000Y-122249000D03*
X149437000Y-120979000D03*
X149437000Y-119709000D03*
X154861000Y-119709000D03*
X154861000Y-120979000D03*
X154861000Y-122249000D03*
X154861000Y-123519000D03*
%TD*%
D19*
%TO.C,R11*%
X143929000Y-113639000D03*
X143929000Y-111814000D03*
%TD*%
D13*
%TO.C,C19*%
X123149000Y-121706500D03*
X123149000Y-119981500D03*
%TD*%
D18*
%TO.C,TP16*%
X135936500Y-102269000D03*
%TD*%
D19*
%TO.C,R7*%
X157449000Y-121726500D03*
X157449000Y-119901500D03*
%TD*%
D20*
%TO.C,R20*%
X127236500Y-117844000D03*
X129061500Y-117844000D03*
%TD*%
D25*
%TO.C,C12*%
X92357500Y-82900000D03*
X98857500Y-82900000D03*
%TD*%
D26*
%TO.C,C14*%
X132800000Y-74162500D03*
X132800000Y-72437500D03*
%TD*%
D27*
%TO.C,U2*%
X138555000Y-70285000D03*
X138555000Y-71555000D03*
X138555000Y-72825000D03*
X138555000Y-74095000D03*
X138555000Y-75365000D03*
X138555000Y-76635000D03*
X138555000Y-77905000D03*
X138555000Y-79175000D03*
X138555000Y-80445000D03*
X138555000Y-81715000D03*
X138555000Y-82985000D03*
X138555000Y-84255000D03*
X138555000Y-85525000D03*
X138555000Y-86795000D03*
D28*
X141595000Y-88045000D03*
X142865000Y-88045000D03*
X144135000Y-88045000D03*
X145405000Y-88045000D03*
X146675000Y-88045000D03*
X147945000Y-88045000D03*
X149215000Y-88045000D03*
X150485000Y-88045000D03*
X151755000Y-88045000D03*
X153025000Y-88045000D03*
D27*
X156055000Y-86795000D03*
X156055000Y-85525000D03*
X156055000Y-84255000D03*
X156055000Y-82985000D03*
X156055000Y-81715000D03*
X156055000Y-80445000D03*
X156055000Y-79175000D03*
X156055000Y-77905000D03*
X156055000Y-76635000D03*
X156055000Y-75365000D03*
X156055000Y-74095000D03*
X156055000Y-72825000D03*
X156055000Y-71555000D03*
X156055000Y-70285000D03*
D29*
X145100000Y-76862500D03*
X145100000Y-78387500D03*
X145862500Y-76100000D03*
X145862500Y-77625000D03*
X145862500Y-79150000D03*
X146625000Y-76862500D03*
D30*
X146625000Y-77625000D03*
D29*
X146625000Y-78387500D03*
X147387500Y-76100000D03*
X147387500Y-77625000D03*
X147387500Y-79150000D03*
X148150000Y-76862500D03*
X148150000Y-78387500D03*
%TD*%
D31*
%TO.C,H1*%
X93400000Y-73150000D03*
%TD*%
D13*
%TO.C,C5*%
X158300000Y-86937500D03*
X158300000Y-88662500D03*
%TD*%
D32*
%TO.C,C3*%
X167814500Y-86748000D03*
X166089500Y-86748000D03*
%TD*%
D33*
%TO.C,J5*%
X174050000Y-133000000D03*
D34*
X174050000Y-130500000D03*
X174050000Y-128000000D03*
X174050000Y-125500000D03*
X174050000Y-123000000D03*
X174050000Y-120500000D03*
%TD*%
D18*
%TO.C,TP11*%
X122300000Y-75800000D03*
%TD*%
D35*
%TO.C,J1*%
X171904000Y-73688000D03*
X166124000Y-73688000D03*
D36*
X172214000Y-74758000D03*
X171414000Y-74758000D03*
D37*
X170264000Y-74758000D03*
X169264000Y-74758000D03*
X168764000Y-74758000D03*
X167764000Y-74758000D03*
D36*
X165814000Y-74758000D03*
X166614000Y-74758000D03*
D37*
X167264000Y-74758000D03*
X168264000Y-74758000D03*
X169764000Y-74758000D03*
X170764000Y-74758000D03*
D38*
X173334000Y-74188000D03*
X164694000Y-74188000D03*
D39*
X173334000Y-70008000D03*
X164694000Y-70008000D03*
%TD*%
D13*
%TO.C,C6*%
X135800000Y-78437500D03*
X135800000Y-80162500D03*
%TD*%
%TO.C,C11*%
X101250000Y-85437500D03*
X101250000Y-87162500D03*
%TD*%
D40*
%TO.C,D4*%
X111725000Y-107900000D03*
X111725000Y-102900000D03*
%TD*%
D31*
%TO.C,H3*%
X162814000Y-131572000D03*
%TD*%
D11*
%TO.C,J6*%
X111252000Y-134366000D03*
X116332000Y-134366000D03*
%TD*%
D41*
%TO.C,L1*%
X93100000Y-95600000D03*
X103000000Y-95600000D03*
%TD*%
D18*
%TO.C,TP4*%
X133858000Y-82296000D03*
%TD*%
%TO.C,TP2*%
X172278000Y-79656000D03*
%TD*%
%TO.C,TP1*%
X172278000Y-77290000D03*
%TD*%
D42*
%TO.C,U3*%
X104500000Y-111700000D03*
X104500000Y-110000000D03*
X104500000Y-108300000D03*
D43*
X95350000Y-108300000D03*
D42*
X104500000Y-106600000D03*
X104500000Y-104900000D03*
%TD*%
D11*
%TO.C,J3*%
X102002000Y-134366000D03*
X107082000Y-134366000D03*
%TD*%
D25*
%TO.C,C9*%
X101950000Y-118500000D03*
X95450000Y-118500000D03*
%TD*%
D18*
%TO.C,TP12*%
X92275000Y-124400000D03*
%TD*%
D44*
%TO.C,F2*%
X132800000Y-76425000D03*
X132800000Y-78175000D03*
%TD*%
D32*
%TO.C,C2*%
X167814500Y-84748000D03*
X166089500Y-84748000D03*
%TD*%
D19*
%TO.C,R12*%
X108225000Y-106587500D03*
X108225000Y-108412500D03*
%TD*%
D45*
%TO.C,F1*%
X109220000Y-130161000D03*
X109220000Y-128411000D03*
%TD*%
D19*
%TO.C,R2*%
X163014000Y-72095500D03*
X163014000Y-73920500D03*
%TD*%
D26*
%TO.C,C4*%
X135800000Y-72162500D03*
X135800000Y-70437500D03*
%TD*%
D24*
%TO.C,C10*%
X104487500Y-114975000D03*
X106212500Y-114975000D03*
%TD*%
%TO.C,C13*%
X130048000Y-80800000D03*
X131773000Y-80800000D03*
%TD*%
D19*
%TO.C,R1*%
X175014000Y-72095500D03*
X175014000Y-73920500D03*
%TD*%
D18*
%TO.C,TP10*%
X112268000Y-92964000D03*
%TD*%
%TO.C,TP3*%
X160300000Y-87800000D03*
%TD*%
D46*
%TO.C,RV1*%
X107775000Y-98225000D03*
X107775000Y-95685000D03*
X107775000Y-93145000D03*
%TD*%
D47*
%TO.C,U4*%
X125500000Y-78450000D03*
X127800000Y-78450000D03*
D48*
X127800000Y-72150000D03*
D47*
X130100000Y-78450000D03*
%TD*%
D49*
%TO.C,U1*%
X174032000Y-84318000D03*
X173532000Y-84318000D03*
X173032000Y-84318000D03*
X172532000Y-84318000D03*
X172032000Y-84318000D03*
X171532000Y-84318000D03*
X171032000Y-84318000D03*
D50*
X170082000Y-85268000D03*
X170082000Y-85768000D03*
X170082000Y-86268000D03*
X170082000Y-86768000D03*
X170082000Y-87268000D03*
X170082000Y-87768000D03*
X170082000Y-88268000D03*
D49*
X171032000Y-89218000D03*
X171532000Y-89218000D03*
X172032000Y-89218000D03*
X172532000Y-89218000D03*
X173032000Y-89218000D03*
X173532000Y-89218000D03*
X174032000Y-89218000D03*
D50*
X174982000Y-88268000D03*
X174982000Y-87768000D03*
X174982000Y-87268000D03*
X174982000Y-86768000D03*
X174982000Y-86268000D03*
X174982000Y-85768000D03*
X174982000Y-85268000D03*
D51*
X172532000Y-86768000D03*
%TD*%
D31*
%TO.C,H2*%
X93300000Y-132400000D03*
%TD*%
D32*
%TO.C,C1*%
X169714500Y-83048000D03*
X167989500Y-83048000D03*
%TD*%
D33*
%TO.C,J2*%
X174000000Y-112500000D03*
D34*
X174000000Y-110000000D03*
X174000000Y-107500000D03*
X174000000Y-105000000D03*
X174000000Y-102500000D03*
X174000000Y-100000000D03*
%TD*%
M02*
