%TF.GenerationSoftware,KiCad,Pcbnew,8.0.2*%
%TF.CreationDate,2024-10-06T18:26:15+11:00*%
%TF.ProjectId,ShutterRetroFit,53687574-7465-4725-9265-74726f466974,rev?*%
%TF.SameCoordinates,Original*%
%TF.FileFunction,Paste,Top*%
%TF.FilePolarity,Positive*%
%FSLAX46Y46*%
G04 Gerber Fmt 4.6, Leading zero omitted, Abs format (unit mm)*
G04 Created by KiCad (PCBNEW 8.0.2) date 2024-10-06 18:26:15*
%MOMM*%
%LPD*%
G01*
G04 APERTURE LIST*
G04 Aperture macros list*
%AMRoundRect*
0 Rectangle with rounded corners*
0 $1 Rounding radius*
0 $2 $3 $4 $5 $6 $7 $8 $9 X,Y pos of 4 corners*
0 Add a 4 corners polygon primitive as box body*
4,1,4,$2,$3,$4,$5,$6,$7,$8,$9,$2,$3,0*
0 Add four circle primitives for the rounded corners*
1,1,$1+$1,$2,$3*
1,1,$1+$1,$4,$5*
1,1,$1+$1,$6,$7*
1,1,$1+$1,$8,$9*
0 Add four rect primitives between the rounded corners*
20,1,$1+$1,$2,$3,$4,$5,0*
20,1,$1+$1,$4,$5,$6,$7,0*
20,1,$1+$1,$6,$7,$8,$9,0*
20,1,$1+$1,$8,$9,$2,$3,0*%
G04 Aperture macros list end*
%ADD10RoundRect,0.375000X-0.625000X-0.375000X0.625000X-0.375000X0.625000X0.375000X-0.625000X0.375000X0*%
%ADD11RoundRect,0.500000X-0.500000X-1.400000X0.500000X-1.400000X0.500000X1.400000X-0.500000X1.400000X0*%
%ADD12RoundRect,0.250000X-0.300000X2.050000X-0.300000X-2.050000X0.300000X-2.050000X0.300000X2.050000X0*%
%ADD13RoundRect,0.250000X-2.375000X2.025000X-2.375000X-2.025000X2.375000X-2.025000X2.375000X2.025000X0*%
%ADD14RoundRect,0.225000X0.225000X-0.225000X0.225000X0.225000X-0.225000X0.225000X-0.225000X-0.225000X0*%
%ADD15RoundRect,0.062500X0.062500X-0.337500X0.062500X0.337500X-0.062500X0.337500X-0.062500X-0.337500X0*%
%ADD16RoundRect,0.062500X0.337500X-0.062500X0.337500X0.062500X-0.337500X0.062500X-0.337500X-0.062500X0*%
%ADD17R,1.500000X0.900000*%
%ADD18R,0.900000X1.500000*%
%ADD19R,1.050000X1.050000*%
%ADD20R,0.990000X0.405000*%
%ADD21R,0.510000X0.405000*%
%ADD22R,1.725000X2.235000*%
%ADD23R,0.250000X0.075000*%
%ADD24R,1.140000X0.600000*%
%ADD25R,1.140000X0.300000*%
G04 APERTURE END LIST*
D10*
%TO.C,U4*%
X111850000Y-97700000D03*
X111850000Y-100000000D03*
D11*
X118150000Y-100000000D03*
D10*
X111850000Y-102300000D03*
%TD*%
D12*
%TO.C,U3*%
X135400000Y-102275000D03*
X133700000Y-102275000D03*
X132000000Y-102275000D03*
D13*
X134775000Y-109000000D03*
X129225000Y-109000000D03*
X134775000Y-113850000D03*
X129225000Y-113850000D03*
D12*
X130300000Y-102275000D03*
X128600000Y-102275000D03*
%TD*%
D14*
%TO.C,U2*%
X132880000Y-93120000D03*
X134000000Y-93120000D03*
X135120000Y-93120000D03*
X132880000Y-92000000D03*
X134000000Y-92000000D03*
X135120000Y-92000000D03*
X132880000Y-90880000D03*
X134000000Y-90880000D03*
X135120000Y-90880000D03*
D15*
X132500000Y-94450000D03*
X133000000Y-94450000D03*
X133500000Y-94450000D03*
X134000000Y-94450000D03*
X134500000Y-94450000D03*
X135000000Y-94450000D03*
X135500000Y-94450000D03*
D16*
X136450000Y-93500000D03*
X136450000Y-93000000D03*
X136450000Y-92500000D03*
X136450000Y-92000000D03*
X136450000Y-91500000D03*
X136450000Y-91000000D03*
X136450000Y-90500000D03*
D15*
X135500000Y-89550000D03*
X135000000Y-89550000D03*
X134500000Y-89550000D03*
X134000000Y-89550000D03*
X133500000Y-89550000D03*
X133000000Y-89550000D03*
X132500000Y-89550000D03*
D16*
X131550000Y-90500000D03*
X131550000Y-91000000D03*
X131550000Y-91500000D03*
X131550000Y-92000000D03*
X131550000Y-92500000D03*
X131550000Y-93000000D03*
X131550000Y-93500000D03*
%TD*%
D17*
%TO.C,U1*%
X114000000Y-68570000D03*
X114000000Y-69840000D03*
X114000000Y-71110000D03*
X114000000Y-72380000D03*
X114000000Y-73650000D03*
X114000000Y-74920000D03*
X114000000Y-76190000D03*
X114000000Y-77460000D03*
X114000000Y-78730000D03*
X114000000Y-80000000D03*
X114000000Y-81270000D03*
X114000000Y-82540000D03*
X114000000Y-83810000D03*
X114000000Y-85080000D03*
D18*
X117040000Y-86330000D03*
X118310000Y-86330000D03*
X119580000Y-86330000D03*
X120850000Y-86330000D03*
X122120000Y-86330000D03*
X123390000Y-86330000D03*
X124660000Y-86330000D03*
X125930000Y-86330000D03*
X127200000Y-86330000D03*
X128470000Y-86330000D03*
D17*
X131500000Y-85080000D03*
X131500000Y-83810000D03*
X131500000Y-82540000D03*
X131500000Y-81270000D03*
X131500000Y-80000000D03*
X131500000Y-78730000D03*
X131500000Y-77460000D03*
X131500000Y-76190000D03*
X131500000Y-74920000D03*
X131500000Y-73650000D03*
X131500000Y-72380000D03*
X131500000Y-71110000D03*
X131500000Y-69840000D03*
X131500000Y-68570000D03*
D19*
X120545000Y-74385000D03*
X120545000Y-75910000D03*
X120545000Y-77435000D03*
X122070000Y-74385000D03*
X122070000Y-75910000D03*
X122070000Y-77435000D03*
X123595000Y-74385000D03*
X123595000Y-75910000D03*
X123595000Y-77435000D03*
%TD*%
D20*
%TO.C,Q2*%
X99270000Y-103610000D03*
X99270000Y-104270000D03*
X99270000Y-104930000D03*
X99270000Y-105590000D03*
D21*
X102380000Y-105590000D03*
X102380000Y-104930000D03*
X102380000Y-104270000D03*
X102380000Y-103610000D03*
D22*
X101263000Y-104600000D03*
D23*
X102000000Y-103445000D03*
X102000000Y-105755000D03*
%TD*%
D20*
%TO.C,Q1*%
X99270000Y-98010000D03*
X99270000Y-98670000D03*
X99270000Y-99330000D03*
X99270000Y-99990000D03*
D21*
X102380000Y-99990000D03*
X102380000Y-99330000D03*
X102380000Y-98670000D03*
X102380000Y-98010000D03*
D22*
X101263000Y-99000000D03*
D23*
X102000000Y-97845000D03*
X102000000Y-100155000D03*
%TD*%
D24*
%TO.C,J1*%
X138930000Y-88310000D03*
X138930000Y-87510000D03*
D25*
X138930000Y-86360000D03*
X138930000Y-85360000D03*
X138930000Y-84860000D03*
X138930000Y-83860000D03*
D24*
X138930000Y-81910000D03*
X138930000Y-82710000D03*
D25*
X138930000Y-83360000D03*
X138930000Y-84360000D03*
X138930000Y-85860000D03*
X138930000Y-86860000D03*
%TD*%
M02*
