%TF.GenerationSoftware,KiCad,Pcbnew,9.0.6*%
%TF.CreationDate,2025-12-31T13:47:15+11:00*%
%TF.ProjectId,ShutterRetroFit,53687574-7465-4725-9265-74726f466974,rev?*%
%TF.SameCoordinates,Original*%
%TF.FileFunction,Paste,Top*%
%TF.FilePolarity,Positive*%
%FSLAX46Y46*%
G04 Gerber Fmt 4.6, Leading zero omitted, Abs format (unit mm)*
G04 Created by KiCad (PCBNEW 9.0.6) date 2025-12-31 13:47:15*
%MOMM*%
%LPD*%
G01*
G04 APERTURE LIST*
G04 Aperture macros list*
%AMRoundRect*
0 Rectangle with rounded corners*
0 $1 Rounding radius*
0 $2 $3 $4 $5 $6 $7 $8 $9 X,Y pos of 4 corners*
0 Add a 4 corners polygon primitive as box body*
4,1,4,$2,$3,$4,$5,$6,$7,$8,$9,$2,$3,0*
0 Add four circle primitives for the rounded corners*
1,1,$1+$1,$2,$3*
1,1,$1+$1,$4,$5*
1,1,$1+$1,$6,$7*
1,1,$1+$1,$8,$9*
0 Add four rect primitives between the rounded corners*
20,1,$1+$1,$2,$3,$4,$5,0*
20,1,$1+$1,$4,$5,$6,$7,0*
20,1,$1+$1,$6,$7,$8,$9,0*
20,1,$1+$1,$8,$9,$2,$3,0*%
G04 Aperture macros list end*
%ADD10RoundRect,0.237500X-0.250000X-0.237500X0.250000X-0.237500X0.250000X0.237500X-0.250000X0.237500X0*%
%ADD11R,1.525000X0.700000*%
%ADD12RoundRect,0.237500X-0.237500X0.300000X-0.237500X-0.300000X0.237500X-0.300000X0.237500X0.300000X0*%
%ADD13R,0.250000X0.075000*%
%ADD14R,1.725000X2.235000*%
%ADD15R,0.510000X0.405000*%
%ADD16R,0.990000X0.405000*%
%ADD17RoundRect,0.237500X-0.237500X0.250000X-0.237500X-0.250000X0.237500X-0.250000X0.237500X0.250000X0*%
%ADD18RoundRect,0.237500X0.250000X0.237500X-0.250000X0.237500X-0.250000X-0.237500X0.250000X-0.237500X0*%
%ADD19R,1.400000X0.450000*%
%ADD20RoundRect,0.050000X-0.250000X0.100000X-0.250000X-0.100000X0.250000X-0.100000X0.250000X0.100000X0*%
%ADD21RoundRect,0.250000X-0.400000X-0.625000X0.400000X-0.625000X0.400000X0.625000X-0.400000X0.625000X0*%
%ADD22RoundRect,0.237500X-0.300000X-0.237500X0.300000X-0.237500X0.300000X0.237500X-0.300000X0.237500X0*%
%ADD23RoundRect,0.250000X1.500000X1.000000X-1.500000X1.000000X-1.500000X-1.000000X1.500000X-1.000000X0*%
%ADD24RoundRect,0.237500X0.237500X-0.300000X0.237500X0.300000X-0.237500X0.300000X-0.237500X-0.300000X0*%
%ADD25R,1.500000X0.900000*%
%ADD26R,0.900000X1.500000*%
%ADD27R,1.050000X1.050000*%
%ADD28RoundRect,0.237500X0.300000X0.237500X-0.300000X0.237500X-0.300000X-0.237500X0.300000X-0.237500X0*%
%ADD29R,0.600000X1.140000*%
%ADD30R,0.300000X1.140000*%
%ADD31RoundRect,0.250000X0.650000X-1.500000X0.650000X1.500000X-0.650000X1.500000X-0.650000X-1.500000X0*%
%ADD32R,2.900000X5.400000*%
%ADD33RoundRect,0.250000X2.025000X2.375000X-2.025000X2.375000X-2.025000X-2.375000X2.025000X-2.375000X0*%
%ADD34RoundRect,0.250000X2.050000X0.300000X-2.050000X0.300000X-2.050000X-0.300000X2.050000X-0.300000X0*%
%ADD35RoundRect,0.237500X-0.237500X0.287500X-0.237500X-0.287500X0.237500X-0.287500X0.237500X0.287500X0*%
%ADD36RoundRect,0.237500X0.237500X-0.287500X0.237500X0.287500X-0.237500X0.287500X-0.237500X-0.287500X0*%
%ADD37RoundRect,0.375000X0.375000X-0.625000X0.375000X0.625000X-0.375000X0.625000X-0.375000X-0.625000X0*%
%ADD38RoundRect,0.500000X1.400000X-0.500000X1.400000X0.500000X-1.400000X0.500000X-1.400000X-0.500000X0*%
%ADD39RoundRect,0.225000X-0.225000X0.225000X-0.225000X-0.225000X0.225000X-0.225000X0.225000X0.225000X0*%
%ADD40RoundRect,0.062500X-0.062500X0.337500X-0.062500X-0.337500X0.062500X-0.337500X0.062500X0.337500X0*%
%ADD41RoundRect,0.062500X-0.337500X0.062500X-0.337500X-0.062500X0.337500X-0.062500X0.337500X0.062500X0*%
G04 APERTURE END LIST*
D10*
%TO.C,R14*%
X147261500Y-118014000D03*
X145436500Y-118014000D03*
%TD*%
%TO.C,R8*%
X153161500Y-116014000D03*
X151336500Y-116014000D03*
%TD*%
D11*
%TO.C,IC2*%
X127437000Y-123499000D03*
X127437000Y-122229000D03*
X127437000Y-120959000D03*
X127437000Y-119689000D03*
X132861000Y-119689000D03*
X132861000Y-120959000D03*
X132861000Y-122229000D03*
X132861000Y-123499000D03*
%TD*%
D12*
%TO.C,C17*%
X147349000Y-121576500D03*
X147349000Y-119851500D03*
%TD*%
%TO.C,C20*%
X145349000Y-121576500D03*
X145349000Y-119851500D03*
%TD*%
D10*
%TO.C,R5*%
X130811500Y-115594000D03*
X128986500Y-115594000D03*
%TD*%
D13*
%TO.C,Q8*%
X149416000Y-113469000D03*
X149416000Y-111159000D03*
D14*
X148679000Y-112314000D03*
D15*
X149796000Y-111324000D03*
X149796000Y-111984000D03*
X149796000Y-112644000D03*
X149796000Y-113304000D03*
D16*
X146686000Y-113304000D03*
X146686000Y-112644000D03*
X146686000Y-111984000D03*
X146686000Y-111324000D03*
%TD*%
D17*
%TO.C,R19*%
X157149000Y-113826500D03*
X157149000Y-112001500D03*
%TD*%
D18*
%TO.C,R24*%
X127736500Y-125344000D03*
X129561500Y-125344000D03*
%TD*%
D17*
%TO.C,R10*%
X123649000Y-113506500D03*
X123649000Y-111681500D03*
%TD*%
D19*
%TO.C,IC3*%
X142886500Y-102044000D03*
X142886500Y-102694000D03*
X142886500Y-103344000D03*
X142886500Y-103994000D03*
X138486500Y-103994000D03*
X138486500Y-103344000D03*
X138486500Y-102694000D03*
X138486500Y-102044000D03*
%TD*%
D20*
%TO.C,D2*%
X147429000Y-123964000D03*
X147429000Y-123264000D03*
%TD*%
D18*
%TO.C,R23*%
X149536500Y-117914000D03*
X151361500Y-117914000D03*
%TD*%
D13*
%TO.C,Q6*%
X128769000Y-113489000D03*
X128769000Y-111179000D03*
D14*
X128032000Y-112334000D03*
D15*
X129149000Y-111344000D03*
X129149000Y-112004000D03*
X129149000Y-112664000D03*
X129149000Y-113324000D03*
D16*
X126039000Y-113324000D03*
X126039000Y-112664000D03*
X126039000Y-112004000D03*
X126039000Y-111344000D03*
%TD*%
D17*
%TO.C,R6*%
X135636000Y-121256500D03*
X135636000Y-119431500D03*
%TD*%
D12*
%TO.C,C21*%
X144986500Y-103856500D03*
X144986500Y-102131500D03*
%TD*%
D10*
%TO.C,R22*%
X155061500Y-117914000D03*
X153236500Y-117914000D03*
%TD*%
D21*
%TO.C,R26*%
X141986500Y-107094000D03*
X138886500Y-107094000D03*
%TD*%
D22*
%TO.C,C18*%
X155111500Y-125314000D03*
X153386500Y-125314000D03*
%TD*%
D18*
%TO.C,R21*%
X130986500Y-117844000D03*
X132811500Y-117844000D03*
%TD*%
D13*
%TO.C,Q5*%
X134129000Y-113489000D03*
X134129000Y-111179000D03*
D14*
X133392000Y-112334000D03*
D15*
X134509000Y-111344000D03*
X134509000Y-112004000D03*
X134509000Y-112664000D03*
X134509000Y-113324000D03*
D16*
X131399000Y-113324000D03*
X131399000Y-112664000D03*
X131399000Y-112004000D03*
X131399000Y-111344000D03*
%TD*%
D20*
%TO.C,D1*%
X125149000Y-123944000D03*
X125149000Y-123244000D03*
%TD*%
D22*
%TO.C,C15*%
X133011500Y-125344000D03*
X131286500Y-125344000D03*
%TD*%
D13*
%TO.C,Q7*%
X154874000Y-113469000D03*
X154874000Y-111159000D03*
D14*
X154137000Y-112314000D03*
D15*
X155254000Y-111324000D03*
X155254000Y-111984000D03*
X155254000Y-112644000D03*
X155254000Y-113304000D03*
D16*
X152144000Y-113304000D03*
X152144000Y-112644000D03*
X152144000Y-111984000D03*
X152144000Y-111324000D03*
%TD*%
D18*
%TO.C,R25*%
X149836500Y-125314000D03*
X151661500Y-125314000D03*
%TD*%
%TO.C,R13*%
X122986500Y-117844000D03*
X124811500Y-117844000D03*
%TD*%
D12*
%TO.C,C16*%
X125149000Y-121706500D03*
X125149000Y-119981500D03*
%TD*%
D17*
%TO.C,R9*%
X136649000Y-113756500D03*
X136649000Y-111931500D03*
%TD*%
D11*
%TO.C,IC1*%
X149437000Y-123519000D03*
X149437000Y-122249000D03*
X149437000Y-120979000D03*
X149437000Y-119709000D03*
X154861000Y-119709000D03*
X154861000Y-120979000D03*
X154861000Y-122249000D03*
X154861000Y-123519000D03*
%TD*%
D17*
%TO.C,R11*%
X143929000Y-113639000D03*
X143929000Y-111814000D03*
%TD*%
D12*
%TO.C,C19*%
X123149000Y-121706500D03*
X123149000Y-119981500D03*
%TD*%
D17*
%TO.C,R7*%
X157449000Y-121726500D03*
X157449000Y-119901500D03*
%TD*%
D18*
%TO.C,R20*%
X127236500Y-117844000D03*
X129061500Y-117844000D03*
%TD*%
D23*
%TO.C,C12*%
X92357500Y-82900000D03*
X98857500Y-82900000D03*
%TD*%
D24*
%TO.C,C14*%
X132800000Y-74162500D03*
X132800000Y-72437500D03*
%TD*%
D25*
%TO.C,U2*%
X138555000Y-70285000D03*
X138555000Y-71555000D03*
X138555000Y-72825000D03*
X138555000Y-74095000D03*
X138555000Y-75365000D03*
X138555000Y-76635000D03*
X138555000Y-77905000D03*
X138555000Y-79175000D03*
X138555000Y-80445000D03*
X138555000Y-81715000D03*
X138555000Y-82985000D03*
X138555000Y-84255000D03*
X138555000Y-85525000D03*
X138555000Y-86795000D03*
D26*
X141595000Y-88045000D03*
X142865000Y-88045000D03*
X144135000Y-88045000D03*
X145405000Y-88045000D03*
X146675000Y-88045000D03*
X147945000Y-88045000D03*
X149215000Y-88045000D03*
X150485000Y-88045000D03*
X151755000Y-88045000D03*
X153025000Y-88045000D03*
D25*
X156055000Y-86795000D03*
X156055000Y-85525000D03*
X156055000Y-84255000D03*
X156055000Y-82985000D03*
X156055000Y-81715000D03*
X156055000Y-80445000D03*
X156055000Y-79175000D03*
X156055000Y-77905000D03*
X156055000Y-76635000D03*
X156055000Y-75365000D03*
X156055000Y-74095000D03*
X156055000Y-72825000D03*
X156055000Y-71555000D03*
X156055000Y-70285000D03*
D27*
X145100000Y-76100000D03*
X145100000Y-77625000D03*
X145100000Y-79150000D03*
X146625000Y-76100000D03*
X146625000Y-77625000D03*
X146625000Y-79150000D03*
X148150000Y-76100000D03*
X148150000Y-77625000D03*
X148150000Y-79150000D03*
%TD*%
D12*
%TO.C,C5*%
X158300000Y-86937500D03*
X158300000Y-88662500D03*
%TD*%
D28*
%TO.C,C3*%
X167814500Y-86748000D03*
X166089500Y-86748000D03*
%TD*%
D29*
%TO.C,J1*%
X172214000Y-74758000D03*
X171414000Y-74758000D03*
D30*
X170264000Y-74758000D03*
X169264000Y-74758000D03*
X168764000Y-74758000D03*
X167764000Y-74758000D03*
D29*
X165814000Y-74758000D03*
X166614000Y-74758000D03*
D30*
X167264000Y-74758000D03*
X168264000Y-74758000D03*
X169764000Y-74758000D03*
X170764000Y-74758000D03*
%TD*%
D12*
%TO.C,C6*%
X135800000Y-78437500D03*
X135800000Y-80162500D03*
%TD*%
%TO.C,C11*%
X101250000Y-85437500D03*
X101250000Y-87162500D03*
%TD*%
D31*
%TO.C,D4*%
X111725000Y-107900000D03*
X111725000Y-102900000D03*
%TD*%
D32*
%TO.C,L1*%
X93100000Y-95600000D03*
X103000000Y-95600000D03*
%TD*%
D33*
%TO.C,U3*%
X97775000Y-111075000D03*
X97775000Y-105525000D03*
X92925000Y-111075000D03*
X92925000Y-105525000D03*
D34*
X104500000Y-111700000D03*
X104500000Y-110000000D03*
X104500000Y-108300000D03*
X104500000Y-106600000D03*
X104500000Y-104900000D03*
%TD*%
D23*
%TO.C,C9*%
X101950000Y-118500000D03*
X95450000Y-118500000D03*
%TD*%
D35*
%TO.C,F2*%
X132800000Y-76425000D03*
X132800000Y-78175000D03*
%TD*%
D28*
%TO.C,C2*%
X167814500Y-84748000D03*
X166089500Y-84748000D03*
%TD*%
D17*
%TO.C,R12*%
X108225000Y-106587500D03*
X108225000Y-108412500D03*
%TD*%
D36*
%TO.C,F1*%
X109220000Y-130161000D03*
X109220000Y-128411000D03*
%TD*%
D17*
%TO.C,R2*%
X163014000Y-72095500D03*
X163014000Y-73920500D03*
%TD*%
D24*
%TO.C,C4*%
X135800000Y-72162500D03*
X135800000Y-70437500D03*
%TD*%
D22*
%TO.C,C10*%
X104487500Y-114975000D03*
X106212500Y-114975000D03*
%TD*%
%TO.C,C13*%
X130048000Y-80800000D03*
X131773000Y-80800000D03*
%TD*%
D17*
%TO.C,R1*%
X175014000Y-72095500D03*
X175014000Y-73920500D03*
%TD*%
D37*
%TO.C,U4*%
X125500000Y-78450000D03*
X127800000Y-78450000D03*
D38*
X127800000Y-72150000D03*
D37*
X130100000Y-78450000D03*
%TD*%
D39*
%TO.C,U1*%
X173652000Y-85648000D03*
X172532000Y-85648000D03*
X171412000Y-85648000D03*
X173652000Y-86768000D03*
X172532000Y-86768000D03*
X171412000Y-86768000D03*
X173652000Y-87888000D03*
X172532000Y-87888000D03*
X171412000Y-87888000D03*
D40*
X174032000Y-84318000D03*
X173532000Y-84318000D03*
X173032000Y-84318000D03*
X172532000Y-84318000D03*
X172032000Y-84318000D03*
X171532000Y-84318000D03*
X171032000Y-84318000D03*
D41*
X170082000Y-85268000D03*
X170082000Y-85768000D03*
X170082000Y-86268000D03*
X170082000Y-86768000D03*
X170082000Y-87268000D03*
X170082000Y-87768000D03*
X170082000Y-88268000D03*
D40*
X171032000Y-89218000D03*
X171532000Y-89218000D03*
X172032000Y-89218000D03*
X172532000Y-89218000D03*
X173032000Y-89218000D03*
X173532000Y-89218000D03*
X174032000Y-89218000D03*
D41*
X174982000Y-88268000D03*
X174982000Y-87768000D03*
X174982000Y-87268000D03*
X174982000Y-86768000D03*
X174982000Y-86268000D03*
X174982000Y-85768000D03*
X174982000Y-85268000D03*
%TD*%
D28*
%TO.C,C1*%
X169714500Y-83048000D03*
X167989500Y-83048000D03*
%TD*%
M02*
