M48
; DRILL file {KiCad 8.0.2} date 2024-10-06T18:26:17+1100
; FORMAT={-:-/ absolute / inch / decimal}
; #@! TF.CreationDate,2024-10-06T18:26:17+11:00
; #@! TF.GenerationSoftware,Kicad,Pcbnew,8.0.2
; #@! TF.FileFunction,Plated,1,4,PTH
FMAT,2
INCH
; #@! TA.AperFunction,Plated,PTH,ComponentDrill
T1C0.0079
; #@! TA.AperFunction,Plated,PTH,ComponentDrill
T2C0.0236
%
G90
G05
T1
X4.7459Y-2.9586
X4.7459Y-3.0186
X4.7759Y-2.9285
X4.7759Y-2.9886
X4.7759Y-3.0486
X4.8059Y-2.9586
X4.8059Y-3.0186
X4.8359Y-2.9285
X4.8359Y-2.9886
X4.8359Y-3.0486
X4.8659Y-2.9586
X4.8659Y-3.0186
T2
G00X5.4705Y-3.1807
M15
G01X5.5138Y-3.1807
M16
G05
G00X5.4705Y-3.5209
M15
G01X5.5138Y-3.5209
M16
G05
G00X5.6409Y-3.1807
M15
G01X5.6724Y-3.1807
M16
G05
G00X5.6409Y-3.5209
M15
G01X5.6724Y-3.5209
M16
G05
M30
