%TF.GenerationSoftware,KiCad,Pcbnew,8.0.2*%
%TF.CreationDate,2024-10-06T18:26:15+11:00*%
%TF.ProjectId,ShutterRetroFit,53687574-7465-4725-9265-74726f466974,rev?*%
%TF.SameCoordinates,Original*%
%TF.FileFunction,Copper,L1,Top*%
%TF.FilePolarity,Positive*%
%FSLAX46Y46*%
G04 Gerber Fmt 4.6, Leading zero omitted, Abs format (unit mm)*
G04 Created by KiCad (PCBNEW 8.0.2) date 2024-10-06 18:26:15*
%MOMM*%
%LPD*%
G01*
G04 APERTURE LIST*
G04 Aperture macros list*
%AMRoundRect*
0 Rectangle with rounded corners*
0 $1 Rounding radius*
0 $2 $3 $4 $5 $6 $7 $8 $9 X,Y pos of 4 corners*
0 Add a 4 corners polygon primitive as box body*
4,1,4,$2,$3,$4,$5,$6,$7,$8,$9,$2,$3,0*
0 Add four circle primitives for the rounded corners*
1,1,$1+$1,$2,$3*
1,1,$1+$1,$4,$5*
1,1,$1+$1,$6,$7*
1,1,$1+$1,$8,$9*
0 Add four rect primitives between the rounded corners*
20,1,$1+$1,$2,$3,$4,$5,0*
20,1,$1+$1,$4,$5,$6,$7,0*
20,1,$1+$1,$6,$7,$8,$9,0*
20,1,$1+$1,$8,$9,$2,$3,0*%
G04 Aperture macros list end*
%TA.AperFunction,SMDPad,CuDef*%
%ADD10RoundRect,0.375000X-0.625000X-0.375000X0.625000X-0.375000X0.625000X0.375000X-0.625000X0.375000X0*%
%TD*%
%TA.AperFunction,SMDPad,CuDef*%
%ADD11RoundRect,0.500000X-0.500000X-1.400000X0.500000X-1.400000X0.500000X1.400000X-0.500000X1.400000X0*%
%TD*%
%TA.AperFunction,SMDPad,CuDef*%
%ADD12RoundRect,0.250000X-0.300000X2.050000X-0.300000X-2.050000X0.300000X-2.050000X0.300000X2.050000X0*%
%TD*%
%TA.AperFunction,SMDPad,CuDef*%
%ADD13RoundRect,0.250000X-2.375000X2.025000X-2.375000X-2.025000X2.375000X-2.025000X2.375000X2.025000X0*%
%TD*%
%TA.AperFunction,SMDPad,CuDef*%
%ADD14RoundRect,0.250002X-5.149998X4.449998X-5.149998X-4.449998X5.149998X-4.449998X5.149998X4.449998X0*%
%TD*%
%TA.AperFunction,SMDPad,CuDef*%
%ADD15RoundRect,0.062500X0.062500X-0.337500X0.062500X0.337500X-0.062500X0.337500X-0.062500X-0.337500X0*%
%TD*%
%TA.AperFunction,SMDPad,CuDef*%
%ADD16RoundRect,0.062500X0.337500X-0.062500X0.337500X0.062500X-0.337500X0.062500X-0.337500X-0.062500X0*%
%TD*%
%TA.AperFunction,HeatsinkPad*%
%ADD17R,3.350000X3.350000*%
%TD*%
%TA.AperFunction,SMDPad,CuDef*%
%ADD18R,1.500000X0.900000*%
%TD*%
%TA.AperFunction,SMDPad,CuDef*%
%ADD19R,0.900000X1.500000*%
%TD*%
%TA.AperFunction,SMDPad,CuDef*%
%ADD20R,1.050000X1.050000*%
%TD*%
%TA.AperFunction,HeatsinkPad*%
%ADD21C,0.600000*%
%TD*%
%TA.AperFunction,SMDPad,CuDef*%
%ADD22R,4.200000X4.200000*%
%TD*%
%TA.AperFunction,SMDPad,CuDef*%
%ADD23R,0.990000X0.405000*%
%TD*%
%TA.AperFunction,SMDPad,CuDef*%
%ADD24R,0.510000X0.405000*%
%TD*%
%TA.AperFunction,SMDPad,CuDef*%
%ADD25R,1.725000X2.235000*%
%TD*%
%TA.AperFunction,SMDPad,CuDef*%
%ADD26R,0.250000X0.075000*%
%TD*%
%TA.AperFunction,SMDPad,CuDef*%
%ADD27R,1.140000X0.600000*%
%TD*%
%TA.AperFunction,SMDPad,CuDef*%
%ADD28R,1.140000X0.300000*%
%TD*%
%TA.AperFunction,ComponentPad*%
%ADD29O,2.100000X1.050000*%
%TD*%
%TA.AperFunction,ComponentPad*%
%ADD30O,1.800000X0.900000*%
%TD*%
G04 APERTURE END LIST*
D10*
%TO.P,U4,1,GND*%
%TO.N,unconnected-(U4-GND-Pad1)*%
X111850000Y-97700000D03*
%TO.P,U4,2,VO*%
%TO.N,unconnected-(U4-VO-Pad2)*%
X111850000Y-100000000D03*
D11*
X118150000Y-100000000D03*
D10*
%TO.P,U4,3,VI*%
%TO.N,unconnected-(U4-VI-Pad3)*%
X111850000Y-102300000D03*
%TD*%
D12*
%TO.P,U3,1,VIN*%
%TO.N,unconnected-(U3-VIN-Pad1)*%
X135400000Y-102275000D03*
%TO.P,U3,2,OUT*%
%TO.N,unconnected-(U3-OUT-Pad2)*%
X133700000Y-102275000D03*
%TO.P,U3,3,GND*%
%TO.N,unconnected-(U3-GND-Pad3)*%
X132000000Y-102275000D03*
D13*
X134775000Y-109000000D03*
X129225000Y-109000000D03*
D14*
X132000000Y-111425000D03*
D13*
X134775000Y-113850000D03*
X129225000Y-113850000D03*
D12*
%TO.P,U3,4,FB*%
%TO.N,unconnected-(U3-FB-Pad4)*%
X130300000Y-102275000D03*
%TO.P,U3,5,~{ON}/OFF*%
%TO.N,unconnected-(U3-~{ON}{slash}OFF-Pad5)*%
X128600000Y-102275000D03*
%TD*%
D15*
%TO.P,U2,1,~{DCD}*%
%TO.N,unconnected-(U2-~{DCD}-Pad1)*%
X132500000Y-94450000D03*
%TO.P,U2,2,~{RI}/CLK*%
%TO.N,unconnected-(U2-~{RI}{slash}CLK-Pad2)*%
X133000000Y-94450000D03*
%TO.P,U2,3,GND*%
%TO.N,Net-(U2-GND-Pad29)*%
X133500000Y-94450000D03*
%TO.P,U2,4,D+*%
%TO.N,unconnected-(U2-D+-Pad4)*%
X134000000Y-94450000D03*
%TO.P,U2,5,D-*%
%TO.N,unconnected-(U2-D--Pad5)*%
X134500000Y-94450000D03*
%TO.P,U2,6,VDD*%
%TO.N,unconnected-(U2-VDD-Pad6)*%
X135000000Y-94450000D03*
%TO.P,U2,7,VREGIN*%
%TO.N,unconnected-(U2-VREGIN-Pad7)*%
X135500000Y-94450000D03*
D16*
%TO.P,U2,8,VBUS*%
%TO.N,unconnected-(U2-VBUS-Pad8)*%
X136450000Y-93500000D03*
%TO.P,U2,9,~{RST}*%
%TO.N,unconnected-(U2-~{RST}-Pad9)*%
X136450000Y-93000000D03*
%TO.P,U2,10,NC*%
%TO.N,unconnected-(U2-NC-Pad10)*%
X136450000Y-92500000D03*
%TO.P,U2,11,~{SUSPEND}*%
%TO.N,unconnected-(U2-~{SUSPEND}-Pad11)*%
X136450000Y-92000000D03*
%TO.P,U2,12,SUSPEND*%
%TO.N,unconnected-(U2-SUSPEND-Pad12)*%
X136450000Y-91500000D03*
%TO.P,U2,13,CHREN*%
%TO.N,unconnected-(U2-CHREN-Pad13)*%
X136450000Y-91000000D03*
%TO.P,U2,14,CHR1*%
%TO.N,unconnected-(U2-CHR1-Pad14)*%
X136450000Y-90500000D03*
D15*
%TO.P,U2,15,CHR0*%
%TO.N,unconnected-(U2-CHR0-Pad15)*%
X135500000Y-89550000D03*
%TO.P,U2,16,~{WAKEUP}/GPIO.3*%
%TO.N,unconnected-(U2-~{WAKEUP}{slash}GPIO.3-Pad16)*%
X135000000Y-89550000D03*
%TO.P,U2,17,RS485/GPIO.2*%
%TO.N,unconnected-(U2-RS485{slash}GPIO.2-Pad17)*%
X134500000Y-89550000D03*
%TO.P,U2,18,~{RXT}/GPIO.1*%
%TO.N,unconnected-(U2-~{RXT}{slash}GPIO.1-Pad18)*%
X134000000Y-89550000D03*
%TO.P,U2,19,~{TXT}/GPIO.0*%
%TO.N,unconnected-(U2-~{TXT}{slash}GPIO.0-Pad19)*%
X133500000Y-89550000D03*
%TO.P,U2,20,GPIO.6*%
%TO.N,unconnected-(U2-GPIO.6-Pad20)*%
X133000000Y-89550000D03*
%TO.P,U2,21,GPIO.5*%
%TO.N,unconnected-(U2-GPIO.5-Pad21)*%
X132500000Y-89550000D03*
D16*
%TO.P,U2,22,GPIO.4*%
%TO.N,unconnected-(U2-GPIO.4-Pad22)*%
X131550000Y-90500000D03*
%TO.P,U2,23,~{CTS}*%
%TO.N,unconnected-(U2-~{CTS}-Pad23)*%
X131550000Y-91000000D03*
%TO.P,U2,24,~{RTS}*%
%TO.N,unconnected-(U2-~{RTS}-Pad24)*%
X131550000Y-91500000D03*
%TO.P,U2,25,RXD*%
%TO.N,unconnected-(U2-RXD-Pad25)*%
X131550000Y-92000000D03*
%TO.P,U2,26,TXD*%
%TO.N,unconnected-(U2-TXD-Pad26)*%
X131550000Y-92500000D03*
%TO.P,U2,27,~{DSR}*%
%TO.N,unconnected-(U2-~{DSR}-Pad27)*%
X131550000Y-93000000D03*
%TO.P,U2,28,~{DTR}*%
%TO.N,unconnected-(U2-~{DTR}-Pad28)*%
X131550000Y-93500000D03*
D17*
%TO.P,U2,29,GND*%
%TO.N,Net-(U2-GND-Pad29)*%
X134000000Y-92000000D03*
%TD*%
D18*
%TO.P,U1,1,GND*%
%TO.N,Net-(U1-GND-Pad1)*%
X114000000Y-68570000D03*
%TO.P,U1,2,VDD*%
%TO.N,unconnected-(U1-VDD-Pad2)*%
X114000000Y-69840000D03*
%TO.P,U1,3,EN*%
%TO.N,unconnected-(U1-EN-Pad3)*%
X114000000Y-71110000D03*
%TO.P,U1,4,SENSOR_VP*%
%TO.N,unconnected-(U1-SENSOR_VP-Pad4)*%
X114000000Y-72380000D03*
%TO.P,U1,5,SENSOR_VN*%
%TO.N,unconnected-(U1-SENSOR_VN-Pad5)*%
X114000000Y-73650000D03*
%TO.P,U1,6,IO34*%
%TO.N,unconnected-(U1-IO34-Pad6)*%
X114000000Y-74920000D03*
%TO.P,U1,7,IO35*%
%TO.N,unconnected-(U1-IO35-Pad7)*%
X114000000Y-76190000D03*
%TO.P,U1,8,IO32*%
%TO.N,unconnected-(U1-IO32-Pad8)*%
X114000000Y-77460000D03*
%TO.P,U1,9,IO33*%
%TO.N,unconnected-(U1-IO33-Pad9)*%
X114000000Y-78730000D03*
%TO.P,U1,10,IO25*%
%TO.N,unconnected-(U1-IO25-Pad10)*%
X114000000Y-80000000D03*
%TO.P,U1,11,IO26*%
%TO.N,unconnected-(U1-IO26-Pad11)*%
X114000000Y-81270000D03*
%TO.P,U1,12,IO27*%
%TO.N,unconnected-(U1-IO27-Pad12)*%
X114000000Y-82540000D03*
%TO.P,U1,13,IO14*%
%TO.N,unconnected-(U1-IO14-Pad13)*%
X114000000Y-83810000D03*
%TO.P,U1,14,IO12*%
%TO.N,unconnected-(U1-IO12-Pad14)*%
X114000000Y-85080000D03*
D19*
%TO.P,U1,15,GND*%
%TO.N,Net-(U1-GND-Pad1)*%
X117040000Y-86330000D03*
%TO.P,U1,16,IO13*%
%TO.N,unconnected-(U1-IO13-Pad16)*%
X118310000Y-86330000D03*
%TO.P,U1,17,SHD/SD2*%
%TO.N,unconnected-(U1-SHD{slash}SD2-Pad17)*%
X119580000Y-86330000D03*
%TO.P,U1,18,SWP/SD3*%
%TO.N,unconnected-(U1-SWP{slash}SD3-Pad18)*%
X120850000Y-86330000D03*
%TO.P,U1,19,SCS/CMD*%
%TO.N,unconnected-(U1-SCS{slash}CMD-Pad19)*%
X122120000Y-86330000D03*
%TO.P,U1,20,SCK/CLK*%
%TO.N,unconnected-(U1-SCK{slash}CLK-Pad20)*%
X123390000Y-86330000D03*
%TO.P,U1,21,SDO/SD0*%
%TO.N,unconnected-(U1-SDO{slash}SD0-Pad21)*%
X124660000Y-86330000D03*
%TO.P,U1,22,SDI/SD1*%
%TO.N,unconnected-(U1-SDI{slash}SD1-Pad22)*%
X125930000Y-86330000D03*
%TO.P,U1,23,IO15*%
%TO.N,unconnected-(U1-IO15-Pad23)*%
X127200000Y-86330000D03*
%TO.P,U1,24,IO2*%
%TO.N,unconnected-(U1-IO2-Pad24)*%
X128470000Y-86330000D03*
D18*
%TO.P,U1,25,IO0*%
%TO.N,unconnected-(U1-IO0-Pad25)*%
X131500000Y-85080000D03*
%TO.P,U1,26,IO4*%
%TO.N,unconnected-(U1-IO4-Pad26)*%
X131500000Y-83810000D03*
%TO.P,U1,27,IO16*%
%TO.N,unconnected-(U1-IO16-Pad27)*%
X131500000Y-82540000D03*
%TO.P,U1,28,IO17*%
%TO.N,unconnected-(U1-IO17-Pad28)*%
X131500000Y-81270000D03*
%TO.P,U1,29,IO5*%
%TO.N,unconnected-(U1-IO5-Pad29)*%
X131500000Y-80000000D03*
%TO.P,U1,30,IO18*%
%TO.N,unconnected-(U1-IO18-Pad30)*%
X131500000Y-78730000D03*
%TO.P,U1,31,IO19*%
%TO.N,unconnected-(U1-IO19-Pad31)*%
X131500000Y-77460000D03*
%TO.P,U1,32,NC*%
%TO.N,unconnected-(U1-NC-Pad32)*%
X131500000Y-76190000D03*
%TO.P,U1,33,IO21*%
%TO.N,unconnected-(U1-IO21-Pad33)*%
X131500000Y-74920000D03*
%TO.P,U1,34,RXD0/IO3*%
%TO.N,unconnected-(U1-RXD0{slash}IO3-Pad34)*%
X131500000Y-73650000D03*
%TO.P,U1,35,TXD0/IO1*%
%TO.N,unconnected-(U1-TXD0{slash}IO1-Pad35)*%
X131500000Y-72380000D03*
%TO.P,U1,36,IO22*%
%TO.N,unconnected-(U1-IO22-Pad36)*%
X131500000Y-71110000D03*
%TO.P,U1,37,IO23*%
%TO.N,unconnected-(U1-IO23-Pad37)*%
X131500000Y-69840000D03*
%TO.P,U1,38,GND*%
%TO.N,Net-(U1-GND-Pad1)*%
X131500000Y-68570000D03*
D20*
%TO.P,U1,39,GND*%
X120545000Y-74385000D03*
D21*
X120545000Y-75147500D03*
D20*
X120545000Y-75910000D03*
D21*
X120545000Y-76672500D03*
D20*
X120545000Y-77435000D03*
D21*
X121307500Y-74385000D03*
X121307500Y-75910000D03*
X121307500Y-77435000D03*
D20*
X122070000Y-74385000D03*
D21*
X122070000Y-75147500D03*
D20*
X122070000Y-75910000D03*
D22*
X122070000Y-75910000D03*
D21*
X122070000Y-76672500D03*
D20*
X122070000Y-77435000D03*
D21*
X122832500Y-74385000D03*
X122832500Y-75910000D03*
X122832500Y-77435000D03*
D20*
X123595000Y-74385000D03*
D21*
X123595000Y-75147500D03*
D20*
X123595000Y-75910000D03*
D21*
X123595000Y-76672500D03*
D20*
X123595000Y-77435000D03*
%TD*%
D23*
%TO.P,Q2,1,S_1*%
%TO.N,GND*%
X99270000Y-103610000D03*
%TO.P,Q2,2,S_2*%
X99270000Y-104270000D03*
%TO.P,Q2,3,S_3*%
X99270000Y-104930000D03*
%TO.P,Q2,4,G*%
%TO.N,unconnected-(Q2-G-Pad4)*%
X99270000Y-105590000D03*
D24*
%TO.P,Q2,5,D_1*%
%TO.N,+12V*%
X102380000Y-105590000D03*
%TO.P,Q2,6,D_2*%
X102380000Y-104930000D03*
%TO.P,Q2,7,D_3*%
X102380000Y-104270000D03*
%TO.P,Q2,8,D_4*%
X102380000Y-103610000D03*
D25*
%TO.P,Q2,9,D_5*%
X101263000Y-104600000D03*
D26*
%TO.P,Q2,10,D_6*%
X102000000Y-103445000D03*
%TO.P,Q2,11,D_7*%
X102000000Y-105755000D03*
%TD*%
D23*
%TO.P,Q1,1,S_1*%
%TO.N,GND*%
X99270000Y-98010000D03*
%TO.P,Q1,2,S_2*%
X99270000Y-98670000D03*
%TO.P,Q1,3,S_3*%
X99270000Y-99330000D03*
%TO.P,Q1,4,G*%
%TO.N,unconnected-(Q1-G-Pad4)*%
X99270000Y-99990000D03*
D24*
%TO.P,Q1,5,D_1*%
%TO.N,+12V*%
X102380000Y-99990000D03*
%TO.P,Q1,6,D_2*%
X102380000Y-99330000D03*
%TO.P,Q1,7,D_3*%
X102380000Y-98670000D03*
%TO.P,Q1,8,D_4*%
X102380000Y-98010000D03*
D25*
%TO.P,Q1,9,D_5*%
X101263000Y-99000000D03*
D26*
%TO.P,Q1,10,D_6*%
X102000000Y-97845000D03*
%TO.P,Q1,11,D_7*%
X102000000Y-100155000D03*
%TD*%
D27*
%TO.P,J1,A1_B12,GND*%
%TO.N,unconnected-(J1-GND-PadA1_B12)*%
X138930000Y-88310000D03*
%TO.P,J1,A4_B9,VBUS*%
%TO.N,unconnected-(J1-VBUS-PadA4_B9)*%
X138930000Y-87510000D03*
D28*
%TO.P,J1,A5,CC1_A*%
%TO.N,unconnected-(J1-CC1_A-PadA5)*%
X138930000Y-86360000D03*
%TO.P,J1,A6,D+_A*%
%TO.N,unconnected-(J1-D+_A-PadA6)*%
X138930000Y-85360000D03*
%TO.P,J1,A7,D-_A*%
%TO.N,unconnected-(J1-D-_A-PadA7)*%
X138930000Y-84860000D03*
%TO.P,J1,A8,SBU1*%
%TO.N,unconnected-(J1-SBU1-PadA8)*%
X138930000Y-83860000D03*
D27*
%TO.P,J1,B1_A12,GND__1*%
%TO.N,unconnected-(J1-GND__1-PadB1_A12)*%
X138930000Y-81910000D03*
%TO.P,J1,B4_A9,VBUS__1*%
%TO.N,unconnected-(J1-VBUS__1-PadB4_A9)*%
X138930000Y-82710000D03*
D28*
%TO.P,J1,B5,CC1_B*%
%TO.N,unconnected-(J1-CC1_B-PadB5)*%
X138930000Y-83360000D03*
%TO.P,J1,B6,D+_B*%
%TO.N,unconnected-(J1-D+_B-PadB6)*%
X138930000Y-84360000D03*
%TO.P,J1,B7,D-_B*%
%TO.N,unconnected-(J1-D-_B-PadB7)*%
X138930000Y-85860000D03*
%TO.P,J1,B8,SBU2*%
%TO.N,unconnected-(J1-SBU2-PadB8)*%
X138930000Y-86860000D03*
D29*
%TO.P,J1,SH1,SHIELD*%
%TO.N,unconnected-(J1-SHIELD-PadSH1)*%
X139500000Y-89430000D03*
%TO.P,J1,SH2,SHIELD__1*%
%TO.N,unconnected-(J1-SHIELD__1-PadSH2)*%
X139500000Y-80790000D03*
D30*
%TO.P,J1,SH3,SHIELD__2*%
%TO.N,unconnected-(J1-SHIELD__2-PadSH3)*%
X143680000Y-89430000D03*
%TO.P,J1,SH4,SHIELD__3*%
%TO.N,unconnected-(J1-SHIELD__3-PadSH4)*%
X143680000Y-80790000D03*
%TD*%
M02*
