M48
; DRILL file {KiCad 9.0.6} date 2025-12-31T13:47:18+1100
; FORMAT={-:-/ absolute / metric / decimal}
; #@! TF.CreationDate,2025-12-31T13:47:18+11:00
; #@! TF.GenerationSoftware,Kicad,Pcbnew,9.0.6
; #@! TF.FileFunction,Plated,1,2,PTH
FMAT,2
METRIC
; #@! TA.AperFunction,Plated,PTH,ComponentDrill
T1C0.200
; #@! TA.AperFunction,Plated,PTH,ViaDrill
T2C0.300
; #@! TA.AperFunction,Plated,PTH,ComponentDrill
T3C0.600
; #@! TA.AperFunction,Plated,PTH,ComponentDrill
T4C0.800
; #@! TA.AperFunction,Plated,PTH,ComponentDrill
T5C0.950
; #@! TA.AperFunction,Plated,PTH,ComponentDrill
T6C1.430
; #@! TA.AperFunction,Plated,PTH,ComponentDrill
T7C3.200
%
G90
G05
T1
X145.1Y-76.862
X145.1Y-78.388
X145.862Y-76.1
X145.862Y-77.625
X145.862Y-79.15
X146.625Y-76.862
X146.625Y-78.388
X147.387Y-76.1
X147.387Y-77.625
X147.387Y-79.15
X148.15Y-76.862
X148.15Y-78.388
T2
X108.712Y-124.968
X108.712Y-125.984
X109.22Y-125.476
X109.728Y-124.968
X109.728Y-125.984
X119.126Y-90.17
X119.126Y-90.932
X119.126Y-94.488
X119.126Y-95.25
X119.888Y-90.17
X119.888Y-90.932
X119.888Y-94.488
X119.888Y-95.25
X120.65Y-90.17
X120.65Y-90.932
X120.65Y-94.488
X120.65Y-95.25
X121.936Y-117.094
X122.186Y-112.594
X126.238Y-127.762
X127.508Y-127.762
X127.585Y-114.318
X127.762Y-85.852
X127.762Y-86.614
X127.762Y-87.376
X128.524Y-85.852
X128.524Y-86.614
X128.524Y-87.376
X128.778Y-127.762
X131.826Y-85.852
X131.826Y-86.614
X131.826Y-87.376
X131.936Y-116.094
X132.588Y-85.852
X132.588Y-86.614
X132.588Y-87.376
X134.366Y-122.428
X134.405Y-120.396
X134.62Y-87.63
X136.35Y-84.328
X136.35Y-94.893
X136.95Y-99.314
X137.414Y-119.888
X140.116Y-85.09
X140.35Y-76.95
X140.716Y-80.216
X141.224Y-91.186
X146.749Y-115.714
X149.098Y-91.186
X150.848Y-113.814
X152.654Y-127.762
X153.162Y-120.142
X153.162Y-127.254
X153.416Y-74.514
X153.67Y-127.762
X154.178Y-78.994
X154.686Y-116.332
X156.21Y-120.65
X157.734Y-83.566
X157.734Y-123.19
X158.242Y-72.644
X158.325Y-107.95
X158.438Y-83.186
X159.258Y-115.062
X161.29Y-90.424
X161.29Y-91.186
X161.29Y-94.488
X161.29Y-95.25
X162.052Y-90.424
X162.052Y-91.186
X162.052Y-94.488
X162.052Y-95.25
X162.814Y-90.424
X162.814Y-91.186
X162.814Y-94.488
X162.814Y-95.25
X162.88Y-77.89
X162.88Y-79.402
X165.608Y-82.804
X166.012Y-77.29
X166.37Y-102.5
X166.37Y-105.0
X166.37Y-120.904
X167.64Y-81.534
X167.894Y-120.904
X167.96Y-76.608
X169.864Y-76.308
X170.412Y-77.09
X170.754Y-77.89
X170.754Y-79.402
X174.498Y-93.472
X177.2Y-95.758
X178.2Y-95.95
T4
X107.775Y-93.145
X107.775Y-95.685
X107.775Y-98.225
T5
X174.0Y-100.0
X174.0Y-102.5
X174.0Y-105.0
X174.0Y-107.5
X174.0Y-110.0
X174.0Y-112.5
X174.05Y-120.5
X174.05Y-123.0
X174.05Y-125.5
X174.05Y-128.0
X174.05Y-130.5
X174.05Y-133.0
T6
X102.002Y-134.366
X107.082Y-134.366
X111.252Y-134.366
X116.332Y-134.366
X131.47Y-134.1
X136.55Y-134.1
X141.46Y-134.0
X146.54Y-134.0
T7
X93.3Y-132.4
X93.4Y-73.15
X162.814Y-131.572
T3
G00X164.694Y-70.408
M15
G01X164.694Y-69.608
M16
G05
G00X164.694Y-74.738
M15
G01X164.694Y-73.638
M16
G05
G00X173.334Y-70.408
M15
G01X173.334Y-69.608
M16
G05
G00X173.334Y-74.738
M15
G01X173.334Y-73.638
M16
G05
M30
