%TF.GenerationSoftware,KiCad,Pcbnew,8.0.2*%
%TF.CreationDate,2024-10-06T18:26:15+11:00*%
%TF.ProjectId,ShutterRetroFit,53687574-7465-4725-9265-74726f466974,rev?*%
%TF.SameCoordinates,Original*%
%TF.FileFunction,Legend,Top*%
%TF.FilePolarity,Positive*%
%FSLAX46Y46*%
G04 Gerber Fmt 4.6, Leading zero omitted, Abs format (unit mm)*
G04 Created by KiCad (PCBNEW 8.0.2) date 2024-10-06 18:26:15*
%MOMM*%
%LPD*%
G01*
G04 APERTURE LIST*
%ADD10C,0.100000*%
%ADD11C,0.150000*%
%ADD12C,0.254000*%
%ADD13C,0.120000*%
%ADD14C,0.127000*%
G04 APERTURE END LIST*
D10*
G36*
X109550945Y-115287000D02*
G01*
X109587422Y-115354742D01*
X109589021Y-115402797D01*
X109208671Y-115481855D01*
X109207579Y-115367014D01*
X109242276Y-115292024D01*
X109309840Y-115255643D01*
X109476630Y-115252615D01*
X109550945Y-115287000D01*
G37*
G36*
X112027136Y-115287000D02*
G01*
X112063613Y-115354742D01*
X112065212Y-115402797D01*
X111684862Y-115481855D01*
X111683770Y-115367014D01*
X111718467Y-115292024D01*
X111786031Y-115255643D01*
X111952821Y-115252615D01*
X112027136Y-115287000D01*
G37*
G36*
X114077862Y-115288437D02*
G01*
X114078055Y-115288726D01*
X114116736Y-115324147D01*
X114158721Y-115402119D01*
X114161988Y-115663770D01*
X114125962Y-115741631D01*
X114125673Y-115741825D01*
X114090252Y-115780507D01*
X114012153Y-115822560D01*
X113892642Y-115825368D01*
X113815626Y-115789733D01*
X113815433Y-115789445D01*
X113776750Y-115754022D01*
X113734765Y-115676049D01*
X113731498Y-115414398D01*
X113767524Y-115336537D01*
X113767813Y-115336345D01*
X113803234Y-115297663D01*
X113881332Y-115255610D01*
X114000845Y-115252802D01*
X114077862Y-115288437D01*
G37*
G36*
X118411196Y-114955104D02*
G01*
X118411389Y-114955393D01*
X118450070Y-114990814D01*
X118493282Y-115071064D01*
X118493475Y-115075022D01*
X118540376Y-115249472D01*
X118539601Y-115253371D01*
X118542888Y-115475540D01*
X118541094Y-115479339D01*
X118500310Y-115655651D01*
X118497260Y-115659582D01*
X118459296Y-115741631D01*
X118459007Y-115741825D01*
X118423586Y-115780507D01*
X118345371Y-115822623D01*
X118272875Y-115825035D01*
X118196579Y-115789733D01*
X118196386Y-115789445D01*
X118157703Y-115754022D01*
X118114491Y-115673771D01*
X118114299Y-115669815D01*
X118067397Y-115495364D01*
X118068173Y-115491466D01*
X118064885Y-115269296D01*
X118066680Y-115265498D01*
X118107463Y-115089185D01*
X118110513Y-115085256D01*
X118148477Y-115003204D01*
X118148766Y-115003012D01*
X118184187Y-114964330D01*
X118262401Y-114922214D01*
X118334899Y-114919802D01*
X118411196Y-114955104D01*
G37*
G36*
X111125480Y-114955104D02*
G01*
X111125673Y-114955393D01*
X111164354Y-114990814D01*
X111206407Y-115068912D01*
X111209215Y-115188424D01*
X111173580Y-115265441D01*
X111173291Y-115265635D01*
X111137871Y-115304316D01*
X111059931Y-115346283D01*
X110913612Y-115347675D01*
X110912118Y-115347412D01*
X110911715Y-115347693D01*
X110732884Y-115349394D01*
X110731288Y-114921977D01*
X111047384Y-114918970D01*
X111125480Y-114955104D01*
G37*
G36*
X120175477Y-116033530D02*
G01*
X105095154Y-116033530D01*
X105095154Y-115062895D01*
X105206265Y-115062895D01*
X105209265Y-115153054D01*
X105206391Y-115161678D01*
X105209989Y-115174817D01*
X105210071Y-115177267D01*
X105210882Y-115178078D01*
X105211544Y-115180494D01*
X105257690Y-115266194D01*
X105257690Y-115272505D01*
X105268529Y-115288726D01*
X105271080Y-115291062D01*
X105271124Y-115291143D01*
X105271193Y-115291166D01*
X105311987Y-115328521D01*
X105313730Y-115333750D01*
X105329142Y-115345711D01*
X105414954Y-115385415D01*
X105416975Y-115388783D01*
X105434614Y-115397116D01*
X105610926Y-115437899D01*
X105614856Y-115440949D01*
X105696907Y-115478913D01*
X105697100Y-115479202D01*
X105735781Y-115514623D01*
X105777897Y-115592837D01*
X105780309Y-115665334D01*
X105745007Y-115741631D01*
X105744718Y-115741825D01*
X105709297Y-115780507D01*
X105631298Y-115822506D01*
X105416169Y-115825689D01*
X105414933Y-115824985D01*
X105252721Y-115774926D01*
X105218492Y-115792040D01*
X105206391Y-115828344D01*
X105223505Y-115862573D01*
X105240454Y-115872234D01*
X105375188Y-115913813D01*
X105379988Y-115918613D01*
X105399122Y-115922419D01*
X105630853Y-115918990D01*
X105640762Y-115922293D01*
X105654076Y-115918646D01*
X105656351Y-115918613D01*
X105657162Y-115917801D01*
X105659578Y-115917140D01*
X105745278Y-115870994D01*
X105751590Y-115870994D01*
X105767811Y-115860155D01*
X105770148Y-115857602D01*
X105770227Y-115857560D01*
X105770249Y-115857491D01*
X105807604Y-115816695D01*
X105812834Y-115814953D01*
X105824795Y-115799541D01*
X105867311Y-115707651D01*
X105873887Y-115701076D01*
X105876551Y-115687682D01*
X105877567Y-115685487D01*
X105877204Y-115684398D01*
X105877693Y-115681942D01*
X105874692Y-115591781D01*
X105877567Y-115583159D01*
X105873968Y-115570019D01*
X105873887Y-115567570D01*
X105873075Y-115566758D01*
X105872414Y-115564343D01*
X105826268Y-115478642D01*
X105826268Y-115472331D01*
X105815429Y-115456110D01*
X105812877Y-115453773D01*
X105812834Y-115453693D01*
X105812763Y-115453669D01*
X105771969Y-115416315D01*
X105770227Y-115411087D01*
X105754815Y-115399125D01*
X105669003Y-115359420D01*
X105666983Y-115356054D01*
X105649344Y-115347721D01*
X105473031Y-115306937D01*
X105469101Y-115303887D01*
X105387051Y-115265923D01*
X105386858Y-115265634D01*
X105348176Y-115230214D01*
X105306060Y-115151998D01*
X105303648Y-115079501D01*
X105338950Y-115003204D01*
X105339239Y-115003012D01*
X105374660Y-114964330D01*
X105452658Y-114922331D01*
X105667788Y-114919148D01*
X105669025Y-114919853D01*
X105831237Y-114969912D01*
X105865465Y-114952798D01*
X105877567Y-114916494D01*
X105860452Y-114882265D01*
X105843504Y-114872604D01*
X105842905Y-114872419D01*
X106206265Y-114872419D01*
X106210071Y-115891553D01*
X106237131Y-115918613D01*
X106275399Y-115918613D01*
X106302459Y-115891553D01*
X106306265Y-115872419D01*
X106304211Y-115322594D01*
X106327041Y-115297663D01*
X106405139Y-115255610D01*
X106524652Y-115252802D01*
X106598563Y-115287000D01*
X106634876Y-115354439D01*
X106638642Y-115891553D01*
X106665702Y-115918613D01*
X106703970Y-115918613D01*
X106731030Y-115891553D01*
X106734836Y-115872419D01*
X106731212Y-115355555D01*
X106734710Y-115345064D01*
X106731045Y-115331683D01*
X106731030Y-115329475D01*
X106730218Y-115328663D01*
X106729557Y-115326248D01*
X106678747Y-115231886D01*
X106674989Y-115220611D01*
X106671015Y-115217527D01*
X106669977Y-115215598D01*
X106667441Y-115214752D01*
X106659577Y-115208649D01*
X106653316Y-115205752D01*
X107111027Y-115205752D01*
X107114650Y-115722614D01*
X107111153Y-115733105D01*
X107114817Y-115746485D01*
X107114833Y-115748695D01*
X107115644Y-115749506D01*
X107116306Y-115751921D01*
X107167112Y-115846278D01*
X107170873Y-115857560D01*
X107174848Y-115860645D01*
X107175886Y-115862572D01*
X107178419Y-115863416D01*
X107186285Y-115869521D01*
X107278174Y-115912037D01*
X107284750Y-115918613D01*
X107298143Y-115921277D01*
X107300339Y-115922293D01*
X107301427Y-115921930D01*
X107303884Y-115922419D01*
X107440998Y-115919197D01*
X107450286Y-115922293D01*
X107463521Y-115918668D01*
X107465875Y-115918613D01*
X107466686Y-115917801D01*
X107469102Y-115917140D01*
X107543324Y-115877174D01*
X107543404Y-115891553D01*
X107570464Y-115918613D01*
X107608732Y-115918613D01*
X107635792Y-115891553D01*
X107639598Y-115872419D01*
X107635792Y-115186618D01*
X107876738Y-115186618D01*
X107876738Y-115224886D01*
X107903798Y-115251946D01*
X107922932Y-115255752D01*
X108017450Y-115254852D01*
X108019480Y-115722408D01*
X108015915Y-115733105D01*
X108019585Y-115746507D01*
X108019595Y-115748695D01*
X108020406Y-115749506D01*
X108021068Y-115751921D01*
X108071874Y-115846278D01*
X108075635Y-115857560D01*
X108079610Y-115860645D01*
X108080648Y-115862572D01*
X108083181Y-115863416D01*
X108091047Y-115869521D01*
X108182936Y-115912037D01*
X108189512Y-115918613D01*
X108202905Y-115921277D01*
X108205101Y-115922293D01*
X108206189Y-115921930D01*
X108208646Y-115922419D01*
X108323018Y-115918613D01*
X108350078Y-115891553D01*
X108350078Y-115853285D01*
X108323018Y-115826225D01*
X108303884Y-115822419D01*
X108225253Y-115825035D01*
X108152061Y-115791170D01*
X108115763Y-115723759D01*
X108113723Y-115253937D01*
X108323018Y-115251946D01*
X108350078Y-115224886D01*
X108350078Y-115186618D01*
X108448167Y-115186618D01*
X108448167Y-115224886D01*
X108475227Y-115251946D01*
X108494361Y-115255752D01*
X108588879Y-115254852D01*
X108590909Y-115722408D01*
X108587344Y-115733105D01*
X108591014Y-115746507D01*
X108591024Y-115748695D01*
X108591835Y-115749506D01*
X108592497Y-115751921D01*
X108643303Y-115846278D01*
X108647064Y-115857560D01*
X108651039Y-115860645D01*
X108652077Y-115862572D01*
X108654610Y-115863416D01*
X108662476Y-115869521D01*
X108754365Y-115912037D01*
X108760941Y-115918613D01*
X108774334Y-115921277D01*
X108776530Y-115922293D01*
X108777618Y-115921930D01*
X108780075Y-115922419D01*
X108894447Y-115918613D01*
X108921507Y-115891553D01*
X108921507Y-115853285D01*
X108894447Y-115826225D01*
X108875313Y-115822419D01*
X108796682Y-115825035D01*
X108723490Y-115791170D01*
X108687192Y-115723759D01*
X108685563Y-115348609D01*
X109111028Y-115348609D01*
X109112736Y-115528245D01*
X109111979Y-115529382D01*
X109112786Y-115533417D01*
X109114587Y-115722804D01*
X109111154Y-115733105D01*
X109114812Y-115746464D01*
X109114834Y-115748695D01*
X109115645Y-115749506D01*
X109116307Y-115751921D01*
X109167113Y-115846278D01*
X109170874Y-115857560D01*
X109174849Y-115860645D01*
X109175887Y-115862572D01*
X109178420Y-115863416D01*
X109186286Y-115869521D01*
X109278175Y-115912037D01*
X109284751Y-115918613D01*
X109298144Y-115921277D01*
X109300340Y-115922293D01*
X109301428Y-115921930D01*
X109303885Y-115922419D01*
X109488241Y-115919071D01*
X109497906Y-115922293D01*
X109511190Y-115918654D01*
X109513495Y-115918613D01*
X109514306Y-115917801D01*
X109516722Y-115917140D01*
X109627371Y-115857560D01*
X109639473Y-115821256D01*
X109622359Y-115787028D01*
X109586054Y-115774926D01*
X109567238Y-115780079D01*
X109488404Y-115822527D01*
X109321616Y-115825555D01*
X109247300Y-115791170D01*
X109210972Y-115723703D01*
X109209605Y-115580055D01*
X109642672Y-115490041D01*
X109656352Y-115490041D01*
X109659941Y-115486451D01*
X109665039Y-115485392D01*
X109673115Y-115473278D01*
X109683412Y-115462981D01*
X109684871Y-115455643D01*
X109686267Y-115453550D01*
X109685776Y-115451095D01*
X109687218Y-115443847D01*
X109684217Y-115353686D01*
X109687092Y-115345064D01*
X109683493Y-115331924D01*
X109683412Y-115329475D01*
X109682600Y-115328663D01*
X109681939Y-115326248D01*
X109631129Y-115231886D01*
X109627371Y-115220611D01*
X109623397Y-115217527D01*
X109622359Y-115215598D01*
X109619823Y-115214752D01*
X109611959Y-115208649D01*
X109605698Y-115205752D01*
X110015790Y-115205752D01*
X110016816Y-115390736D01*
X110015916Y-115392683D01*
X110016842Y-115395463D01*
X110019596Y-115891553D01*
X110046656Y-115918613D01*
X110084924Y-115918613D01*
X110111984Y-115891553D01*
X110115790Y-115872419D01*
X110113238Y-115412693D01*
X110148475Y-115336537D01*
X110148764Y-115336345D01*
X110184185Y-115297663D01*
X110262399Y-115255547D01*
X110370638Y-115251946D01*
X110397698Y-115224886D01*
X110397698Y-115186618D01*
X110370638Y-115159558D01*
X110351504Y-115155752D01*
X110261343Y-115158752D01*
X110252721Y-115155878D01*
X110239581Y-115159476D01*
X110237132Y-115159558D01*
X110236320Y-115160369D01*
X110233905Y-115161031D01*
X110148204Y-115207177D01*
X110141893Y-115207177D01*
X110125672Y-115218016D01*
X110123335Y-115220567D01*
X110123255Y-115220611D01*
X110123231Y-115220681D01*
X110112239Y-115232685D01*
X110111984Y-115186618D01*
X110084924Y-115159558D01*
X110046656Y-115159558D01*
X110019596Y-115186618D01*
X110015790Y-115205752D01*
X109605698Y-115205752D01*
X109520070Y-115166133D01*
X109513495Y-115159558D01*
X109500101Y-115156893D01*
X109497906Y-115155878D01*
X109496817Y-115156240D01*
X109494361Y-115155752D01*
X109310004Y-115159099D01*
X109300340Y-115155878D01*
X109287055Y-115159516D01*
X109284751Y-115159558D01*
X109283939Y-115160369D01*
X109281524Y-115161031D01*
X109187162Y-115211840D01*
X109175887Y-115215599D01*
X109172803Y-115219572D01*
X109170874Y-115220611D01*
X109170028Y-115223146D01*
X109163925Y-115231011D01*
X109121409Y-115322899D01*
X109114834Y-115329475D01*
X109112169Y-115342868D01*
X109111154Y-115345064D01*
X109111516Y-115346152D01*
X109111028Y-115348609D01*
X108685563Y-115348609D01*
X108685152Y-115253937D01*
X108894447Y-115251946D01*
X108921507Y-115224886D01*
X108921507Y-115186618D01*
X108894447Y-115159558D01*
X108875313Y-115155752D01*
X108684733Y-115157564D01*
X108683495Y-114872419D01*
X110634838Y-114872419D01*
X110638644Y-115891553D01*
X110665704Y-115918613D01*
X110703972Y-115918613D01*
X110731032Y-115891553D01*
X110734838Y-115872419D01*
X110733244Y-115445767D01*
X110895679Y-115444222D01*
X111229395Y-115914585D01*
X111267081Y-115921235D01*
X111298432Y-115899290D01*
X111305082Y-115861604D01*
X111297228Y-115843746D01*
X111012979Y-115443106D01*
X111059033Y-115442668D01*
X111069335Y-115446102D01*
X111082694Y-115442443D01*
X111084924Y-115442422D01*
X111085735Y-115441610D01*
X111088151Y-115440949D01*
X111173851Y-115394803D01*
X111180162Y-115394803D01*
X111196383Y-115383964D01*
X111198719Y-115381412D01*
X111198800Y-115381369D01*
X111198823Y-115381299D01*
X111228757Y-115348609D01*
X111587219Y-115348609D01*
X111588927Y-115528245D01*
X111588170Y-115529382D01*
X111588977Y-115533417D01*
X111590778Y-115722804D01*
X111587345Y-115733105D01*
X111591003Y-115746464D01*
X111591025Y-115748695D01*
X111591836Y-115749506D01*
X111592498Y-115751921D01*
X111643304Y-115846278D01*
X111647065Y-115857560D01*
X111651040Y-115860645D01*
X111652078Y-115862572D01*
X111654611Y-115863416D01*
X111662477Y-115869521D01*
X111754366Y-115912037D01*
X111760942Y-115918613D01*
X111774335Y-115921277D01*
X111776531Y-115922293D01*
X111777619Y-115921930D01*
X111780076Y-115922419D01*
X111964432Y-115919071D01*
X111974097Y-115922293D01*
X111987381Y-115918654D01*
X111989686Y-115918613D01*
X111990497Y-115917801D01*
X111992913Y-115917140D01*
X112103562Y-115857560D01*
X112115664Y-115821256D01*
X112098550Y-115787028D01*
X112062245Y-115774926D01*
X112043429Y-115780079D01*
X111964595Y-115822527D01*
X111797807Y-115825555D01*
X111723491Y-115791170D01*
X111687163Y-115723703D01*
X111685796Y-115580055D01*
X112118863Y-115490041D01*
X112132543Y-115490041D01*
X112136132Y-115486451D01*
X112141230Y-115485392D01*
X112149306Y-115473278D01*
X112159603Y-115462981D01*
X112161062Y-115455643D01*
X112162458Y-115453550D01*
X112161967Y-115451095D01*
X112163409Y-115443847D01*
X112160408Y-115353686D01*
X112163283Y-115345064D01*
X112159684Y-115331924D01*
X112159603Y-115329475D01*
X112158791Y-115328663D01*
X112158130Y-115326248D01*
X112107320Y-115231886D01*
X112103562Y-115220611D01*
X112099588Y-115217527D01*
X112098550Y-115215598D01*
X112096014Y-115214752D01*
X112088150Y-115208649D01*
X112040535Y-115186618D01*
X112352930Y-115186618D01*
X112352930Y-115224886D01*
X112379990Y-115251946D01*
X112399124Y-115255752D01*
X112493642Y-115254852D01*
X112495672Y-115722408D01*
X112492107Y-115733105D01*
X112495777Y-115746507D01*
X112495787Y-115748695D01*
X112496598Y-115749506D01*
X112497260Y-115751921D01*
X112548066Y-115846278D01*
X112551827Y-115857560D01*
X112555802Y-115860645D01*
X112556840Y-115862572D01*
X112559373Y-115863416D01*
X112567239Y-115869521D01*
X112659128Y-115912037D01*
X112665704Y-115918613D01*
X112679097Y-115921277D01*
X112681293Y-115922293D01*
X112682381Y-115921930D01*
X112684838Y-115922419D01*
X112799210Y-115918613D01*
X112826270Y-115891553D01*
X112826270Y-115853285D01*
X112799210Y-115826225D01*
X112780076Y-115822419D01*
X112701445Y-115825035D01*
X112628253Y-115791170D01*
X112591955Y-115723759D01*
X112589915Y-115253937D01*
X112799210Y-115251946D01*
X112826270Y-115224886D01*
X112826270Y-115205752D01*
X113063410Y-115205752D01*
X113064436Y-115390736D01*
X113063536Y-115392683D01*
X113064462Y-115395463D01*
X113067216Y-115891553D01*
X113094276Y-115918613D01*
X113132544Y-115918613D01*
X113159604Y-115891553D01*
X113163410Y-115872419D01*
X113160858Y-115412693D01*
X113168476Y-115396228D01*
X113634839Y-115396228D01*
X113638324Y-115675407D01*
X113634965Y-115685487D01*
X113638616Y-115698821D01*
X113638645Y-115701076D01*
X113639456Y-115701887D01*
X113640118Y-115704303D01*
X113686264Y-115790003D01*
X113686264Y-115796314D01*
X113697102Y-115812535D01*
X113699655Y-115814873D01*
X113699698Y-115814952D01*
X113699766Y-115814974D01*
X113740561Y-115852330D01*
X113742304Y-115857560D01*
X113757716Y-115869521D01*
X113849605Y-115912037D01*
X113856181Y-115918613D01*
X113869574Y-115921277D01*
X113871770Y-115922293D01*
X113872858Y-115921930D01*
X113875315Y-115922419D01*
X114012429Y-115919197D01*
X114021717Y-115922293D01*
X114034952Y-115918668D01*
X114037306Y-115918613D01*
X114038117Y-115917801D01*
X114040533Y-115917140D01*
X114126233Y-115870994D01*
X114132545Y-115870994D01*
X114148766Y-115860155D01*
X114151103Y-115857602D01*
X114151182Y-115857560D01*
X114151204Y-115857491D01*
X114188559Y-115816695D01*
X114193789Y-115814953D01*
X114205750Y-115799541D01*
X114248266Y-115707651D01*
X114254842Y-115701076D01*
X114257506Y-115687682D01*
X114258522Y-115685487D01*
X114258159Y-115684398D01*
X114258648Y-115681942D01*
X114255162Y-115402761D01*
X114258522Y-115392683D01*
X114254870Y-115379348D01*
X114254842Y-115377094D01*
X114254030Y-115376282D01*
X114253369Y-115373867D01*
X114207223Y-115288166D01*
X114207223Y-115281855D01*
X114196384Y-115265634D01*
X114193832Y-115263297D01*
X114193789Y-115263217D01*
X114193718Y-115263193D01*
X114152924Y-115225839D01*
X114151182Y-115220611D01*
X114135770Y-115208649D01*
X114043881Y-115166133D01*
X114037306Y-115159558D01*
X114023912Y-115156893D01*
X114021717Y-115155878D01*
X114020628Y-115156240D01*
X114018172Y-115155752D01*
X113881056Y-115158973D01*
X113871770Y-115155878D01*
X113858534Y-115159502D01*
X113856181Y-115159558D01*
X113855369Y-115160369D01*
X113852954Y-115161031D01*
X113767253Y-115207177D01*
X113760942Y-115207177D01*
X113744721Y-115218016D01*
X113742384Y-115220567D01*
X113742304Y-115220611D01*
X113742280Y-115220681D01*
X113704926Y-115261475D01*
X113699698Y-115263218D01*
X113687736Y-115278630D01*
X113645220Y-115370518D01*
X113638645Y-115377094D01*
X113635980Y-115390487D01*
X113634965Y-115392683D01*
X113635327Y-115393771D01*
X113634839Y-115396228D01*
X113168476Y-115396228D01*
X113196095Y-115336537D01*
X113196384Y-115336345D01*
X113231805Y-115297663D01*
X113310019Y-115255547D01*
X113418258Y-115251946D01*
X113445318Y-115224886D01*
X113445318Y-115186618D01*
X113418258Y-115159558D01*
X113399124Y-115155752D01*
X113308963Y-115158752D01*
X113300341Y-115155878D01*
X113287201Y-115159476D01*
X113284752Y-115159558D01*
X113283940Y-115160369D01*
X113281525Y-115161031D01*
X113195824Y-115207177D01*
X113189513Y-115207177D01*
X113173292Y-115218016D01*
X113170955Y-115220567D01*
X113170875Y-115220611D01*
X113170851Y-115220681D01*
X113159859Y-115232685D01*
X113159604Y-115186618D01*
X113132544Y-115159558D01*
X113094276Y-115159558D01*
X113067216Y-115186618D01*
X113063410Y-115205752D01*
X112826270Y-115205752D01*
X112826270Y-115186618D01*
X112799210Y-115159558D01*
X112780076Y-115155752D01*
X112589496Y-115157564D01*
X112588258Y-114872419D01*
X114587220Y-114872419D01*
X114591026Y-115891553D01*
X114618086Y-115918613D01*
X114656354Y-115918613D01*
X114683414Y-115891553D01*
X114687220Y-115872419D01*
X114685448Y-115398088D01*
X114989687Y-115394803D01*
X115016747Y-115367743D01*
X115016747Y-115329475D01*
X114989687Y-115302415D01*
X114970553Y-115298609D01*
X114685088Y-115301691D01*
X114684730Y-115205752D01*
X115444363Y-115205752D01*
X115448169Y-115891553D01*
X115475229Y-115918613D01*
X115513497Y-115918613D01*
X115540557Y-115891553D01*
X115544363Y-115872419D01*
X115540557Y-115186618D01*
X115781502Y-115186618D01*
X115781502Y-115224886D01*
X115808562Y-115251946D01*
X115827696Y-115255752D01*
X115922214Y-115254852D01*
X115924244Y-115722408D01*
X115920679Y-115733105D01*
X115924349Y-115746507D01*
X115924359Y-115748695D01*
X115925170Y-115749506D01*
X115925832Y-115751921D01*
X115976638Y-115846278D01*
X115980399Y-115857560D01*
X115984374Y-115860645D01*
X115985412Y-115862572D01*
X115987945Y-115863416D01*
X115995811Y-115869521D01*
X116087700Y-115912037D01*
X116094276Y-115918613D01*
X116107669Y-115921277D01*
X116109865Y-115922293D01*
X116110953Y-115921930D01*
X116113410Y-115922419D01*
X116227782Y-115918613D01*
X116254842Y-115891553D01*
X116254842Y-115853285D01*
X116227782Y-115826225D01*
X116208648Y-115822419D01*
X116130017Y-115825035D01*
X116056825Y-115791170D01*
X116020527Y-115723759D01*
X116018487Y-115253937D01*
X116227782Y-115251946D01*
X116254842Y-115224886D01*
X116254842Y-115203269D01*
X117158711Y-115203269D01*
X117161562Y-115222569D01*
X117397587Y-115872676D01*
X117396806Y-115874902D01*
X117403612Y-115889271D01*
X117409677Y-115905975D01*
X117412059Y-115907103D01*
X117413188Y-115909486D01*
X117429043Y-115915148D01*
X117444261Y-115922357D01*
X117446744Y-115921470D01*
X117449227Y-115922357D01*
X117464444Y-115915148D01*
X117480300Y-115909486D01*
X117481428Y-115907103D01*
X117483811Y-115905975D01*
X117493831Y-115889236D01*
X117717179Y-115253371D01*
X117968173Y-115253371D01*
X117971517Y-115479440D01*
X117968718Y-115484107D01*
X117969666Y-115503593D01*
X118017385Y-115681085D01*
X118015918Y-115685487D01*
X118021071Y-115704303D01*
X118067217Y-115790003D01*
X118067217Y-115796314D01*
X118078055Y-115812535D01*
X118080608Y-115814873D01*
X118080651Y-115814952D01*
X118080719Y-115814974D01*
X118121514Y-115852330D01*
X118123257Y-115857560D01*
X118138669Y-115869521D01*
X118230558Y-115912037D01*
X118237134Y-115918613D01*
X118250527Y-115921277D01*
X118252723Y-115922293D01*
X118253811Y-115921930D01*
X118256268Y-115922419D01*
X118346427Y-115919418D01*
X118355051Y-115922293D01*
X118368190Y-115918694D01*
X118370640Y-115918613D01*
X118371451Y-115917801D01*
X118373867Y-115917140D01*
X118459567Y-115870994D01*
X118465879Y-115870994D01*
X118482100Y-115860155D01*
X118484437Y-115857602D01*
X118484516Y-115857560D01*
X118484538Y-115857491D01*
X118521893Y-115816695D01*
X118527123Y-115814953D01*
X118534330Y-115805666D01*
X118924360Y-115805666D01*
X118924360Y-115843935D01*
X118924362Y-115843937D01*
X118935199Y-115860155D01*
X118999038Y-115918613D01*
X118999039Y-115918613D01*
X119037307Y-115918613D01*
X119053528Y-115907774D01*
X119111986Y-115843935D01*
X119111986Y-115805666D01*
X119101148Y-115789445D01*
X119037308Y-115730986D01*
X119037307Y-115730986D01*
X118999038Y-115730986D01*
X118982817Y-115741825D01*
X118924360Y-115805666D01*
X118534330Y-115805666D01*
X118539084Y-115799541D01*
X118578788Y-115713728D01*
X118582156Y-115711708D01*
X118590489Y-115694069D01*
X118632065Y-115514329D01*
X118635795Y-115510600D01*
X118639601Y-115491466D01*
X118636256Y-115265396D01*
X118639056Y-115260730D01*
X118638108Y-115241244D01*
X118616716Y-115161678D01*
X119396870Y-115161678D01*
X119413984Y-115195906D01*
X119450289Y-115208007D01*
X119469105Y-115202854D01*
X119554805Y-115156708D01*
X119561116Y-115156708D01*
X119577337Y-115145869D01*
X119661391Y-115057550D01*
X119665042Y-115056820D01*
X119678823Y-115043011D01*
X119683070Y-115036356D01*
X119686013Y-115824559D01*
X119427610Y-115826225D01*
X119400550Y-115853285D01*
X119400550Y-115891553D01*
X119427610Y-115918613D01*
X119446744Y-115922419D01*
X120037306Y-115918613D01*
X120064366Y-115891553D01*
X120064366Y-115853285D01*
X120037306Y-115826225D01*
X120018172Y-115822419D01*
X119782276Y-115823939D01*
X119778775Y-114886403D01*
X119781508Y-114882122D01*
X119778707Y-114868120D01*
X119778652Y-114853285D01*
X119775011Y-114849644D01*
X119774002Y-114844597D01*
X119761886Y-114836519D01*
X119751592Y-114826225D01*
X119746446Y-114826225D01*
X119742162Y-114823369D01*
X119727884Y-114826225D01*
X119713324Y-114826225D01*
X119709683Y-114829865D01*
X119704636Y-114830875D01*
X119690856Y-114844684D01*
X119606534Y-114976800D01*
X119601865Y-114979921D01*
X119520322Y-115065600D01*
X119519621Y-115065793D01*
X119408971Y-115125373D01*
X119396870Y-115161678D01*
X118616716Y-115161678D01*
X118590388Y-115063751D01*
X118591856Y-115059350D01*
X118586703Y-115040534D01*
X118540557Y-114954833D01*
X118540557Y-114948522D01*
X118529718Y-114932301D01*
X118527166Y-114929964D01*
X118527123Y-114929884D01*
X118527052Y-114929860D01*
X118486258Y-114892506D01*
X118484516Y-114887278D01*
X118469104Y-114875316D01*
X118377215Y-114832800D01*
X118370640Y-114826225D01*
X118357246Y-114823560D01*
X118355051Y-114822545D01*
X118353962Y-114822907D01*
X118351506Y-114822419D01*
X118261345Y-114825419D01*
X118252723Y-114822545D01*
X118239583Y-114826143D01*
X118237134Y-114826225D01*
X118236322Y-114827036D01*
X118233907Y-114827698D01*
X118148206Y-114873844D01*
X118141895Y-114873844D01*
X118125674Y-114884683D01*
X118123337Y-114887234D01*
X118123257Y-114887278D01*
X118123233Y-114887348D01*
X118085879Y-114928142D01*
X118080651Y-114929885D01*
X118068689Y-114945297D01*
X118028984Y-115031108D01*
X118025618Y-115033129D01*
X118017285Y-115050768D01*
X117975708Y-115230507D01*
X117971979Y-115234237D01*
X117968173Y-115253371D01*
X117717179Y-115253371D01*
X117734777Y-115203270D01*
X117718395Y-115168685D01*
X117682356Y-115155814D01*
X117647772Y-115172196D01*
X117637752Y-115188935D01*
X117447962Y-115729261D01*
X117245716Y-115172196D01*
X117211132Y-115155814D01*
X117175093Y-115168685D01*
X117158711Y-115203269D01*
X116254842Y-115203269D01*
X116254842Y-115186618D01*
X116227782Y-115159558D01*
X116208648Y-115155752D01*
X116018068Y-115157564D01*
X116016747Y-114853285D01*
X115989687Y-114826225D01*
X115951419Y-114826225D01*
X115924359Y-114853285D01*
X115920553Y-114872419D01*
X115921795Y-115158480D01*
X115808562Y-115159558D01*
X115781502Y-115186618D01*
X115540557Y-115186618D01*
X115513497Y-115159558D01*
X115475229Y-115159558D01*
X115448169Y-115186618D01*
X115444363Y-115205752D01*
X114684730Y-115205752D01*
X114683670Y-114922062D01*
X115132544Y-114918613D01*
X115150253Y-114900904D01*
X115400550Y-114900904D01*
X115400550Y-114939172D01*
X115411389Y-114955393D01*
X115475228Y-115013851D01*
X115475229Y-115013851D01*
X115513497Y-115013851D01*
X115529718Y-115003012D01*
X115588176Y-114939173D01*
X115588176Y-114900904D01*
X115588176Y-114900903D01*
X115577337Y-114884682D01*
X115513497Y-114826225D01*
X115475228Y-114826225D01*
X115459007Y-114837064D01*
X115400551Y-114900903D01*
X115400550Y-114900904D01*
X115150253Y-114900904D01*
X115159604Y-114891553D01*
X115159604Y-114853285D01*
X115132544Y-114826225D01*
X115113410Y-114822419D01*
X114618086Y-114826225D01*
X114591026Y-114853285D01*
X114587220Y-114872419D01*
X112588258Y-114872419D01*
X112588175Y-114853285D01*
X112561115Y-114826225D01*
X112522847Y-114826225D01*
X112495787Y-114853285D01*
X112491981Y-114872419D01*
X112493223Y-115158480D01*
X112379990Y-115159558D01*
X112352930Y-115186618D01*
X112040535Y-115186618D01*
X111996261Y-115166133D01*
X111989686Y-115159558D01*
X111976292Y-115156893D01*
X111974097Y-115155878D01*
X111973008Y-115156240D01*
X111970552Y-115155752D01*
X111786195Y-115159099D01*
X111776531Y-115155878D01*
X111763246Y-115159516D01*
X111760942Y-115159558D01*
X111760130Y-115160369D01*
X111757715Y-115161031D01*
X111663353Y-115211840D01*
X111652078Y-115215599D01*
X111648994Y-115219572D01*
X111647065Y-115220611D01*
X111646219Y-115223146D01*
X111640116Y-115231011D01*
X111597600Y-115322899D01*
X111591025Y-115329475D01*
X111588360Y-115342868D01*
X111587345Y-115345064D01*
X111587707Y-115346152D01*
X111587219Y-115348609D01*
X111228757Y-115348609D01*
X111236178Y-115340505D01*
X111241407Y-115338763D01*
X111253368Y-115323351D01*
X111295884Y-115231461D01*
X111302460Y-115224886D01*
X111305124Y-115211492D01*
X111306140Y-115209297D01*
X111305777Y-115208208D01*
X111306266Y-115205752D01*
X111303044Y-115068636D01*
X111306140Y-115059350D01*
X111302515Y-115046114D01*
X111302460Y-115043761D01*
X111301648Y-115042949D01*
X111300987Y-115040534D01*
X111254841Y-114954833D01*
X111254841Y-114948522D01*
X111244002Y-114932301D01*
X111241450Y-114929964D01*
X111241407Y-114929884D01*
X111241336Y-114929860D01*
X111200542Y-114892506D01*
X111198800Y-114887278D01*
X111183388Y-114875316D01*
X111091499Y-114832800D01*
X111084924Y-114826225D01*
X111071530Y-114823560D01*
X111069335Y-114822545D01*
X111068246Y-114822907D01*
X111065790Y-114822419D01*
X110665704Y-114826225D01*
X110638644Y-114853285D01*
X110634838Y-114872419D01*
X108683495Y-114872419D01*
X108683412Y-114853285D01*
X108656352Y-114826225D01*
X108618084Y-114826225D01*
X108591024Y-114853285D01*
X108587218Y-114872419D01*
X108588460Y-115158480D01*
X108475227Y-115159558D01*
X108448167Y-115186618D01*
X108350078Y-115186618D01*
X108323018Y-115159558D01*
X108303884Y-115155752D01*
X108113304Y-115157564D01*
X108111983Y-114853285D01*
X108084923Y-114826225D01*
X108046655Y-114826225D01*
X108019595Y-114853285D01*
X108015789Y-114872419D01*
X108017031Y-115158480D01*
X107903798Y-115159558D01*
X107876738Y-115186618D01*
X107635792Y-115186618D01*
X107608732Y-115159558D01*
X107570464Y-115159558D01*
X107543404Y-115186618D01*
X107539598Y-115205752D01*
X107542643Y-115754491D01*
X107518821Y-115780507D01*
X107440722Y-115822560D01*
X107321211Y-115825368D01*
X107247299Y-115791170D01*
X107210986Y-115723730D01*
X107207221Y-115186618D01*
X107180161Y-115159558D01*
X107141893Y-115159558D01*
X107114833Y-115186618D01*
X107111027Y-115205752D01*
X106653316Y-115205752D01*
X106567688Y-115166133D01*
X106561113Y-115159558D01*
X106547719Y-115156893D01*
X106545524Y-115155878D01*
X106544435Y-115156240D01*
X106541979Y-115155752D01*
X106404863Y-115158973D01*
X106395577Y-115155878D01*
X106382341Y-115159502D01*
X106379988Y-115159558D01*
X106379176Y-115160369D01*
X106376761Y-115161031D01*
X106303755Y-115200341D01*
X106302459Y-114853285D01*
X106275399Y-114826225D01*
X106237131Y-114826225D01*
X106210071Y-114853285D01*
X106206265Y-114872419D01*
X105842905Y-114872419D01*
X105708769Y-114831024D01*
X105703970Y-114826225D01*
X105684836Y-114822419D01*
X105453103Y-114825847D01*
X105443196Y-114822545D01*
X105429881Y-114826191D01*
X105427607Y-114826225D01*
X105426795Y-114827036D01*
X105424380Y-114827698D01*
X105338679Y-114873844D01*
X105332368Y-114873844D01*
X105316147Y-114884683D01*
X105313810Y-114887234D01*
X105313730Y-114887278D01*
X105313706Y-114887348D01*
X105276352Y-114928142D01*
X105271124Y-114929885D01*
X105259162Y-114945297D01*
X105216646Y-115037185D01*
X105210071Y-115043761D01*
X105207406Y-115057154D01*
X105206391Y-115059350D01*
X105206753Y-115060438D01*
X105206265Y-115062895D01*
X105095154Y-115062895D01*
X105095154Y-114711308D01*
X120175477Y-114711308D01*
X120175477Y-116033530D01*
G37*
D11*
X114238095Y-94954819D02*
X114238095Y-95764342D01*
X114238095Y-95764342D02*
X114285714Y-95859580D01*
X114285714Y-95859580D02*
X114333333Y-95907200D01*
X114333333Y-95907200D02*
X114428571Y-95954819D01*
X114428571Y-95954819D02*
X114619047Y-95954819D01*
X114619047Y-95954819D02*
X114714285Y-95907200D01*
X114714285Y-95907200D02*
X114761904Y-95859580D01*
X114761904Y-95859580D02*
X114809523Y-95764342D01*
X114809523Y-95764342D02*
X114809523Y-94954819D01*
X115714285Y-95288152D02*
X115714285Y-95954819D01*
X115476190Y-94907200D02*
X115238095Y-95621485D01*
X115238095Y-95621485D02*
X115857142Y-95621485D01*
X138104819Y-110686904D02*
X138914342Y-110686904D01*
X138914342Y-110686904D02*
X139009580Y-110639285D01*
X139009580Y-110639285D02*
X139057200Y-110591666D01*
X139057200Y-110591666D02*
X139104819Y-110496428D01*
X139104819Y-110496428D02*
X139104819Y-110305952D01*
X139104819Y-110305952D02*
X139057200Y-110210714D01*
X139057200Y-110210714D02*
X139009580Y-110163095D01*
X139009580Y-110163095D02*
X138914342Y-110115476D01*
X138914342Y-110115476D02*
X138104819Y-110115476D01*
X138104819Y-109734523D02*
X138104819Y-109115476D01*
X138104819Y-109115476D02*
X138485771Y-109448809D01*
X138485771Y-109448809D02*
X138485771Y-109305952D01*
X138485771Y-109305952D02*
X138533390Y-109210714D01*
X138533390Y-109210714D02*
X138581009Y-109163095D01*
X138581009Y-109163095D02*
X138676247Y-109115476D01*
X138676247Y-109115476D02*
X138914342Y-109115476D01*
X138914342Y-109115476D02*
X139009580Y-109163095D01*
X139009580Y-109163095D02*
X139057200Y-109210714D01*
X139057200Y-109210714D02*
X139104819Y-109305952D01*
X139104819Y-109305952D02*
X139104819Y-109591666D01*
X139104819Y-109591666D02*
X139057200Y-109686904D01*
X139057200Y-109686904D02*
X139009580Y-109734523D01*
X129654819Y-92761904D02*
X130464342Y-92761904D01*
X130464342Y-92761904D02*
X130559580Y-92714285D01*
X130559580Y-92714285D02*
X130607200Y-92666666D01*
X130607200Y-92666666D02*
X130654819Y-92571428D01*
X130654819Y-92571428D02*
X130654819Y-92380952D01*
X130654819Y-92380952D02*
X130607200Y-92285714D01*
X130607200Y-92285714D02*
X130559580Y-92238095D01*
X130559580Y-92238095D02*
X130464342Y-92190476D01*
X130464342Y-92190476D02*
X129654819Y-92190476D01*
X129750057Y-91761904D02*
X129702438Y-91714285D01*
X129702438Y-91714285D02*
X129654819Y-91619047D01*
X129654819Y-91619047D02*
X129654819Y-91380952D01*
X129654819Y-91380952D02*
X129702438Y-91285714D01*
X129702438Y-91285714D02*
X129750057Y-91238095D01*
X129750057Y-91238095D02*
X129845295Y-91190476D01*
X129845295Y-91190476D02*
X129940533Y-91190476D01*
X129940533Y-91190476D02*
X130083390Y-91238095D01*
X130083390Y-91238095D02*
X130654819Y-91809523D01*
X130654819Y-91809523D02*
X130654819Y-91190476D01*
X111594819Y-86011904D02*
X112404342Y-86011904D01*
X112404342Y-86011904D02*
X112499580Y-85964285D01*
X112499580Y-85964285D02*
X112547200Y-85916666D01*
X112547200Y-85916666D02*
X112594819Y-85821428D01*
X112594819Y-85821428D02*
X112594819Y-85630952D01*
X112594819Y-85630952D02*
X112547200Y-85535714D01*
X112547200Y-85535714D02*
X112499580Y-85488095D01*
X112499580Y-85488095D02*
X112404342Y-85440476D01*
X112404342Y-85440476D02*
X111594819Y-85440476D01*
X112594819Y-84440476D02*
X112594819Y-85011904D01*
X112594819Y-84726190D02*
X111594819Y-84726190D01*
X111594819Y-84726190D02*
X111737676Y-84821428D01*
X111737676Y-84821428D02*
X111832914Y-84916666D01*
X111832914Y-84916666D02*
X111880533Y-85011904D01*
D12*
X100584047Y-105295270D02*
X100463095Y-105234794D01*
X100463095Y-105234794D02*
X100342142Y-105113842D01*
X100342142Y-105113842D02*
X100160714Y-104932413D01*
X100160714Y-104932413D02*
X100039761Y-104871937D01*
X100039761Y-104871937D02*
X99918809Y-104871937D01*
X99979285Y-105174318D02*
X99858333Y-105113842D01*
X99858333Y-105113842D02*
X99737380Y-104992889D01*
X99737380Y-104992889D02*
X99676904Y-104750984D01*
X99676904Y-104750984D02*
X99676904Y-104327651D01*
X99676904Y-104327651D02*
X99737380Y-104085746D01*
X99737380Y-104085746D02*
X99858333Y-103964794D01*
X99858333Y-103964794D02*
X99979285Y-103904318D01*
X99979285Y-103904318D02*
X100221190Y-103904318D01*
X100221190Y-103904318D02*
X100342142Y-103964794D01*
X100342142Y-103964794D02*
X100463095Y-104085746D01*
X100463095Y-104085746D02*
X100523571Y-104327651D01*
X100523571Y-104327651D02*
X100523571Y-104750984D01*
X100523571Y-104750984D02*
X100463095Y-104992889D01*
X100463095Y-104992889D02*
X100342142Y-105113842D01*
X100342142Y-105113842D02*
X100221190Y-105174318D01*
X100221190Y-105174318D02*
X99979285Y-105174318D01*
X101007380Y-104025270D02*
X101067856Y-103964794D01*
X101067856Y-103964794D02*
X101188809Y-103904318D01*
X101188809Y-103904318D02*
X101491190Y-103904318D01*
X101491190Y-103904318D02*
X101612142Y-103964794D01*
X101612142Y-103964794D02*
X101672618Y-104025270D01*
X101672618Y-104025270D02*
X101733095Y-104146222D01*
X101733095Y-104146222D02*
X101733095Y-104267175D01*
X101733095Y-104267175D02*
X101672618Y-104448603D01*
X101672618Y-104448603D02*
X100946904Y-105174318D01*
X100946904Y-105174318D02*
X101733095Y-105174318D01*
X100584047Y-99695270D02*
X100463095Y-99634794D01*
X100463095Y-99634794D02*
X100342142Y-99513842D01*
X100342142Y-99513842D02*
X100160714Y-99332413D01*
X100160714Y-99332413D02*
X100039761Y-99271937D01*
X100039761Y-99271937D02*
X99918809Y-99271937D01*
X99979285Y-99574318D02*
X99858333Y-99513842D01*
X99858333Y-99513842D02*
X99737380Y-99392889D01*
X99737380Y-99392889D02*
X99676904Y-99150984D01*
X99676904Y-99150984D02*
X99676904Y-98727651D01*
X99676904Y-98727651D02*
X99737380Y-98485746D01*
X99737380Y-98485746D02*
X99858333Y-98364794D01*
X99858333Y-98364794D02*
X99979285Y-98304318D01*
X99979285Y-98304318D02*
X100221190Y-98304318D01*
X100221190Y-98304318D02*
X100342142Y-98364794D01*
X100342142Y-98364794D02*
X100463095Y-98485746D01*
X100463095Y-98485746D02*
X100523571Y-98727651D01*
X100523571Y-98727651D02*
X100523571Y-99150984D01*
X100523571Y-99150984D02*
X100463095Y-99392889D01*
X100463095Y-99392889D02*
X100342142Y-99513842D01*
X100342142Y-99513842D02*
X100221190Y-99574318D01*
X100221190Y-99574318D02*
X99979285Y-99574318D01*
X101733095Y-99574318D02*
X101007380Y-99574318D01*
X101370237Y-99574318D02*
X101370237Y-98304318D01*
X101370237Y-98304318D02*
X101249285Y-98485746D01*
X101249285Y-98485746D02*
X101128333Y-98606699D01*
X101128333Y-98606699D02*
X101007380Y-98667175D01*
D11*
X141134819Y-79443333D02*
X141849104Y-79443333D01*
X141849104Y-79443333D02*
X141991961Y-79490952D01*
X141991961Y-79490952D02*
X142087200Y-79586190D01*
X142087200Y-79586190D02*
X142134819Y-79729047D01*
X142134819Y-79729047D02*
X142134819Y-79824285D01*
X142134819Y-78443333D02*
X142134819Y-79014761D01*
X142134819Y-78729047D02*
X141134819Y-78729047D01*
X141134819Y-78729047D02*
X141277676Y-78824285D01*
X141277676Y-78824285D02*
X141372914Y-78919523D01*
X141372914Y-78919523D02*
X141420533Y-79014761D01*
D13*
%TO.C,U4*%
X113150000Y-96590000D02*
X116910000Y-96590000D01*
X113150000Y-103410000D02*
X116910000Y-103410000D01*
X116910000Y-96590000D02*
X116910000Y-97850000D01*
X116910000Y-103410000D02*
X116910000Y-102150000D01*
X111870000Y-96690000D02*
X111630000Y-96360000D01*
X112110000Y-96360000D01*
X111870000Y-96690000D01*
G36*
X111870000Y-96690000D02*
G01*
X111630000Y-96360000D01*
X112110000Y-96360000D01*
X111870000Y-96690000D01*
G37*
%TO.C,U3*%
X137200000Y-105100000D02*
X136250000Y-105100000D01*
X126800000Y-105100000D02*
X127750000Y-105100000D01*
X137200000Y-106600000D02*
X137200000Y-105100000D01*
X126800000Y-106600000D02*
X126800000Y-105100000D01*
X136580000Y-102777500D02*
X136250000Y-102537500D01*
X136580000Y-102297500D01*
X136580000Y-102777500D01*
G36*
X136580000Y-102777500D02*
G01*
X136250000Y-102537500D01*
X136580000Y-102297500D01*
X136580000Y-102777500D01*
G37*
%TO.C,U2*%
X132115000Y-94610000D02*
X131630000Y-94610000D01*
X136610000Y-94610000D02*
X135885000Y-94610000D01*
X131390000Y-93885000D02*
X131390000Y-94310000D01*
X136610000Y-93885000D02*
X136610000Y-94610000D01*
X131390000Y-90115000D02*
X131390000Y-89390000D01*
X136610000Y-90115000D02*
X136610000Y-89390000D01*
X131390000Y-89390000D02*
X132115000Y-89390000D01*
X136610000Y-89390000D02*
X135885000Y-89390000D01*
X131390000Y-94610000D02*
X131060000Y-94850000D01*
X131060000Y-94370000D01*
X131390000Y-94610000D01*
G36*
X131390000Y-94610000D02*
G01*
X131060000Y-94850000D01*
X131060000Y-94370000D01*
X131390000Y-94610000D01*
G37*
%TO.C,U1*%
X113630000Y-60960000D02*
X113630000Y-67120000D01*
X113630000Y-60960000D02*
X131870000Y-60960000D01*
X113630000Y-85920000D02*
X113630000Y-86700000D01*
X113630000Y-86700000D02*
X114630000Y-86700000D01*
X131870000Y-60960000D02*
X131870000Y-67375000D01*
X131870000Y-85920000D02*
X131870000Y-86700000D01*
X131870000Y-86700000D02*
X130870000Y-86700000D01*
X113625000Y-67845000D02*
X113125000Y-67845000D01*
X113625000Y-67345000D01*
X113625000Y-67845000D01*
G36*
X113625000Y-67845000D02*
G01*
X113125000Y-67845000D01*
X113625000Y-67345000D01*
X113625000Y-67845000D01*
G37*
D10*
%TO.C,Q2*%
X98325000Y-103610000D02*
X98325000Y-103610000D01*
X98425000Y-103610000D02*
X98425000Y-103610000D01*
X99270000Y-106150000D02*
X102375000Y-106150000D01*
X99275000Y-103050000D02*
X102375000Y-103050000D01*
X98325000Y-103610000D02*
G75*
G02*
X98425000Y-103610000I50000J0D01*
G01*
X98425000Y-103610000D02*
G75*
G02*
X98325000Y-103610000I-50000J0D01*
G01*
%TO.C,Q1*%
X98325000Y-98010000D02*
X98325000Y-98010000D01*
X98425000Y-98010000D02*
X98425000Y-98010000D01*
X99270000Y-100550000D02*
X102375000Y-100550000D01*
X99275000Y-97450000D02*
X102375000Y-97450000D01*
X98325000Y-98010000D02*
G75*
G02*
X98425000Y-98010000I50000J0D01*
G01*
X98425000Y-98010000D02*
G75*
G02*
X98325000Y-98010000I-50000J0D01*
G01*
D14*
%TO.C,J1*%
X140870000Y-89580000D02*
X142460000Y-89580000D01*
X146280000Y-89580000D02*
X144900000Y-89580000D01*
X140870000Y-80640000D02*
X142460000Y-80640000D01*
X146280000Y-80640000D02*
X146280000Y-89580000D01*
X146280000Y-80640000D02*
X144900000Y-80640000D01*
%TD*%
M02*
